%TF.GenerationSoftware,KiCad,Pcbnew,8.0.4*%
%TF.CreationDate,2024-08-30T10:55:45+02:00*%
%TF.ProjectId,bitaxeHex,62697461-7865-4486-9578-2e6b69636164,701*%
%TF.SameCoordinates,Original*%
%TF.FileFunction,Soldermask,Top*%
%TF.FilePolarity,Negative*%
%FSLAX46Y46*%
G04 Gerber Fmt 4.6, Leading zero omitted, Abs format (unit mm)*
G04 Created by KiCad (PCBNEW 8.0.4) date 2024-08-30 10:55:45*
%MOMM*%
%LPD*%
G01*
G04 APERTURE LIST*
G04 Aperture macros list*
%AMRoundRect*
0 Rectangle with rounded corners*
0 $1 Rounding radius*
0 $2 $3 $4 $5 $6 $7 $8 $9 X,Y pos of 4 corners*
0 Add a 4 corners polygon primitive as box body*
4,1,4,$2,$3,$4,$5,$6,$7,$8,$9,$2,$3,0*
0 Add four circle primitives for the rounded corners*
1,1,$1+$1,$2,$3*
1,1,$1+$1,$4,$5*
1,1,$1+$1,$6,$7*
1,1,$1+$1,$8,$9*
0 Add four rect primitives between the rounded corners*
20,1,$1+$1,$2,$3,$4,$5,0*
20,1,$1+$1,$4,$5,$6,$7,0*
20,1,$1+$1,$6,$7,$8,$9,0*
20,1,$1+$1,$8,$9,$2,$3,0*%
G04 Aperture macros list end*
%ADD10C,0.120000*%
%ADD11C,0.990600*%
%ADD12C,0.787400*%
%ADD13C,1.000000*%
%ADD14RoundRect,0.135000X0.185000X-0.135000X0.185000X0.135000X-0.185000X0.135000X-0.185000X-0.135000X0*%
%ADD15C,0.800000*%
%ADD16C,6.000000*%
%ADD17R,1.600200X1.168400*%
%ADD18C,2.520000*%
%ADD19C,1.295400*%
%ADD20C,1.574800*%
%ADD21C,5.000000*%
%ADD22RoundRect,0.250000X-0.475000X0.250000X-0.475000X-0.250000X0.475000X-0.250000X0.475000X0.250000X0*%
%ADD23RoundRect,0.135000X0.135000X0.185000X-0.135000X0.185000X-0.135000X-0.185000X0.135000X-0.185000X0*%
%ADD24RoundRect,0.200000X0.450000X0.200000X-0.450000X0.200000X-0.450000X-0.200000X0.450000X-0.200000X0*%
%ADD25O,0.740000X1.750000*%
%ADD26RoundRect,0.150000X0.150000X0.750000X-0.150000X0.750000X-0.150000X-0.750000X0.150000X-0.750000X0*%
%ADD27C,2.000000*%
%ADD28R,9.000000X2.380000*%
%ADD29RoundRect,0.140000X0.140000X0.170000X-0.140000X0.170000X-0.140000X-0.170000X0.140000X-0.170000X0*%
%ADD30RoundRect,0.225000X-0.225000X-0.250000X0.225000X-0.250000X0.225000X0.250000X-0.225000X0.250000X0*%
%ADD31RoundRect,0.250000X-1.500000X-0.550000X1.500000X-0.550000X1.500000X0.550000X-1.500000X0.550000X0*%
%ADD32R,1.700000X1.700000*%
%ADD33O,1.700000X1.700000*%
%ADD34RoundRect,0.055250X0.340750X0.055250X-0.340750X0.055250X-0.340750X-0.055250X0.340750X-0.055250X0*%
%ADD35RoundRect,0.135000X-0.185000X0.135000X-0.185000X-0.135000X0.185000X-0.135000X0.185000X0.135000X0*%
%ADD36RoundRect,0.140000X0.170000X-0.140000X0.170000X0.140000X-0.170000X0.140000X-0.170000X-0.140000X0*%
%ADD37RoundRect,0.250000X1.100000X-0.325000X1.100000X0.325000X-1.100000X0.325000X-1.100000X-0.325000X0*%
%ADD38RoundRect,0.140000X-0.140000X-0.170000X0.140000X-0.170000X0.140000X0.170000X-0.140000X0.170000X0*%
%ADD39R,1.400000X0.300000*%
%ADD40RoundRect,0.062500X0.062500X-0.337500X0.062500X0.337500X-0.062500X0.337500X-0.062500X-0.337500X0*%
%ADD41RoundRect,0.062500X0.337500X-0.062500X0.337500X0.062500X-0.337500X0.062500X-0.337500X-0.062500X0*%
%ADD42C,0.400000*%
%ADD43R,5.300000X3.300000*%
%ADD44R,0.711200X0.228600*%
%ADD45R,1.500000X0.900000*%
%ADD46R,0.900000X1.500000*%
%ADD47R,0.900000X0.900000*%
%ADD48RoundRect,0.250000X-0.325000X-1.100000X0.325000X-1.100000X0.325000X1.100000X-0.325000X1.100000X0*%
%ADD49RoundRect,0.140000X-0.170000X0.140000X-0.170000X-0.140000X0.170000X-0.140000X0.170000X0.140000X0*%
%ADD50C,0.650000*%
%ADD51R,0.600000X1.060000*%
%ADD52R,0.300000X1.150000*%
%ADD53O,1.000000X2.100000*%
%ADD54O,1.000000X1.800000*%
%ADD55RoundRect,0.135000X-0.135000X-0.185000X0.135000X-0.185000X0.135000X0.185000X-0.135000X0.185000X0*%
%ADD56RoundRect,0.250000X-0.312500X-0.625000X0.312500X-0.625000X0.312500X0.625000X-0.312500X0.625000X0*%
%ADD57RoundRect,0.250000X-0.250000X-0.475000X0.250000X-0.475000X0.250000X0.475000X-0.250000X0.475000X0*%
G04 APERTURE END LIST*
%TO.C,U12*%
D10*
X75888000Y-95966000D02*
X77688000Y-95966000D01*
X77688000Y-98326000D01*
X75888000Y-98326000D01*
X75888000Y-95966000D01*
G36*
X75888000Y-95966000D02*
G01*
X77688000Y-95966000D01*
X77688000Y-98326000D01*
X75888000Y-98326000D01*
X75888000Y-95966000D01*
G37*
X75908000Y-93156000D02*
X77708000Y-93156000D01*
X77708000Y-95516000D01*
X75908000Y-95516000D01*
X75908000Y-93156000D01*
G36*
X75908000Y-93156000D02*
G01*
X77708000Y-93156000D01*
X77708000Y-95516000D01*
X75908000Y-95516000D01*
X75908000Y-93156000D01*
G37*
X75908000Y-98916000D02*
X77688000Y-98916000D01*
X77688000Y-100786000D01*
X75908000Y-100786000D01*
X75908000Y-98916000D01*
G36*
X75908000Y-98916000D02*
G01*
X77688000Y-98916000D01*
X77688000Y-100786000D01*
X75908000Y-100786000D01*
X75908000Y-98916000D01*
G37*
X78258000Y-93156000D02*
X80058000Y-93156000D01*
X80058000Y-95516000D01*
X78258000Y-95516000D01*
X78258000Y-93156000D01*
G36*
X78258000Y-93156000D02*
G01*
X80058000Y-93156000D01*
X80058000Y-95516000D01*
X78258000Y-95516000D01*
X78258000Y-93156000D01*
G37*
X78258000Y-95976000D02*
X80058000Y-95976000D01*
X80058000Y-98336000D01*
X78258000Y-98336000D01*
X78258000Y-95976000D01*
G36*
X78258000Y-95976000D02*
G01*
X80058000Y-95976000D01*
X80058000Y-98336000D01*
X78258000Y-98336000D01*
X78258000Y-95976000D01*
G37*
X78278000Y-98906000D02*
X80058000Y-98906000D01*
X80058000Y-100786000D01*
X78278000Y-100786000D01*
X78278000Y-98906000D01*
G36*
X78278000Y-98906000D02*
G01*
X80058000Y-98906000D01*
X80058000Y-100786000D01*
X78278000Y-100786000D01*
X78278000Y-98906000D01*
G37*
%TO.C,U18*%
X105992000Y-124190000D02*
X107792000Y-124190000D01*
X107792000Y-126550000D01*
X105992000Y-126550000D01*
X105992000Y-124190000D01*
G36*
X105992000Y-124190000D02*
G01*
X107792000Y-124190000D01*
X107792000Y-126550000D01*
X105992000Y-126550000D01*
X105992000Y-124190000D01*
G37*
X106012000Y-121380000D02*
X107812000Y-121380000D01*
X107812000Y-123740000D01*
X106012000Y-123740000D01*
X106012000Y-121380000D01*
G36*
X106012000Y-121380000D02*
G01*
X107812000Y-121380000D01*
X107812000Y-123740000D01*
X106012000Y-123740000D01*
X106012000Y-121380000D01*
G37*
X106012000Y-127140000D02*
X107792000Y-127140000D01*
X107792000Y-129010000D01*
X106012000Y-129010000D01*
X106012000Y-127140000D01*
G36*
X106012000Y-127140000D02*
G01*
X107792000Y-127140000D01*
X107792000Y-129010000D01*
X106012000Y-129010000D01*
X106012000Y-127140000D01*
G37*
X108362000Y-121380000D02*
X110162000Y-121380000D01*
X110162000Y-123740000D01*
X108362000Y-123740000D01*
X108362000Y-121380000D01*
G36*
X108362000Y-121380000D02*
G01*
X110162000Y-121380000D01*
X110162000Y-123740000D01*
X108362000Y-123740000D01*
X108362000Y-121380000D01*
G37*
X108362000Y-124200000D02*
X110162000Y-124200000D01*
X110162000Y-126560000D01*
X108362000Y-126560000D01*
X108362000Y-124200000D01*
G36*
X108362000Y-124200000D02*
G01*
X110162000Y-124200000D01*
X110162000Y-126560000D01*
X108362000Y-126560000D01*
X108362000Y-124200000D01*
G37*
X108382000Y-127130000D02*
X110162000Y-127130000D01*
X110162000Y-129010000D01*
X108382000Y-129010000D01*
X108382000Y-127130000D01*
G36*
X108382000Y-127130000D02*
G01*
X110162000Y-127130000D01*
X110162000Y-129010000D01*
X108382000Y-129010000D01*
X108382000Y-127130000D01*
G37*
%TO.C,U28*%
X105992000Y-95966000D02*
X107792000Y-95966000D01*
X107792000Y-98326000D01*
X105992000Y-98326000D01*
X105992000Y-95966000D01*
G36*
X105992000Y-95966000D02*
G01*
X107792000Y-95966000D01*
X107792000Y-98326000D01*
X105992000Y-98326000D01*
X105992000Y-95966000D01*
G37*
X106012000Y-93156000D02*
X107812000Y-93156000D01*
X107812000Y-95516000D01*
X106012000Y-95516000D01*
X106012000Y-93156000D01*
G36*
X106012000Y-93156000D02*
G01*
X107812000Y-93156000D01*
X107812000Y-95516000D01*
X106012000Y-95516000D01*
X106012000Y-93156000D01*
G37*
X106012000Y-98916000D02*
X107792000Y-98916000D01*
X107792000Y-100786000D01*
X106012000Y-100786000D01*
X106012000Y-98916000D01*
G36*
X106012000Y-98916000D02*
G01*
X107792000Y-98916000D01*
X107792000Y-100786000D01*
X106012000Y-100786000D01*
X106012000Y-98916000D01*
G37*
X108362000Y-93156000D02*
X110162000Y-93156000D01*
X110162000Y-95516000D01*
X108362000Y-95516000D01*
X108362000Y-93156000D01*
G36*
X108362000Y-93156000D02*
G01*
X110162000Y-93156000D01*
X110162000Y-95516000D01*
X108362000Y-95516000D01*
X108362000Y-93156000D01*
G37*
X108362000Y-95976000D02*
X110162000Y-95976000D01*
X110162000Y-98336000D01*
X108362000Y-98336000D01*
X108362000Y-95976000D01*
G36*
X108362000Y-95976000D02*
G01*
X110162000Y-95976000D01*
X110162000Y-98336000D01*
X108362000Y-98336000D01*
X108362000Y-95976000D01*
G37*
X108382000Y-98906000D02*
X110162000Y-98906000D01*
X110162000Y-100786000D01*
X108382000Y-100786000D01*
X108382000Y-98906000D01*
G36*
X108382000Y-98906000D02*
G01*
X110162000Y-98906000D01*
X110162000Y-100786000D01*
X108382000Y-100786000D01*
X108382000Y-98906000D01*
G37*
%TO.C,U25*%
X105992000Y-151920000D02*
X107792000Y-151920000D01*
X107792000Y-154280000D01*
X105992000Y-154280000D01*
X105992000Y-151920000D01*
G36*
X105992000Y-151920000D02*
G01*
X107792000Y-151920000D01*
X107792000Y-154280000D01*
X105992000Y-154280000D01*
X105992000Y-151920000D01*
G37*
X106012000Y-149110000D02*
X107812000Y-149110000D01*
X107812000Y-151470000D01*
X106012000Y-151470000D01*
X106012000Y-149110000D01*
G36*
X106012000Y-149110000D02*
G01*
X107812000Y-149110000D01*
X107812000Y-151470000D01*
X106012000Y-151470000D01*
X106012000Y-149110000D01*
G37*
X106012000Y-154870000D02*
X107792000Y-154870000D01*
X107792000Y-156740000D01*
X106012000Y-156740000D01*
X106012000Y-154870000D01*
G36*
X106012000Y-154870000D02*
G01*
X107792000Y-154870000D01*
X107792000Y-156740000D01*
X106012000Y-156740000D01*
X106012000Y-154870000D01*
G37*
X108362000Y-149110000D02*
X110162000Y-149110000D01*
X110162000Y-151470000D01*
X108362000Y-151470000D01*
X108362000Y-149110000D01*
G36*
X108362000Y-149110000D02*
G01*
X110162000Y-149110000D01*
X110162000Y-151470000D01*
X108362000Y-151470000D01*
X108362000Y-149110000D01*
G37*
X108362000Y-151930000D02*
X110162000Y-151930000D01*
X110162000Y-154290000D01*
X108362000Y-154290000D01*
X108362000Y-151930000D01*
G36*
X108362000Y-151930000D02*
G01*
X110162000Y-151930000D01*
X110162000Y-154290000D01*
X108362000Y-154290000D01*
X108362000Y-151930000D01*
G37*
X108382000Y-154860000D02*
X110162000Y-154860000D01*
X110162000Y-156740000D01*
X108382000Y-156740000D01*
X108382000Y-154860000D01*
G36*
X108382000Y-154860000D02*
G01*
X110162000Y-154860000D01*
X110162000Y-156740000D01*
X108382000Y-156740000D01*
X108382000Y-154860000D01*
G37*
%TO.C,U13*%
X75888000Y-124190000D02*
X77688000Y-124190000D01*
X77688000Y-126550000D01*
X75888000Y-126550000D01*
X75888000Y-124190000D01*
G36*
X75888000Y-124190000D02*
G01*
X77688000Y-124190000D01*
X77688000Y-126550000D01*
X75888000Y-126550000D01*
X75888000Y-124190000D01*
G37*
X75908000Y-121380000D02*
X77708000Y-121380000D01*
X77708000Y-123740000D01*
X75908000Y-123740000D01*
X75908000Y-121380000D01*
G36*
X75908000Y-121380000D02*
G01*
X77708000Y-121380000D01*
X77708000Y-123740000D01*
X75908000Y-123740000D01*
X75908000Y-121380000D01*
G37*
X75908000Y-127140000D02*
X77688000Y-127140000D01*
X77688000Y-129010000D01*
X75908000Y-129010000D01*
X75908000Y-127140000D01*
G36*
X75908000Y-127140000D02*
G01*
X77688000Y-127140000D01*
X77688000Y-129010000D01*
X75908000Y-129010000D01*
X75908000Y-127140000D01*
G37*
X78258000Y-121380000D02*
X80058000Y-121380000D01*
X80058000Y-123740000D01*
X78258000Y-123740000D01*
X78258000Y-121380000D01*
G36*
X78258000Y-121380000D02*
G01*
X80058000Y-121380000D01*
X80058000Y-123740000D01*
X78258000Y-123740000D01*
X78258000Y-121380000D01*
G37*
X78258000Y-124200000D02*
X80058000Y-124200000D01*
X80058000Y-126560000D01*
X78258000Y-126560000D01*
X78258000Y-124200000D01*
G36*
X78258000Y-124200000D02*
G01*
X80058000Y-124200000D01*
X80058000Y-126560000D01*
X78258000Y-126560000D01*
X78258000Y-124200000D01*
G37*
X78278000Y-127130000D02*
X80058000Y-127130000D01*
X80058000Y-129010000D01*
X78278000Y-129010000D01*
X78278000Y-127130000D01*
G36*
X78278000Y-127130000D02*
G01*
X80058000Y-127130000D01*
X80058000Y-129010000D01*
X78278000Y-129010000D01*
X78278000Y-127130000D01*
G37*
%TO.C,U27*%
X75888000Y-151920000D02*
X77688000Y-151920000D01*
X77688000Y-154280000D01*
X75888000Y-154280000D01*
X75888000Y-151920000D01*
G36*
X75888000Y-151920000D02*
G01*
X77688000Y-151920000D01*
X77688000Y-154280000D01*
X75888000Y-154280000D01*
X75888000Y-151920000D01*
G37*
X75908000Y-149110000D02*
X77708000Y-149110000D01*
X77708000Y-151470000D01*
X75908000Y-151470000D01*
X75908000Y-149110000D01*
G36*
X75908000Y-149110000D02*
G01*
X77708000Y-149110000D01*
X77708000Y-151470000D01*
X75908000Y-151470000D01*
X75908000Y-149110000D01*
G37*
X75908000Y-154870000D02*
X77688000Y-154870000D01*
X77688000Y-156740000D01*
X75908000Y-156740000D01*
X75908000Y-154870000D01*
G36*
X75908000Y-154870000D02*
G01*
X77688000Y-154870000D01*
X77688000Y-156740000D01*
X75908000Y-156740000D01*
X75908000Y-154870000D01*
G37*
X78258000Y-149110000D02*
X80058000Y-149110000D01*
X80058000Y-151470000D01*
X78258000Y-151470000D01*
X78258000Y-149110000D01*
G36*
X78258000Y-149110000D02*
G01*
X80058000Y-149110000D01*
X80058000Y-151470000D01*
X78258000Y-151470000D01*
X78258000Y-149110000D01*
G37*
X78258000Y-151930000D02*
X80058000Y-151930000D01*
X80058000Y-154290000D01*
X78258000Y-154290000D01*
X78258000Y-151930000D01*
G36*
X78258000Y-151930000D02*
G01*
X80058000Y-151930000D01*
X80058000Y-154290000D01*
X78258000Y-154290000D01*
X78258000Y-151930000D01*
G37*
X78278000Y-154860000D02*
X80058000Y-154860000D01*
X80058000Y-156740000D01*
X78278000Y-156740000D01*
X78278000Y-154860000D01*
G36*
X78278000Y-154860000D02*
G01*
X80058000Y-154860000D01*
X80058000Y-156740000D01*
X78278000Y-156740000D01*
X78278000Y-154860000D01*
G37*
%TD*%
D11*
%TO.C,J4*%
X129900000Y-57360000D03*
X130916000Y-62440000D03*
X128884000Y-62440000D03*
D12*
X129265000Y-58630000D03*
X130535000Y-58630000D03*
X129265000Y-59900000D03*
X130535000Y-59900000D03*
X129265000Y-61170000D03*
X130535000Y-61170000D03*
%TD*%
D13*
%TO.C,TP5*%
X80900000Y-71950000D03*
%TD*%
D14*
%TO.C,R18*%
X88850000Y-54430000D03*
X88850000Y-53410000D03*
%TD*%
D15*
%TO.C,H1*%
X51250000Y-49500000D03*
X51909010Y-47909010D03*
X51909010Y-51090990D03*
X53500000Y-47250000D03*
D16*
X53500000Y-49500000D03*
D15*
X53500000Y-51750000D03*
X55090990Y-47909010D03*
X55090990Y-51090990D03*
X55750000Y-49500000D03*
%TD*%
D17*
%TO.C,Y1*%
X101300000Y-56777600D03*
X101300000Y-59622400D03*
%TD*%
D18*
%TO.C,J1*%
X65500000Y-54864000D03*
X65500000Y-49784000D03*
%TD*%
D19*
%TO.C,J8*%
X84780000Y-58489999D03*
D20*
X79700000Y-60650000D03*
X82240000Y-60650000D03*
X84780000Y-60650000D03*
X87320000Y-60650000D03*
%TD*%
D21*
%TO.C,H13*%
X92250000Y-97000000D03*
%TD*%
D15*
%TO.C,TP1*%
X54700000Y-67950000D03*
%TD*%
D22*
%TO.C,C23*%
X56475000Y-77300000D03*
X56475000Y-79200000D03*
%TD*%
D23*
%TO.C,R25*%
X88560000Y-67725000D03*
X87540000Y-67725000D03*
%TD*%
D24*
%TO.C,SW2*%
X81650000Y-46667500D03*
X77950000Y-46667500D03*
D25*
X81030000Y-48867500D03*
X78570000Y-48867500D03*
D26*
X79800000Y-48767500D03*
%TD*%
D15*
%TO.C,H4*%
X128750000Y-172000000D03*
X129409010Y-170409010D03*
X129409010Y-173590990D03*
X131000000Y-169750000D03*
D16*
X131000000Y-172000000D03*
D15*
X131000000Y-174250000D03*
X132590990Y-170409010D03*
X132590990Y-173590990D03*
X133250000Y-172000000D03*
%TD*%
D27*
%TO.C,FID3*%
X53340000Y-54356000D03*
%TD*%
D28*
%TO.C,L2*%
X71400000Y-76925000D03*
X71400000Y-70275000D03*
%TD*%
D29*
%TO.C,C13*%
X55500000Y-64225000D03*
X54540000Y-64225000D03*
%TD*%
D30*
%TO.C,C5*%
X53225000Y-79000000D03*
X54775000Y-79000000D03*
%TD*%
D29*
%TO.C,C36*%
X99380000Y-56800000D03*
X98420000Y-56800000D03*
%TD*%
D31*
%TO.C,C10*%
X68828000Y-63650000D03*
X74428000Y-63650000D03*
%TD*%
D21*
%TO.C,H15*%
X92250000Y-153000000D03*
%TD*%
D32*
%TO.C,J6*%
X121760000Y-69500000D03*
D33*
X119220000Y-69500000D03*
X116680000Y-69500000D03*
X114140000Y-69500000D03*
X111600000Y-69500000D03*
X109060000Y-69500000D03*
%TD*%
D34*
%TO.C,U12*%
X80894000Y-100500000D03*
X80894000Y-99998000D03*
X80894000Y-99496000D03*
X80894000Y-98994000D03*
X80894000Y-98492000D03*
X80894000Y-97990000D03*
X80894000Y-97488000D03*
X80894000Y-96986000D03*
X80894000Y-96484000D03*
X80894000Y-95982000D03*
X80894000Y-95480000D03*
X80894000Y-94978000D03*
X80894000Y-94476000D03*
X80894000Y-93974000D03*
X80894000Y-93472000D03*
X75062000Y-93472000D03*
X75062000Y-93974000D03*
X75062000Y-94476000D03*
X75062000Y-94978000D03*
X75062000Y-95480000D03*
X75062000Y-95982000D03*
X75062000Y-96484000D03*
X75062000Y-96986000D03*
X75062000Y-97488000D03*
X75062000Y-97990000D03*
X75062000Y-98492000D03*
X75062000Y-98994000D03*
X75062000Y-99496000D03*
X75062000Y-99998000D03*
X75062000Y-100500000D03*
%TD*%
D35*
%TO.C,R8*%
X55545000Y-61990000D03*
X55545000Y-63010000D03*
%TD*%
D19*
%TO.C,J9*%
X89990000Y-70214999D03*
D20*
X84910000Y-72375000D03*
X87450000Y-72375000D03*
X89990000Y-72375000D03*
X92530000Y-72375000D03*
%TD*%
D36*
%TO.C,C40*%
X88900000Y-173180000D03*
X88900000Y-172220000D03*
%TD*%
D21*
%TO.C,H14*%
X92250000Y-125000000D03*
%TD*%
D13*
%TO.C,TP6*%
X82296000Y-67818000D03*
%TD*%
D21*
%TO.C,H10*%
X122500000Y-125000000D03*
%TD*%
D37*
%TO.C,C27*%
X79500000Y-69850000D03*
X79500000Y-66900000D03*
%TD*%
D38*
%TO.C,C2*%
X61845000Y-68000000D03*
X62805000Y-68000000D03*
%TD*%
D21*
%TO.C,H9*%
X62000000Y-125000000D03*
%TD*%
D27*
%TO.C,FID1*%
X132842000Y-54050000D03*
%TD*%
D39*
%TO.C,U9*%
X95900000Y-67675000D03*
X95900000Y-67175000D03*
X95900000Y-66675000D03*
X95900000Y-66175000D03*
X95900000Y-65675000D03*
X91500000Y-65675000D03*
X91500000Y-66175000D03*
X91500000Y-66675000D03*
X91500000Y-67175000D03*
X91500000Y-67675000D03*
%TD*%
D29*
%TO.C,C37*%
X99380000Y-59600000D03*
X98420000Y-59600000D03*
%TD*%
D23*
%TO.C,R9*%
X55555000Y-65500000D03*
X54535000Y-65500000D03*
%TD*%
D35*
%TO.C,R13*%
X56725000Y-63890000D03*
X56725000Y-64910000D03*
%TD*%
D40*
%TO.C,U3*%
X55650000Y-74250000D03*
X56150000Y-74250000D03*
X56650000Y-74250000D03*
X57150000Y-74250000D03*
X57650000Y-74250000D03*
X58150000Y-74250000D03*
X58650000Y-74250000D03*
X59150000Y-74250000D03*
X59650000Y-74250000D03*
X60150000Y-74250000D03*
X60650000Y-74250000D03*
X61150000Y-74250000D03*
D41*
X61900000Y-73500000D03*
X61900000Y-73000000D03*
X61900000Y-72500000D03*
X61900000Y-72000000D03*
X61900000Y-71500000D03*
X61900000Y-71000000D03*
X61900000Y-70500000D03*
X61900000Y-70000000D03*
D40*
X61150000Y-69250000D03*
X60650000Y-69250000D03*
X60150000Y-69250000D03*
X59650000Y-69250000D03*
X59150000Y-69250000D03*
X58650000Y-69250000D03*
X58150000Y-69250000D03*
X57650000Y-69250000D03*
X57150000Y-69250000D03*
X56650000Y-69250000D03*
X56150000Y-69250000D03*
X55650000Y-69250000D03*
D41*
X54900000Y-70000000D03*
X54900000Y-70500000D03*
X54900000Y-71000000D03*
X54900000Y-71500000D03*
X54900000Y-72000000D03*
X54900000Y-72500000D03*
X54900000Y-73000000D03*
X54900000Y-73500000D03*
D42*
X57000000Y-73030000D03*
X58400000Y-73030000D03*
X59800000Y-73030000D03*
X56000000Y-71750000D03*
X57000000Y-71750000D03*
X58400000Y-71750000D03*
D43*
X58400000Y-71750000D03*
D42*
X59800000Y-71750000D03*
X60800000Y-71750000D03*
X57000000Y-70470000D03*
X58400000Y-70470000D03*
X59800000Y-70470000D03*
%TD*%
D27*
%TO.C,FID7*%
X58725000Y-173825000D03*
%TD*%
D38*
%TO.C,C16*%
X61845000Y-66825000D03*
X62805000Y-66825000D03*
%TD*%
D44*
%TO.C,U7*%
X83500100Y-54899999D03*
X83500100Y-54400000D03*
X83500100Y-53900001D03*
X81899900Y-53900001D03*
X81899900Y-54400000D03*
X81899900Y-54899999D03*
%TD*%
D21*
%TO.C,H12*%
X122500000Y-153000000D03*
%TD*%
D22*
%TO.C,C22*%
X58575000Y-77300000D03*
X58575000Y-79200000D03*
%TD*%
D21*
%TO.C,H8*%
X122500000Y-97000000D03*
%TD*%
D34*
%TO.C,U18*%
X110998000Y-128724000D03*
X110998000Y-128222000D03*
X110998000Y-127720000D03*
X110998000Y-127218000D03*
X110998000Y-126716000D03*
X110998000Y-126214000D03*
X110998000Y-125712000D03*
X110998000Y-125210000D03*
X110998000Y-124708000D03*
X110998000Y-124206000D03*
X110998000Y-123704000D03*
X110998000Y-123202000D03*
X110998000Y-122700000D03*
X110998000Y-122198000D03*
X110998000Y-121696000D03*
X105166000Y-121696000D03*
X105166000Y-122198000D03*
X105166000Y-122700000D03*
X105166000Y-123202000D03*
X105166000Y-123704000D03*
X105166000Y-124206000D03*
X105166000Y-124708000D03*
X105166000Y-125210000D03*
X105166000Y-125712000D03*
X105166000Y-126214000D03*
X105166000Y-126716000D03*
X105166000Y-127218000D03*
X105166000Y-127720000D03*
X105166000Y-128222000D03*
X105166000Y-128724000D03*
%TD*%
D21*
%TO.C,H7*%
X62000000Y-97000000D03*
%TD*%
D32*
%TO.C,J5*%
X125800000Y-55200000D03*
D33*
X125800000Y-57740000D03*
X125800000Y-60280000D03*
X125800000Y-62820000D03*
%TD*%
D45*
%TO.C,U6*%
X104350000Y-47780000D03*
X104350000Y-49050000D03*
X104350000Y-50320000D03*
X104350000Y-51590000D03*
X104350000Y-52860000D03*
X104350000Y-54130000D03*
X104350000Y-55400000D03*
X104350000Y-56670000D03*
X104350000Y-57940000D03*
X104350000Y-59210000D03*
X104350000Y-60480000D03*
X104350000Y-61750000D03*
X104350000Y-63020000D03*
X104350000Y-64290000D03*
D46*
X106115000Y-65540000D03*
X107385000Y-65540000D03*
X108655000Y-65540000D03*
X109925000Y-65540000D03*
X111195000Y-65540000D03*
X112465000Y-65540000D03*
X113735000Y-65540000D03*
X115005000Y-65540000D03*
X116275000Y-65540000D03*
X117545000Y-65540000D03*
X118815000Y-65540000D03*
X120085000Y-65540000D03*
D45*
X121850000Y-64290000D03*
X121850000Y-63020000D03*
X121850000Y-61750000D03*
X121850000Y-60480000D03*
X121850000Y-59210000D03*
X121850000Y-57940000D03*
X121850000Y-56670000D03*
X121850000Y-55400000D03*
X121850000Y-54130000D03*
X121850000Y-52860000D03*
X121850000Y-51590000D03*
X121850000Y-50320000D03*
X121850000Y-49050000D03*
X121850000Y-47780000D03*
D47*
X110200000Y-54100000D03*
X110200000Y-55500000D03*
X110200000Y-56900000D03*
X111600000Y-54100000D03*
X111600000Y-55500000D03*
X111600000Y-56900000D03*
X113000000Y-54100000D03*
X113000000Y-55500000D03*
X113000000Y-56900000D03*
%TD*%
D48*
%TO.C,C9*%
X66125000Y-58300000D03*
X69075000Y-58300000D03*
%TD*%
D34*
%TO.C,U28*%
X110998000Y-100500000D03*
X110998000Y-99998000D03*
X110998000Y-99496000D03*
X110998000Y-98994000D03*
X110998000Y-98492000D03*
X110998000Y-97990000D03*
X110998000Y-97488000D03*
X110998000Y-96986000D03*
X110998000Y-96484000D03*
X110998000Y-95982000D03*
X110998000Y-95480000D03*
X110998000Y-94978000D03*
X110998000Y-94476000D03*
X110998000Y-93974000D03*
X110998000Y-93472000D03*
X105166000Y-93472000D03*
X105166000Y-93974000D03*
X105166000Y-94476000D03*
X105166000Y-94978000D03*
X105166000Y-95480000D03*
X105166000Y-95982000D03*
X105166000Y-96484000D03*
X105166000Y-96986000D03*
X105166000Y-97488000D03*
X105166000Y-97990000D03*
X105166000Y-98492000D03*
X105166000Y-98994000D03*
X105166000Y-99496000D03*
X105166000Y-99998000D03*
X105166000Y-100500000D03*
%TD*%
D27*
%TO.C,FID5*%
X125984000Y-173228000D03*
%TD*%
D34*
%TO.C,U25*%
X110998000Y-156454000D03*
X110998000Y-155952000D03*
X110998000Y-155450000D03*
X110998000Y-154948000D03*
X110998000Y-154446000D03*
X110998000Y-153944000D03*
X110998000Y-153442000D03*
X110998000Y-152940000D03*
X110998000Y-152438000D03*
X110998000Y-151936000D03*
X110998000Y-151434000D03*
X110998000Y-150932000D03*
X110998000Y-150430000D03*
X110998000Y-149928000D03*
X110998000Y-149426000D03*
X105166000Y-149426000D03*
X105166000Y-149928000D03*
X105166000Y-150430000D03*
X105166000Y-150932000D03*
X105166000Y-151434000D03*
X105166000Y-151936000D03*
X105166000Y-152438000D03*
X105166000Y-152940000D03*
X105166000Y-153442000D03*
X105166000Y-153944000D03*
X105166000Y-154446000D03*
X105166000Y-154948000D03*
X105166000Y-155450000D03*
X105166000Y-155952000D03*
X105166000Y-156454000D03*
%TD*%
D49*
%TO.C,C32*%
X90300000Y-53440000D03*
X90300000Y-54400000D03*
%TD*%
D15*
%TO.C,H5*%
X51250000Y-110750000D03*
X51909010Y-109159010D03*
X51909010Y-112340990D03*
X53500000Y-108500000D03*
D16*
X53500000Y-110750000D03*
D15*
X53500000Y-113000000D03*
X55090990Y-109159010D03*
X55090990Y-112340990D03*
X55750000Y-110750000D03*
%TD*%
D34*
%TO.C,U13*%
X80894000Y-128724000D03*
X80894000Y-128222000D03*
X80894000Y-127720000D03*
X80894000Y-127218000D03*
X80894000Y-126716000D03*
X80894000Y-126214000D03*
X80894000Y-125712000D03*
X80894000Y-125210000D03*
X80894000Y-124708000D03*
X80894000Y-124206000D03*
X80894000Y-123704000D03*
X80894000Y-123202000D03*
X80894000Y-122700000D03*
X80894000Y-122198000D03*
X80894000Y-121696000D03*
X75062000Y-121696000D03*
X75062000Y-122198000D03*
X75062000Y-122700000D03*
X75062000Y-123202000D03*
X75062000Y-123704000D03*
X75062000Y-124206000D03*
X75062000Y-124708000D03*
X75062000Y-125210000D03*
X75062000Y-125712000D03*
X75062000Y-126214000D03*
X75062000Y-126716000D03*
X75062000Y-127218000D03*
X75062000Y-127720000D03*
X75062000Y-128222000D03*
X75062000Y-128724000D03*
%TD*%
D50*
%TO.C,J7*%
X99560000Y-52300000D03*
X93780000Y-52300000D03*
D51*
X99870000Y-53420000D03*
X99070000Y-53420000D03*
D52*
X97920000Y-53375000D03*
X96920000Y-53375000D03*
X96420000Y-53375000D03*
X95420000Y-53375000D03*
D51*
X94270000Y-53420000D03*
X93470000Y-53420000D03*
X93470000Y-53420000D03*
X94270000Y-53420000D03*
D52*
X94920000Y-53375000D03*
X95920000Y-53375000D03*
X97420000Y-53375000D03*
X98420000Y-53375000D03*
D51*
X99070000Y-53420000D03*
X99870000Y-53420000D03*
D53*
X100990000Y-52800000D03*
D54*
X100990000Y-48620000D03*
D53*
X92350000Y-52800000D03*
D54*
X92350000Y-48620000D03*
%TD*%
D55*
%TO.C,R17*%
X103090000Y-67225000D03*
X104110000Y-67225000D03*
%TD*%
D56*
%TO.C,R14*%
X60387500Y-78750000D03*
X63312500Y-78750000D03*
%TD*%
D24*
%TO.C,SW1*%
X89200000Y-46667500D03*
X85500000Y-46667500D03*
D25*
X88580000Y-48867500D03*
X86120000Y-48867500D03*
D26*
X87350000Y-48767500D03*
%TD*%
D15*
%TO.C,H2*%
X128750000Y-49500000D03*
X129409010Y-47909010D03*
X129409010Y-51090990D03*
X131000000Y-47250000D03*
D16*
X131000000Y-49500000D03*
D15*
X131000000Y-51750000D03*
X132590990Y-47909010D03*
X132590990Y-51090990D03*
X133250000Y-49500000D03*
%TD*%
%TO.C,H3*%
X51250000Y-172000000D03*
X51909010Y-170409010D03*
X51909010Y-173590990D03*
X53500000Y-169750000D03*
D16*
X53500000Y-172000000D03*
D15*
X53500000Y-174250000D03*
X55090990Y-170409010D03*
X55090990Y-173590990D03*
X55750000Y-172000000D03*
%TD*%
D49*
%TO.C,C24*%
X53025000Y-69795000D03*
X53025000Y-70755000D03*
%TD*%
D21*
%TO.C,H11*%
X62000000Y-153000000D03*
%TD*%
D49*
%TO.C,C38*%
X95600000Y-69120000D03*
X95600000Y-70080000D03*
%TD*%
D15*
%TO.C,H6*%
X128750000Y-110750000D03*
X129409010Y-109159010D03*
X129409010Y-112340990D03*
X131000000Y-108500000D03*
D16*
X131000000Y-110750000D03*
D15*
X131000000Y-113000000D03*
X132590990Y-109159010D03*
X132590990Y-112340990D03*
X133250000Y-110750000D03*
%TD*%
D57*
%TO.C,C14*%
X62125000Y-65275000D03*
X64025000Y-65275000D03*
%TD*%
D34*
%TO.C,U27*%
X80894000Y-156454000D03*
X80894000Y-155952000D03*
X80894000Y-155450000D03*
X80894000Y-154948000D03*
X80894000Y-154446000D03*
X80894000Y-153944000D03*
X80894000Y-153442000D03*
X80894000Y-152940000D03*
X80894000Y-152438000D03*
X80894000Y-151936000D03*
X80894000Y-151434000D03*
X80894000Y-150932000D03*
X80894000Y-150430000D03*
X80894000Y-149928000D03*
X80894000Y-149426000D03*
X75062000Y-149426000D03*
X75062000Y-149928000D03*
X75062000Y-150430000D03*
X75062000Y-150932000D03*
X75062000Y-151434000D03*
X75062000Y-151936000D03*
X75062000Y-152438000D03*
X75062000Y-152940000D03*
X75062000Y-153442000D03*
X75062000Y-153944000D03*
X75062000Y-154446000D03*
X75062000Y-154948000D03*
X75062000Y-155450000D03*
X75062000Y-155952000D03*
X75062000Y-156454000D03*
%TD*%
D44*
%TO.C,U8*%
X92400900Y-173699999D03*
X92400900Y-173200000D03*
X92400900Y-172700001D03*
X90800700Y-172700001D03*
X90800700Y-173200000D03*
X90800700Y-173699999D03*
%TD*%
D13*
%TO.C,TP32*%
X93300000Y-56750000D03*
%TD*%
D18*
%TO.C,J2*%
X72644000Y-54864000D03*
X72644000Y-49784000D03*
%TD*%
D23*
%TO.C,R24*%
X88535000Y-66125000D03*
X87515000Y-66125000D03*
%TD*%
D32*
%TO.C,J3*%
X54450000Y-98970000D03*
D33*
X56990000Y-98970000D03*
X54450000Y-96430000D03*
X56990000Y-96430000D03*
X54450000Y-93890000D03*
X56990000Y-93890000D03*
X54450000Y-91350000D03*
X56990000Y-91350000D03*
X54450000Y-88810000D03*
X56990000Y-88810000D03*
%TD*%
M02*
