%TF.GenerationSoftware,KiCad,Pcbnew,8.0.1*%
%TF.CreationDate,2024-09-09T23:21:27+08:00*%
%TF.ProjectId,bitaxeHex,62697461-7865-4486-9578-2e6b69636164,701*%
%TF.SameCoordinates,Original*%
%TF.FileFunction,Copper,L1,Top*%
%TF.FilePolarity,Positive*%
%FSLAX46Y46*%
G04 Gerber Fmt 4.6, Leading zero omitted, Abs format (unit mm)*
G04 Created by KiCad (PCBNEW 8.0.1) date 2024-09-09 23:21:27*
%MOMM*%
%LPD*%
G01*
G04 APERTURE LIST*
G04 Aperture macros list*
%AMRoundRect*
0 Rectangle with rounded corners*
0 $1 Rounding radius*
0 $2 $3 $4 $5 $6 $7 $8 $9 X,Y pos of 4 corners*
0 Add a 4 corners polygon primitive as box body*
4,1,4,$2,$3,$4,$5,$6,$7,$8,$9,$2,$3,0*
0 Add four circle primitives for the rounded corners*
1,1,$1+$1,$2,$3*
1,1,$1+$1,$4,$5*
1,1,$1+$1,$6,$7*
1,1,$1+$1,$8,$9*
0 Add four rect primitives between the rounded corners*
20,1,$1+$1,$2,$3,$4,$5,0*
20,1,$1+$1,$4,$5,$6,$7,0*
20,1,$1+$1,$6,$7,$8,$9,0*
20,1,$1+$1,$8,$9,$2,$3,0*%
G04 Aperture macros list end*
%TA.AperFunction,NonConductor*%
%ADD10C,0.250000*%
%TD*%
%TA.AperFunction,ConnectorPad*%
%ADD11C,0.787400*%
%TD*%
%TA.AperFunction,SMDPad,CuDef*%
%ADD12C,1.000000*%
%TD*%
%TA.AperFunction,SMDPad,CuDef*%
%ADD13RoundRect,0.135000X0.185000X-0.135000X0.185000X0.135000X-0.185000X0.135000X-0.185000X-0.135000X0*%
%TD*%
%TA.AperFunction,ComponentPad*%
%ADD14C,0.800000*%
%TD*%
%TA.AperFunction,ComponentPad*%
%ADD15C,6.000000*%
%TD*%
%TA.AperFunction,SMDPad,CuDef*%
%ADD16R,1.600200X1.168400*%
%TD*%
%TA.AperFunction,ComponentPad*%
%ADD17C,2.520000*%
%TD*%
%TA.AperFunction,ComponentPad*%
%ADD18C,1.574800*%
%TD*%
%TA.AperFunction,ComponentPad*%
%ADD19C,5.000000*%
%TD*%
%TA.AperFunction,SMDPad,CuDef*%
%ADD20C,0.800000*%
%TD*%
%TA.AperFunction,SMDPad,CuDef*%
%ADD21RoundRect,0.250000X-0.475000X0.250000X-0.475000X-0.250000X0.475000X-0.250000X0.475000X0.250000X0*%
%TD*%
%TA.AperFunction,SMDPad,CuDef*%
%ADD22RoundRect,0.135000X0.135000X0.185000X-0.135000X0.185000X-0.135000X-0.185000X0.135000X-0.185000X0*%
%TD*%
%TA.AperFunction,SMDPad,CuDef*%
%ADD23RoundRect,0.200000X0.450000X0.200000X-0.450000X0.200000X-0.450000X-0.200000X0.450000X-0.200000X0*%
%TD*%
%TA.AperFunction,SMDPad,CuDef*%
%ADD24O,0.740000X1.750000*%
%TD*%
%TA.AperFunction,SMDPad,CuDef*%
%ADD25RoundRect,0.150000X0.150000X0.750000X-0.150000X0.750000X-0.150000X-0.750000X0.150000X-0.750000X0*%
%TD*%
%TA.AperFunction,SMDPad,CuDef*%
%ADD26R,9.000000X2.380000*%
%TD*%
%TA.AperFunction,SMDPad,CuDef*%
%ADD27RoundRect,0.140000X0.140000X0.170000X-0.140000X0.170000X-0.140000X-0.170000X0.140000X-0.170000X0*%
%TD*%
%TA.AperFunction,SMDPad,CuDef*%
%ADD28RoundRect,0.225000X-0.225000X-0.250000X0.225000X-0.250000X0.225000X0.250000X-0.225000X0.250000X0*%
%TD*%
%TA.AperFunction,SMDPad,CuDef*%
%ADD29RoundRect,0.250000X-1.500000X-0.550000X1.500000X-0.550000X1.500000X0.550000X-1.500000X0.550000X0*%
%TD*%
%TA.AperFunction,ComponentPad*%
%ADD30R,1.700000X1.700000*%
%TD*%
%TA.AperFunction,ComponentPad*%
%ADD31O,1.700000X1.700000*%
%TD*%
%TA.AperFunction,SMDPad,CuDef*%
%ADD32RoundRect,0.055250X0.340750X0.055250X-0.340750X0.055250X-0.340750X-0.055250X0.340750X-0.055250X0*%
%TD*%
%TA.AperFunction,SMDPad,CuDef*%
%ADD33R,4.277000X2.000000*%
%TD*%
%TA.AperFunction,SMDPad,CuDef*%
%ADD34R,4.277000X5.300000*%
%TD*%
%TA.AperFunction,SMDPad,CuDef*%
%ADD35RoundRect,0.135000X-0.185000X0.135000X-0.185000X-0.135000X0.185000X-0.135000X0.185000X0.135000X0*%
%TD*%
%TA.AperFunction,SMDPad,CuDef*%
%ADD36RoundRect,0.140000X0.170000X-0.140000X0.170000X0.140000X-0.170000X0.140000X-0.170000X-0.140000X0*%
%TD*%
%TA.AperFunction,SMDPad,CuDef*%
%ADD37R,0.625000X1.000000*%
%TD*%
%TA.AperFunction,SMDPad,CuDef*%
%ADD38RoundRect,0.250000X1.100000X-0.325000X1.100000X0.325000X-1.100000X0.325000X-1.100000X-0.325000X0*%
%TD*%
%TA.AperFunction,SMDPad,CuDef*%
%ADD39RoundRect,0.140000X-0.140000X-0.170000X0.140000X-0.170000X0.140000X0.170000X-0.140000X0.170000X0*%
%TD*%
%TA.AperFunction,SMDPad,CuDef*%
%ADD40R,1.400000X0.300000*%
%TD*%
%TA.AperFunction,SMDPad,CuDef*%
%ADD41RoundRect,0.062500X0.062500X-0.337500X0.062500X0.337500X-0.062500X0.337500X-0.062500X-0.337500X0*%
%TD*%
%TA.AperFunction,SMDPad,CuDef*%
%ADD42RoundRect,0.062500X0.337500X-0.062500X0.337500X0.062500X-0.337500X0.062500X-0.337500X-0.062500X0*%
%TD*%
%TA.AperFunction,ComponentPad*%
%ADD43C,0.400000*%
%TD*%
%TA.AperFunction,SMDPad,CuDef*%
%ADD44R,5.300000X3.300000*%
%TD*%
%TA.AperFunction,SMDPad,CuDef*%
%ADD45R,0.711200X0.228600*%
%TD*%
%TA.AperFunction,SMDPad,CuDef*%
%ADD46R,1.500000X0.900000*%
%TD*%
%TA.AperFunction,SMDPad,CuDef*%
%ADD47R,0.900000X1.500000*%
%TD*%
%TA.AperFunction,SMDPad,CuDef*%
%ADD48R,0.900000X0.900000*%
%TD*%
%TA.AperFunction,SMDPad,CuDef*%
%ADD49RoundRect,0.250000X-0.325000X-1.100000X0.325000X-1.100000X0.325000X1.100000X-0.325000X1.100000X0*%
%TD*%
%TA.AperFunction,SMDPad,CuDef*%
%ADD50RoundRect,0.140000X-0.170000X0.140000X-0.170000X-0.140000X0.170000X-0.140000X0.170000X0.140000X0*%
%TD*%
%TA.AperFunction,SMDPad,CuDef*%
%ADD51R,0.600000X1.060000*%
%TD*%
%TA.AperFunction,SMDPad,CuDef*%
%ADD52R,0.300000X1.150000*%
%TD*%
%TA.AperFunction,ComponentPad*%
%ADD53O,1.000000X2.100000*%
%TD*%
%TA.AperFunction,ComponentPad*%
%ADD54O,1.000000X1.800000*%
%TD*%
%TA.AperFunction,SMDPad,CuDef*%
%ADD55RoundRect,0.135000X-0.135000X-0.185000X0.135000X-0.185000X0.135000X0.185000X-0.135000X0.185000X0*%
%TD*%
%TA.AperFunction,SMDPad,CuDef*%
%ADD56RoundRect,0.250000X-0.312500X-0.625000X0.312500X-0.625000X0.312500X0.625000X-0.312500X0.625000X0*%
%TD*%
%TA.AperFunction,SMDPad,CuDef*%
%ADD57RoundRect,0.250000X-0.250000X-0.475000X0.250000X-0.475000X0.250000X0.475000X-0.250000X0.475000X0*%
%TD*%
%TA.AperFunction,ViaPad*%
%ADD58C,0.500000*%
%TD*%
%TA.AperFunction,ViaPad*%
%ADD59C,1.000000*%
%TD*%
%TA.AperFunction,ViaPad*%
%ADD60C,0.450000*%
%TD*%
%TA.AperFunction,Conductor*%
%ADD61C,0.200000*%
%TD*%
%TA.AperFunction,Conductor*%
%ADD62C,0.250000*%
%TD*%
%TA.AperFunction,Conductor*%
%ADD63C,0.400000*%
%TD*%
%TA.AperFunction,Conductor*%
%ADD64C,0.254000*%
%TD*%
%TA.AperFunction,Conductor*%
%ADD65C,0.700000*%
%TD*%
%TA.AperFunction,Conductor*%
%ADD66C,0.230000*%
%TD*%
%TA.AperFunction,Conductor*%
%ADD67C,0.300000*%
%TD*%
%TA.AperFunction,Conductor*%
%ADD68C,1.300000*%
%TD*%
%TA.AperFunction,Conductor*%
%ADD69C,2.000000*%
%TD*%
%TA.AperFunction,Conductor*%
%ADD70C,0.203200*%
%TD*%
G04 APERTURE END LIST*
D10*
X55125000Y-72000000D02*
X56125000Y-72000000D01*
D11*
%TO.P,J4,1,Pin_1*%
%TO.N,/ESP32/EN*%
X129265000Y-58630000D03*
%TO.P,J4,2,Pin_2*%
%TO.N,/3V3*%
X130535000Y-58630000D03*
%TO.P,J4,3,Pin_3*%
%TO.N,/ESP32/P_TX*%
X129265000Y-59900000D03*
%TO.P,J4,4,Pin_4*%
%TO.N,GND*%
X130535000Y-59900000D03*
%TO.P,J4,5,Pin_5*%
%TO.N,/ESP32/P_RX*%
X129265000Y-61170000D03*
%TO.P,J4,6,Pin_6*%
%TO.N,/ESP32/IO0*%
X130535000Y-61170000D03*
%TD*%
D12*
%TO.P,TP5,1,1*%
%TO.N,/VDD*%
X80900000Y-71950000D03*
%TD*%
D13*
%TO.P,R18,1*%
%TO.N,/3V3*%
X88850000Y-54430000D03*
%TO.P,R18,2*%
%TO.N,/ESP32/EN*%
X88850000Y-53410000D03*
%TD*%
D14*
%TO.P,H1,1,1*%
%TO.N,GND*%
X51250000Y-49500000D03*
X51909010Y-47909010D03*
X51909010Y-51090990D03*
X53500000Y-47250000D03*
D15*
X53500000Y-49500000D03*
D14*
X53500000Y-51750000D03*
X55090990Y-47909010D03*
X55090990Y-51090990D03*
X55750000Y-49500000D03*
%TD*%
D16*
%TO.P,Y1,1,1*%
%TO.N,/ESP32/XIN32*%
X101300000Y-56777600D03*
%TO.P,Y1,2,2*%
%TO.N,/ESP32/XOUT32*%
X101300000Y-59622400D03*
%TD*%
D17*
%TO.P,J1,1*%
%TO.N,/VIN*%
X65500000Y-54864000D03*
X65500000Y-49784000D03*
%TD*%
D18*
%TO.P,J8,1,Pin_1*%
%TO.N,GND*%
X79700000Y-60650000D03*
%TO.P,J8,2,Pin_2*%
%TO.N,/VIN*%
X82240000Y-60650000D03*
%TO.P,J8,3,Pin_3*%
%TO.N,/Fan/FAN1_TACH*%
X84780000Y-60650000D03*
%TO.P,J8,4,Pin_4*%
%TO.N,/Fan/FAN1_PWM*%
X87320000Y-60650000D03*
%TD*%
D19*
%TO.P,H13,*%
%TO.N,*%
X92250000Y-97000000D03*
%TD*%
D20*
%TO.P,TP1,1,1*%
%TO.N,Net-(U3-ADRSEL)*%
X54700000Y-67950000D03*
%TD*%
D21*
%TO.P,C23,1*%
%TO.N,Net-(U3-BOOT)*%
X56475000Y-77300000D03*
%TO.P,C23,2*%
%TO.N,/Power/SW*%
X56475000Y-79200000D03*
%TD*%
D22*
%TO.P,R25,1*%
%TO.N,/Fan/FAN2_TACH*%
X88560000Y-67725000D03*
%TO.P,R25,2*%
%TO.N,/3V3*%
X87540000Y-67725000D03*
%TD*%
D23*
%TO.P,SW2,*%
%TO.N,*%
X81650000Y-46667500D03*
X77950000Y-46667500D03*
D24*
%TO.P,SW2,1*%
%TO.N,GND*%
X81030000Y-48867500D03*
X78570000Y-48867500D03*
D25*
%TO.P,SW2,2*%
%TO.N,/ESP32/IO0*%
X79800000Y-48767500D03*
%TD*%
D14*
%TO.P,H4,1*%
%TO.N,N/C*%
X128750000Y-172000000D03*
X129409010Y-170409010D03*
X129409010Y-173590990D03*
X131000000Y-169750000D03*
D15*
X131000000Y-172000000D03*
D14*
X131000000Y-174250000D03*
X132590990Y-170409010D03*
X132590990Y-173590990D03*
X133250000Y-172000000D03*
%TD*%
D12*
%TO.P,FID3,*%
%TO.N,*%
X53340000Y-54356000D03*
%TD*%
D26*
%TO.P,L2,1,1*%
%TO.N,/Power/SW*%
X71400000Y-76925000D03*
%TO.P,L2,2,2*%
%TO.N,/VDD*%
X71400000Y-70275000D03*
%TD*%
D27*
%TO.P,C13,1*%
%TO.N,Net-(U3-EN{slash}UVLO)*%
X55500000Y-64225000D03*
%TO.P,C13,2*%
%TO.N,/Power/AGND*%
X54540000Y-64225000D03*
%TD*%
D28*
%TO.P,C5,1*%
%TO.N,Net-(U3-BP1V5)*%
X53225000Y-79000000D03*
%TO.P,C5,2*%
%TO.N,Net-(U3-DRTN)*%
X54775000Y-79000000D03*
%TD*%
D27*
%TO.P,C36,1*%
%TO.N,/ESP32/XIN32*%
X99380000Y-56800000D03*
%TO.P,C36,2*%
%TO.N,GND*%
X98420000Y-56800000D03*
%TD*%
D29*
%TO.P,C10,1*%
%TO.N,/VIN*%
X68828000Y-63650000D03*
%TO.P,C10,2*%
%TO.N,GND*%
X74428000Y-63650000D03*
%TD*%
D19*
%TO.P,H15,*%
%TO.N,*%
X92250000Y-153000000D03*
%TD*%
D30*
%TO.P,J6,1,Pin_1*%
%TO.N,/5V*%
X121760000Y-69500000D03*
D31*
%TO.P,J6,2,Pin_2*%
%TO.N,GND*%
X119220000Y-69500000D03*
%TO.P,J6,3,Pin_3*%
%TO.N,Net-(J6-Pin_3)*%
X116680000Y-69500000D03*
%TO.P,J6,4,Pin_4*%
%TO.N,Net-(J6-Pin_4)*%
X114140000Y-69500000D03*
%TO.P,J6,5,Pin_5*%
%TO.N,Net-(J6-Pin_5)*%
X111600000Y-69500000D03*
%TO.P,J6,6,Pin_6*%
%TO.N,Net-(J6-Pin_6)*%
X109060000Y-69500000D03*
%TD*%
D32*
%TO.P,U12,1,VDD3_0*%
%TO.N,Net-(U12-VDD3_0)*%
X80894000Y-100500000D03*
%TO.P,U12,2,VDD2_0*%
%TO.N,Net-(U12-VDD2_0)*%
X80894000Y-99998000D03*
%TO.P,U12,3,VDD1_0*%
%TO.N,Net-(U12-VDD1_0)*%
X80894000Y-99496000D03*
%TO.P,U12,4,VSS*%
%TO.N,GND*%
X80894000Y-98994000D03*
%TO.P,U12,5,NRSTI*%
%TO.N,Net-(U12-NRSTI)*%
X80894000Y-98492000D03*
%TO.P,U12,6,CI*%
%TO.N,Net-(U12-CI)*%
X80894000Y-97990000D03*
%TO.P,U12,7,RO*%
%TO.N,Net-(U12-RO)*%
X80894000Y-97488000D03*
%TO.P,U12,8,CLKI*%
%TO.N,Net-(U12-CLKI)*%
X80894000Y-96986000D03*
%TO.P,U12,9,BI*%
%TO.N,Net-(U12-BI)*%
X80894000Y-96484000D03*
%TO.P,U12,10,ROSC_SEL*%
%TO.N,Net-(U12-ROSC_SEL)*%
X80894000Y-95982000D03*
%TO.P,U12,11,LITE_PAD*%
%TO.N,Net-(U12-LITE_PAD)*%
X80894000Y-95480000D03*
%TO.P,U12,12,INV_CLKO*%
%TO.N,Net-(U12-INV_CLKO)*%
X80894000Y-94978000D03*
%TO.P,U12,13,PLL_VSS*%
%TO.N,GND*%
X80894000Y-94476000D03*
%TO.P,U12,14,VDDIO_08_0*%
X80894000Y-93974000D03*
%TO.P,U12,15,VDDIO_12_0*%
%TO.N,/BM1368-1/1V8*%
X80894000Y-93472000D03*
%TO.P,U12,16,VDDIO_12_1*%
X75062000Y-93472000D03*
%TO.P,U12,17,VDDIO_08_1*%
%TO.N,GND*%
X75062000Y-93974000D03*
%TO.P,U12,18,VSS*%
X75062000Y-94476000D03*
%TO.P,U12,19,PIN_MODE*%
%TO.N,unconnected-(U12-PIN_MODE-Pad19)*%
X75062000Y-94978000D03*
%TO.P,U12,20,TEMP_P*%
%TO.N,/BM1368-1/TEMP_P2*%
X75062000Y-95480000D03*
%TO.P,U12,21,TEMP_N*%
%TO.N,/BM1368-1/TEMP_N2*%
X75062000Y-95982000D03*
%TO.P,U12,22,BO*%
%TO.N,/BM1368-1/BO*%
X75062000Y-96484000D03*
%TO.P,U12,23,CLKO*%
%TO.N,Net-(U12-CLKO)*%
X75062000Y-96986000D03*
%TO.P,U12,24,RI*%
%TO.N,/BM1368-1/RI*%
X75062000Y-97488000D03*
%TO.P,U12,25,CO*%
%TO.N,/BM1368-1/CO*%
X75062000Y-97990000D03*
%TO.P,U12,26,NRSTO*%
%TO.N,/BM1368-1/NRSTO*%
X75062000Y-98492000D03*
%TO.P,U12,27,VSS*%
%TO.N,GND*%
X75062000Y-98994000D03*
%TO.P,U12,28,VDD1_1*%
%TO.N,Net-(U12-VDD1_1)*%
X75062000Y-99496000D03*
%TO.P,U12,29,VDD2_1*%
%TO.N,Net-(U12-VDD2_1)*%
X75062000Y-99998000D03*
%TO.P,U12,30,VDD3_1*%
%TO.N,Net-(U12-VDD3_1)*%
X75062000Y-100500000D03*
D33*
%TO.P,U12,31,VDD*%
%TO.N,/BM1368-1/VDD1*%
X77978000Y-99856000D03*
D34*
%TO.P,U12,32,VSS*%
%TO.N,GND*%
X77978000Y-95746000D03*
%TD*%
D35*
%TO.P,R8,1*%
%TO.N,/VIN*%
X55545000Y-61990000D03*
%TO.P,R8,2*%
%TO.N,Net-(U3-EN{slash}UVLO)*%
X55545000Y-63010000D03*
%TD*%
D18*
%TO.P,J9,1,Pin_1*%
%TO.N,GND*%
X84910000Y-72375000D03*
%TO.P,J9,2,Pin_2*%
%TO.N,/VIN*%
X87450000Y-72375000D03*
%TO.P,J9,3,Pin_3*%
%TO.N,/Fan/FAN2_TACH*%
X89990000Y-72375000D03*
%TO.P,J9,4,Pin_4*%
%TO.N,/Fan/FAN2_PWM*%
X92530000Y-72375000D03*
%TD*%
D36*
%TO.P,C40,1*%
%TO.N,/3V3*%
X88900000Y-173180000D03*
%TO.P,C40,2*%
%TO.N,GND*%
X88900000Y-172220000D03*
%TD*%
D19*
%TO.P,H14,*%
%TO.N,*%
X92250000Y-125000000D03*
%TD*%
D12*
%TO.P,TP6,1,1*%
%TO.N,GND*%
X82296000Y-67818000D03*
%TD*%
D19*
%TO.P,H10,*%
%TO.N,*%
X122500000Y-125000000D03*
%TD*%
D37*
%TO.P,D1,1,I/O*%
%TO.N,/VIN*%
X64075000Y-61170000D03*
%TO.P,D1,2,GND*%
%TO.N,GND*%
X65300000Y-61170000D03*
%TD*%
D38*
%TO.P,C27,1*%
%TO.N,/VDD*%
X79500000Y-69850000D03*
%TO.P,C27,2*%
%TO.N,GND*%
X79500000Y-66900000D03*
%TD*%
D39*
%TO.P,C2,1*%
%TO.N,/VIN*%
X61845000Y-68000000D03*
%TO.P,C2,2*%
%TO.N,GND*%
X62805000Y-68000000D03*
%TD*%
D19*
%TO.P,H9,*%
%TO.N,*%
X62000000Y-125000000D03*
%TD*%
D12*
%TO.P,FID1,*%
%TO.N,*%
X132842000Y-54050000D03*
%TD*%
D40*
%TO.P,U9,1,SMDATA*%
%TO.N,/SDA*%
X95900000Y-67675000D03*
%TO.P,U9,2,SMCLK*%
%TO.N,/SCL*%
X95900000Y-67175000D03*
%TO.P,U9,3,VDD*%
%TO.N,/3V3*%
X95900000Y-66675000D03*
%TO.P,U9,4,GND*%
%TO.N,GND*%
X95900000Y-66175000D03*
%TO.P,U9,5,PWM1*%
%TO.N,/Fan/FAN1_PWM*%
X95900000Y-65675000D03*
%TO.P,U9,6,TACH1*%
%TO.N,/Fan/FAN1_TACH*%
X91500000Y-65675000D03*
%TO.P,U9,7,PWM2*%
%TO.N,/Fan/FAN2_PWM*%
X91500000Y-66175000D03*
%TO.P,U9,8,TACH2*%
%TO.N,/Fan/FAN2_TACH*%
X91500000Y-66675000D03*
%TO.P,U9,9,CLK*%
%TO.N,unconnected-(U9-CLK-Pad9)*%
X91500000Y-67175000D03*
%TO.P,U9,10,\u002AALERT*%
%TO.N,unconnected-(U9-\u002AALERT-Pad10)*%
X91500000Y-67675000D03*
%TD*%
D27*
%TO.P,C37,1*%
%TO.N,/ESP32/XOUT32*%
X99380000Y-59600000D03*
%TO.P,C37,2*%
%TO.N,GND*%
X98420000Y-59600000D03*
%TD*%
D22*
%TO.P,R9,1*%
%TO.N,Net-(U3-EN{slash}UVLO)*%
X55555000Y-65500000D03*
%TO.P,R9,2*%
%TO.N,/Power/AGND*%
X54535000Y-65500000D03*
%TD*%
D35*
%TO.P,R13,1*%
%TO.N,/VIN*%
X56725000Y-63890000D03*
%TO.P,R13,2*%
%TO.N,Net-(U3-AVIN)*%
X56725000Y-64910000D03*
%TD*%
D41*
%TO.P,U3,1,PGD*%
%TO.N,/Power/PGOOD*%
X55650000Y-74250000D03*
%TO.P,U3,2,PMB_DATA*%
%TO.N,/Power/PMB_SDA*%
X56150000Y-74250000D03*
%TO.P,U3,3,PMB_CLK*%
%TO.N,/Power/PMB_SCL*%
X56650000Y-74250000D03*
%TO.P,U3,4,BP1V5*%
%TO.N,Net-(U3-BP1V5)*%
X57150000Y-74250000D03*
%TO.P,U3,5,DRTN*%
%TO.N,Net-(U3-DRTN)*%
X57650000Y-74250000D03*
%TO.P,U3,6,SMB_ALRT*%
%TO.N,/Power/PMB_ALRT*%
X58150000Y-74250000D03*
%TO.P,U3,7,BOOT*%
%TO.N,Net-(U3-BOOT)*%
X58650000Y-74250000D03*
%TO.P,U3,8,SW*%
%TO.N,/Power/SW*%
X59150000Y-74250000D03*
%TO.P,U3,9,SW*%
X59650000Y-74250000D03*
%TO.P,U3,10,SW*%
X60150000Y-74250000D03*
%TO.P,U3,11,SW*%
X60650000Y-74250000D03*
%TO.P,U3,12,SW*%
X61150000Y-74250000D03*
D42*
%TO.P,U3,13,PGND*%
%TO.N,GND*%
X61900000Y-73500000D03*
%TO.P,U3,14,PGND*%
X61900000Y-73000000D03*
%TO.P,U3,15,PGND*%
X61900000Y-72500000D03*
%TO.P,U3,16,PGND*%
X61900000Y-72000000D03*
%TO.P,U3,17,PGND*%
X61900000Y-71500000D03*
%TO.P,U3,18,PGND*%
X61900000Y-71000000D03*
%TO.P,U3,19,PGND*%
X61900000Y-70500000D03*
%TO.P,U3,20,PGND*%
X61900000Y-70000000D03*
D41*
%TO.P,U3,21,PVIN*%
%TO.N,/VIN*%
X61150000Y-69250000D03*
%TO.P,U3,22,PVIN*%
X60650000Y-69250000D03*
%TO.P,U3,23,PVIN*%
X60150000Y-69250000D03*
%TO.P,U3,24,PVIN*%
X59650000Y-69250000D03*
%TO.P,U3,25,PVIN*%
X59150000Y-69250000D03*
%TO.P,U3,26,AVIN*%
%TO.N,Net-(U3-AVIN)*%
X58650000Y-69250000D03*
%TO.P,U3,27,EN/UVLO*%
%TO.N,Net-(U3-EN{slash}UVLO)*%
X58150000Y-69250000D03*
%TO.P,U3,28,VDD5*%
%TO.N,Net-(U3-VDD5)*%
X57650000Y-69250000D03*
%TO.P,U3,29,MSEL2*%
%TO.N,Net-(U3-MSEL2)*%
X57150000Y-69250000D03*
%TO.P,U3,30,VSEL*%
%TO.N,Net-(U3-VSEL)*%
X56650000Y-69250000D03*
%TO.P,U3,31,ADRSEL*%
%TO.N,Net-(U3-ADRSEL)*%
X56150000Y-69250000D03*
%TO.P,U3,32,MSEL1*%
%TO.N,Net-(U3-MSEL1)*%
X55650000Y-69250000D03*
D42*
%TO.P,U3,33,VOSNS*%
%TO.N,Net-(U3-VOSNS)*%
X54900000Y-70000000D03*
%TO.P,U3,34,GOSNS*%
%TO.N,Net-(U3-GOSNS)*%
X54900000Y-70500000D03*
%TO.P,U3,35,VSHARE*%
%TO.N,unconnected-(U3-VSHARE-Pad35)*%
X54900000Y-71000000D03*
%TO.P,U3,36,NC*%
%TO.N,unconnected-(U3-NC-Pad36)*%
X54900000Y-71500000D03*
%TO.P,U3,37,AGND*%
%TO.N,/Power/AGND*%
X54900000Y-72000000D03*
%TO.P,U3,38,SYNC*%
%TO.N,unconnected-(U3-SYNC-Pad38)*%
X54900000Y-72500000D03*
%TO.P,U3,39,BCX_CLK*%
%TO.N,unconnected-(U3-BCX_CLK-Pad39)*%
X54900000Y-73000000D03*
%TO.P,U3,40,BCX_DAT*%
%TO.N,unconnected-(U3-BCX_DAT-Pad40)*%
X54900000Y-73500000D03*
D43*
%TO.P,U3,41,PAD*%
%TO.N,GND*%
X57000000Y-73030000D03*
X58400000Y-73030000D03*
X59800000Y-73030000D03*
X56000000Y-71750000D03*
X57000000Y-71750000D03*
X58400000Y-71750000D03*
D44*
X58400000Y-71750000D03*
D43*
X59800000Y-71750000D03*
X60800000Y-71750000D03*
X57000000Y-70470000D03*
X58400000Y-70470000D03*
X59800000Y-70470000D03*
%TD*%
D12*
%TO.P,FID7,*%
%TO.N,*%
X58725000Y-173825000D03*
%TD*%
D39*
%TO.P,C16,1*%
%TO.N,/VIN*%
X61845000Y-66825000D03*
%TO.P,C16,2*%
%TO.N,GND*%
X62805000Y-66825000D03*
%TD*%
D45*
%TO.P,U7,1,SCL*%
%TO.N,/SCL*%
X83500100Y-54899999D03*
%TO.P,U7,2,GND*%
%TO.N,GND*%
X83500100Y-54400000D03*
%TO.P,U7,3,ALERT*%
%TO.N,unconnected-(U7-ALERT-Pad3)*%
X83500100Y-53900001D03*
%TO.P,U7,4,A0*%
%TO.N,/SDA*%
X81899900Y-53900001D03*
%TO.P,U7,5,V+*%
%TO.N,/3V3*%
X81899900Y-54400000D03*
%TO.P,U7,6,SDA*%
%TO.N,/SDA*%
X81899900Y-54899999D03*
%TD*%
D19*
%TO.P,H12,*%
%TO.N,*%
X122500000Y-153000000D03*
%TD*%
D21*
%TO.P,C22,1*%
%TO.N,/Power/SW*%
X58575000Y-77300000D03*
%TO.P,C22,2*%
%TO.N,Net-(C22-Pad2)*%
X58575000Y-79200000D03*
%TD*%
D19*
%TO.P,H8,*%
%TO.N,*%
X122500000Y-97000000D03*
%TD*%
D32*
%TO.P,U18,1,VDD3_0*%
%TO.N,Net-(U18-VDD3_0)*%
X110998000Y-128724000D03*
%TO.P,U18,2,VDD2_0*%
%TO.N,Net-(U18-VDD2_0)*%
X110998000Y-128222000D03*
%TO.P,U18,3,VDD1_0*%
%TO.N,Net-(U18-VDD1_0)*%
X110998000Y-127720000D03*
%TO.P,U18,4,VSS*%
%TO.N,/BM1368-1/VDD1*%
X110998000Y-127218000D03*
%TO.P,U18,5,BO*%
%TO.N,/BM1368-2/BO*%
X110998000Y-126716000D03*
%TO.P,U18,6,CLKO*%
%TO.N,Net-(U18-CLKO)*%
X110998000Y-126214000D03*
%TO.P,U18,7,RI*%
%TO.N,/BM1368-2/RI*%
X110998000Y-125712000D03*
%TO.P,U18,8,CO*%
%TO.N,/BM1368-2/CO*%
X110998000Y-125210000D03*
%TO.P,U18,9,NRSTO*%
%TO.N,/BM1368-2/NRSTO*%
X110998000Y-124708000D03*
%TO.P,U18,10,ROSC_SEL*%
%TO.N,Net-(U18-ROSC_SEL)*%
X110998000Y-124206000D03*
%TO.P,U18,11,LITE_PAD*%
%TO.N,Net-(U18-LITE_PAD)*%
X110998000Y-123704000D03*
%TO.P,U18,12,INV_CLKO*%
%TO.N,Net-(U18-INV_CLKO)*%
X110998000Y-123202000D03*
%TO.P,U18,13,PLL_VSS*%
%TO.N,/BM1368-1/VDD1*%
X110998000Y-122700000D03*
%TO.P,U18,14,VDDIO_08_0*%
%TO.N,/BM1368-2/0V8*%
X110998000Y-122198000D03*
%TO.P,U18,15,VDDIO_12_0*%
%TO.N,/BM1368-2/1V8*%
X110998000Y-121696000D03*
%TO.P,U18,16,VDDIO_12_1*%
X105166000Y-121696000D03*
%TO.P,U18,17,VDDIO_08_1*%
%TO.N,/BM1368-2/0V8*%
X105166000Y-122198000D03*
%TO.P,U18,18,VSS*%
%TO.N,/BM1368-1/VDD1*%
X105166000Y-122700000D03*
%TO.P,U18,19,PIN_MODE*%
X105166000Y-123202000D03*
%TO.P,U18,20,TEMP_P*%
%TO.N,/BM1368-2/TEMP_P4*%
X105166000Y-123704000D03*
%TO.P,U18,21,TEMP_N*%
%TO.N,/BM1368-2/TEMP_N4*%
X105166000Y-124206000D03*
%TO.P,U18,22,NRSTI*%
%TO.N,Net-(U13-NRSTO)*%
X105166000Y-124708000D03*
%TO.P,U18,23,CI*%
%TO.N,Net-(U13-CO)*%
X105166000Y-125210000D03*
%TO.P,U18,24,RO*%
%TO.N,Net-(U13-RI)*%
X105166000Y-125712000D03*
%TO.P,U18,25,CLKI*%
%TO.N,Net-(U13-CLKO)*%
X105166000Y-126214000D03*
%TO.P,U18,26,BI*%
%TO.N,Net-(U13-BO)*%
X105166000Y-126716000D03*
%TO.P,U18,27,VSS*%
%TO.N,/BM1368-1/VDD1*%
X105166000Y-127218000D03*
%TO.P,U18,28,VDD1_1*%
%TO.N,Net-(U13-VDD1_0)*%
X105166000Y-127720000D03*
%TO.P,U18,29,VDD2_1*%
%TO.N,Net-(U13-VDD2_0)*%
X105166000Y-128222000D03*
%TO.P,U18,30,VDD3_1*%
%TO.N,Net-(U13-VDD3_0)*%
X105166000Y-128724000D03*
D33*
%TO.P,U18,31,VDD*%
%TO.N,/BM1368-2/VDD2*%
X108082000Y-128080000D03*
D34*
%TO.P,U18,32,VSS*%
%TO.N,/BM1368-1/VDD1*%
X108082000Y-123970000D03*
%TD*%
D19*
%TO.P,H7,*%
%TO.N,*%
X62000000Y-97000000D03*
%TD*%
D30*
%TO.P,J5,1,Pin_1*%
%TO.N,GND*%
X125800000Y-55200000D03*
D31*
%TO.P,J5,2,Pin_2*%
%TO.N,/3V3*%
X125800000Y-57740000D03*
%TO.P,J5,3,Pin_3*%
%TO.N,/SCL*%
X125800000Y-60280000D03*
%TO.P,J5,4,Pin_4*%
%TO.N,/SDA*%
X125800000Y-62820000D03*
%TD*%
D46*
%TO.P,U6,1,GND*%
%TO.N,GND*%
X104350000Y-47780000D03*
%TO.P,U6,2,3V3*%
%TO.N,/3V3*%
X104350000Y-49050000D03*
%TO.P,U6,3,EN*%
%TO.N,/ESP32/EN*%
X104350000Y-50320000D03*
%TO.P,U6,4,GPIO4/TOUCH4/ADC1_CH3*%
%TO.N,/ESP32/ALERT_TEMP*%
X104350000Y-51590000D03*
%TO.P,U6,5,GPIO5/TOUCH5/ADC1_CH4*%
%TO.N,/ESP32/OVERT_TEMP*%
X104350000Y-52860000D03*
%TO.P,U6,6,GPIO6/TOUCH6/ADC1_CH5*%
%TO.N,Net-(U6-GPIO6{slash}TOUCH6{slash}ADC1_CH5)*%
X104350000Y-54130000D03*
%TO.P,U6,7,GPIO7/TOUCH7/ADC1_CH6*%
%TO.N,Net-(U6-GPIO7{slash}TOUCH7{slash}ADC1_CH6)*%
X104350000Y-55400000D03*
%TO.P,U6,8,GPIO15/U0RTS/ADC2_CH4/XTAL_32K_P*%
%TO.N,/ESP32/XIN32*%
X104350000Y-56670000D03*
%TO.P,U6,9,GPIO16/U0CTS/ADC2_CH5/XTAL_32K_NH5*%
%TO.N,/ESP32/XOUT32*%
X104350000Y-57940000D03*
%TO.P,U6,10,GPIO17/U1TXD/ADC2_CH6*%
%TO.N,/ESP32/ESP32_TX*%
X104350000Y-59210000D03*
%TO.P,U6,11,GPIO18/U1RXD/ADC2_CH7/CLK_OUT3*%
%TO.N,/ESP32/ESP32_RX*%
X104350000Y-60480000D03*
%TO.P,U6,12,GPIO8/TOUCH8/ADC1_CH7/SUBSPICS1*%
%TO.N,Net-(U6-GPIO8{slash}TOUCH8{slash}ADC1_CH7{slash}SUBSPICS1)*%
X104350000Y-61750000D03*
%TO.P,U6,13,GPIO19/U1RTS/ADC2_CH8/CLK_OUT2/USB_D-*%
%TO.N,Net-(U6-GPIO19{slash}U1RTS{slash}ADC2_CH8{slash}CLK_OUT2{slash}USB_D-)*%
X104350000Y-63020000D03*
%TO.P,U6,14,GPIO20/U1CTS/ADC2_CH9/CLK_OUT1/USB_D+*%
%TO.N,Net-(U6-GPIO20{slash}U1CTS{slash}ADC2_CH9{slash}CLK_OUT1{slash}USB_D+)*%
X104350000Y-64290000D03*
D47*
%TO.P,U6,15,GPIO3/TOUCH3/ADC1_CH2\u002A*%
%TO.N,/3V3*%
X106115000Y-65540000D03*
%TO.P,U6,16,\u002AGPIO46*%
%TO.N,unconnected-(U6-\u002AGPIO46-Pad16)*%
X107385000Y-65540000D03*
%TO.P,U6,17,GPIO9/TOUCH9/ADC1_CH8/FSPIHD/SUBSPIHD*%
%TO.N,Net-(U6-GPIO9{slash}TOUCH9{slash}ADC1_CH8{slash}FSPIHD{slash}SUBSPIHD)*%
X108655000Y-65540000D03*
%TO.P,U6,18,GPIO10/TOUCH10/ADC1_CH9/FSPICS0/FSPIIO4/SUBSPICS0*%
%TO.N,unconnected-(U6-GPIO10{slash}TOUCH10{slash}ADC1_CH9{slash}FSPICS0{slash}FSPIIO4{slash}SUBSPICS0-Pad18)*%
X109925000Y-65540000D03*
%TO.P,U6,19,GPIO11/TOUCH11/ADC2_CH0/FSPID/FSPIIO5/SUBSPID*%
%TO.N,/Power/PGOOD*%
X111195000Y-65540000D03*
%TO.P,U6,20,GPIO12/TOUCH12/ADC2_CH1/FSPICLK/FSPIIO6/SUBSPICLK*%
%TO.N,Net-(U6-GPIO12{slash}TOUCH12{slash}ADC2_CH1{slash}FSPICLK{slash}FSPIIO6{slash}SUBSPICLK)*%
X112465000Y-65540000D03*
%TO.P,U6,21,GPIO13/TOUCH13/ADC2_CH2/FSPIQ/FSPIIO7/SUBSPIQ*%
%TO.N,/SMB_ALRT*%
X113735000Y-65540000D03*
%TO.P,U6,22,GPIO14/TOUCH14/ADC2_CH3/FSPIWP/FSPIDQS/SUBSPIWP*%
%TO.N,Net-(U6-GPIO14{slash}TOUCH14{slash}ADC2_CH3{slash}FSPIWP{slash}FSPIDQS{slash}SUBSPIWP)*%
X115005000Y-65540000D03*
%TO.P,U6,23,GPIO21*%
%TO.N,unconnected-(U6-GPIO21-Pad23)*%
X116275000Y-65540000D03*
%TO.P,U6,24,GPIO47/SPICLK_P/SUBSPICLK_P_DIFF*%
%TO.N,/SDA*%
X117545000Y-65540000D03*
%TO.P,U6,25,GPIO48/SPICLK_N/SUBSPICLK_N_DIFF*%
%TO.N,/SCL*%
X118815000Y-65540000D03*
%TO.P,U6,26,\u002AGPIO45*%
%TO.N,unconnected-(U6-\u002AGPIO45-Pad26)*%
X120085000Y-65540000D03*
D46*
%TO.P,U6,27,GPIO0/BOOT\u002A*%
%TO.N,/ESP32/IO0*%
X121850000Y-64290000D03*
%TO.P,U6,28,SPIIO6/GPIO35/FSPID/SUBSPID*%
%TO.N,Net-(U6-SPIIO6{slash}GPIO35{slash}FSPID{slash}SUBSPID)*%
X121850000Y-63020000D03*
%TO.P,U6,29,SPIIO7/GPIO36/FSPICLK/SUBSPICLK*%
%TO.N,Net-(U6-SPIIO7{slash}GPIO36{slash}FSPICLK{slash}SUBSPICLK)*%
X121850000Y-61750000D03*
%TO.P,U6,30,SPIDQS/GPIO37/FSPIQ/SUBSPIQ*%
%TO.N,Net-(U6-SPIDQS{slash}GPIO37{slash}FSPIQ{slash}SUBSPIQ)*%
X121850000Y-60480000D03*
%TO.P,U6,31,GPIO38/FSPIWP/SUBSPIWP*%
%TO.N,Net-(U6-GPIO38{slash}FSPIWP{slash}SUBSPIWP)*%
X121850000Y-59210000D03*
%TO.P,U6,32,MTCK/GPIO39/CLK_OUT3/SUBSPICS1*%
%TO.N,Net-(J6-Pin_3)*%
X121850000Y-57940000D03*
%TO.P,U6,33,MTDO/GPIO40/CLK_OUT2*%
%TO.N,Net-(J6-Pin_4)*%
X121850000Y-56670000D03*
%TO.P,U6,34,MTDI/GPIO41/CLK_OUT1*%
%TO.N,Net-(J6-Pin_5)*%
X121850000Y-55400000D03*
%TO.P,U6,35,MTMS/GPIO42*%
%TO.N,Net-(J6-Pin_6)*%
X121850000Y-54130000D03*
%TO.P,U6,36,U0RXD/GPIO44/CLK_OUT2*%
%TO.N,/ESP32/P_RX*%
X121850000Y-52860000D03*
%TO.P,U6,37,U0TXD/GPIO43/CLK_OUT1*%
%TO.N,/ESP32/P_TX*%
X121850000Y-51590000D03*
%TO.P,U6,38,GPIO2/TOUCH2/ADC1_CH1*%
%TO.N,/ESP32/VDD_SAMPLE*%
X121850000Y-50320000D03*
%TO.P,U6,39,GPIO1/TOUCH1/ADC1_CH0*%
%TO.N,/ESP32/ASIC_RST*%
X121850000Y-49050000D03*
%TO.P,U6,40,GND*%
%TO.N,GND*%
X121850000Y-47780000D03*
D48*
%TO.P,U6,41,GND*%
X110200000Y-54100000D03*
X110200000Y-55500000D03*
X110200000Y-56900000D03*
X111600000Y-54100000D03*
X111600000Y-55500000D03*
X111600000Y-56900000D03*
X113000000Y-54100000D03*
X113000000Y-55500000D03*
X113000000Y-56900000D03*
%TD*%
D49*
%TO.P,C9,1*%
%TO.N,/VIN*%
X66125000Y-58300000D03*
%TO.P,C9,2*%
%TO.N,GND*%
X69075000Y-58300000D03*
%TD*%
D32*
%TO.P,U28,1,VDD3_0*%
%TO.N,Net-(U28-VDD3_0)*%
X110998000Y-100500000D03*
%TO.P,U28,2,VDD2_0*%
%TO.N,Net-(U28-VDD2_0)*%
X110998000Y-99998000D03*
%TO.P,U28,3,VDD1_0*%
%TO.N,Net-(U28-VDD1_0)*%
X110998000Y-99496000D03*
%TO.P,U28,4,VSS*%
%TO.N,GND*%
X110998000Y-98994000D03*
%TO.P,U28,5,NRSTI*%
%TO.N,/NRSTI*%
X110998000Y-98492000D03*
%TO.P,U28,6,CI*%
%TO.N,/CI*%
X110998000Y-97990000D03*
%TO.P,U28,7,RO*%
%TO.N,/RO*%
X110998000Y-97488000D03*
%TO.P,U28,8,CLKI*%
%TO.N,/BM1368-1/CLKI1*%
X110998000Y-96986000D03*
%TO.P,U28,9,BI*%
%TO.N,/BM1368-1/BI1*%
X110998000Y-96484000D03*
%TO.P,U28,10,ROSC_SEL*%
%TO.N,Net-(U28-ROSC_SEL)*%
X110998000Y-95982000D03*
%TO.P,U28,11,LITE_PAD*%
%TO.N,Net-(U28-LITE_PAD)*%
X110998000Y-95480000D03*
%TO.P,U28,12,INV_CLKO*%
%TO.N,Net-(U28-INV_CLKO)*%
X110998000Y-94978000D03*
%TO.P,U28,13,PLL_VSS*%
%TO.N,GND*%
X110998000Y-94476000D03*
%TO.P,U28,14,VDDIO_08_0*%
%TO.N,Net-(U28-VDDIO_08_0)*%
X110998000Y-93974000D03*
%TO.P,U28,15,VDDIO_12_0*%
%TO.N,/BM1368-1/1V8*%
X110998000Y-93472000D03*
%TO.P,U28,16,VDDIO_12_1*%
X105166000Y-93472000D03*
%TO.P,U28,17,VDDIO_08_1*%
%TO.N,GND*%
X105166000Y-93974000D03*
%TO.P,U28,18,VSS*%
X105166000Y-94476000D03*
%TO.P,U28,19,PIN_MODE*%
%TO.N,unconnected-(U28-PIN_MODE-Pad19)*%
X105166000Y-94978000D03*
%TO.P,U28,20,TEMP_P*%
%TO.N,/BM1368-1/TEMP_P1*%
X105166000Y-95480000D03*
%TO.P,U28,21,TEMP_N*%
%TO.N,/BM1368-1/TEMP_N1*%
X105166000Y-95982000D03*
%TO.P,U28,22,BO*%
%TO.N,Net-(U12-BI)*%
X105166000Y-96484000D03*
%TO.P,U28,23,CLKO*%
%TO.N,Net-(U12-CLKI)*%
X105166000Y-96986000D03*
%TO.P,U28,24,RI*%
%TO.N,Net-(U12-RO)*%
X105166000Y-97488000D03*
%TO.P,U28,25,CO*%
%TO.N,Net-(U12-CI)*%
X105166000Y-97990000D03*
%TO.P,U28,26,NRSTO*%
%TO.N,Net-(U12-NRSTI)*%
X105166000Y-98492000D03*
%TO.P,U28,27,VSS*%
%TO.N,GND*%
X105166000Y-98994000D03*
%TO.P,U28,28,VDD1_1*%
%TO.N,Net-(U12-VDD1_0)*%
X105166000Y-99496000D03*
%TO.P,U28,29,VDD2_1*%
%TO.N,Net-(U12-VDD2_0)*%
X105166000Y-99998000D03*
%TO.P,U28,30,VDD3_1*%
%TO.N,Net-(U12-VDD3_0)*%
X105166000Y-100500000D03*
D33*
%TO.P,U28,31,VDD*%
%TO.N,/BM1368-1/VDD1*%
X108082000Y-99856000D03*
D34*
%TO.P,U28,32,VSS*%
%TO.N,GND*%
X108082000Y-95746000D03*
%TD*%
D12*
%TO.P,FID5,*%
%TO.N,*%
X125984000Y-173228000D03*
%TD*%
D32*
%TO.P,U25,1,VDD3_0*%
%TO.N,Net-(U25-VDD3_0)*%
X110998000Y-156454000D03*
%TO.P,U25,2,VDD2_0*%
%TO.N,Net-(U25-VDD2_0)*%
X110998000Y-155952000D03*
%TO.P,U25,3,VDD1_0*%
%TO.N,Net-(U25-VDD1_0)*%
X110998000Y-155450000D03*
%TO.P,U25,4,VSS*%
%TO.N,/BM1368-2/VDD2*%
X110998000Y-154948000D03*
%TO.P,U25,5,NRSTI*%
%TO.N,/BM1368-3/NRSTI3*%
X110998000Y-154446000D03*
%TO.P,U25,6,CI*%
%TO.N,/BM1368-3/CI3*%
X110998000Y-153944000D03*
%TO.P,U25,7,RO*%
%TO.N,/BM1368-3/RO3*%
X110998000Y-153442000D03*
%TO.P,U25,8,CLKI*%
%TO.N,/BM1368-3/CLKI3*%
X110998000Y-152940000D03*
%TO.P,U25,9,BI*%
%TO.N,/BM1368-3/BI3*%
X110998000Y-152438000D03*
%TO.P,U25,10,ROSC_SEL*%
%TO.N,Net-(U25-ROSC_SEL)*%
X110998000Y-151936000D03*
%TO.P,U25,11,LITE_PAD*%
%TO.N,Net-(U25-LITE_PAD)*%
X110998000Y-151434000D03*
%TO.P,U25,12,INV_CLKO*%
%TO.N,Net-(U25-INV_CLKO)*%
X110998000Y-150932000D03*
%TO.P,U25,13,PLL_VSS*%
%TO.N,/BM1368-2/VDD2*%
X110998000Y-150430000D03*
%TO.P,U25,14,VDDIO_08_0*%
%TO.N,/BM1368-3/0V8*%
X110998000Y-149928000D03*
%TO.P,U25,15,VDDIO_12_0*%
%TO.N,/BM1368-3/1V8*%
X110998000Y-149426000D03*
%TO.P,U25,16,VDDIO_12_1*%
X105166000Y-149426000D03*
%TO.P,U25,17,VDDIO_08_1*%
%TO.N,/BM1368-3/0V8*%
X105166000Y-149928000D03*
%TO.P,U25,18,VSS*%
%TO.N,/BM1368-2/VDD2*%
X105166000Y-150430000D03*
%TO.P,U25,19,PIN_MODE*%
%TO.N,unconnected-(U25-PIN_MODE-Pad19)*%
X105166000Y-150932000D03*
%TO.P,U25,20,TEMP_P*%
%TO.N,/BM1368-3/TEMP_P5*%
X105166000Y-151434000D03*
%TO.P,U25,21,TEMP_N*%
%TO.N,/BM1368-3/TEMP_N5*%
X105166000Y-151936000D03*
%TO.P,U25,22,BO*%
%TO.N,Net-(U25-BO)*%
X105166000Y-152438000D03*
%TO.P,U25,23,CLKO*%
%TO.N,Net-(U25-CLKO)*%
X105166000Y-152940000D03*
%TO.P,U25,24,RI*%
%TO.N,Net-(U25-RI)*%
X105166000Y-153442000D03*
%TO.P,U25,25,CO*%
%TO.N,Net-(U25-CO)*%
X105166000Y-153944000D03*
%TO.P,U25,26,NRSTO*%
%TO.N,Net-(U25-NRSTO)*%
X105166000Y-154446000D03*
%TO.P,U25,27,VSS*%
%TO.N,/BM1368-2/VDD2*%
X105166000Y-154948000D03*
%TO.P,U25,28,VDD1_1*%
%TO.N,Net-(U25-VDD1_1)*%
X105166000Y-155450000D03*
%TO.P,U25,29,VDD2_1*%
%TO.N,Net-(U25-VDD2_1)*%
X105166000Y-155952000D03*
%TO.P,U25,30,VDD3_1*%
%TO.N,Net-(U25-VDD3_1)*%
X105166000Y-156454000D03*
D33*
%TO.P,U25,31,VDD*%
%TO.N,/VDD*%
X108082000Y-155810000D03*
D34*
%TO.P,U25,32,VSS*%
%TO.N,/BM1368-2/VDD2*%
X108082000Y-151700000D03*
%TD*%
D50*
%TO.P,C32,1*%
%TO.N,/ESP32/EN*%
X90300000Y-53440000D03*
%TO.P,C32,2*%
%TO.N,GND*%
X90300000Y-54400000D03*
%TD*%
D14*
%TO.P,H5,1*%
%TO.N,N/C*%
X51250000Y-110750000D03*
X51909010Y-109159010D03*
X51909010Y-112340990D03*
X53500000Y-108500000D03*
D15*
X53500000Y-110750000D03*
D14*
X53500000Y-113000000D03*
X55090990Y-109159010D03*
X55090990Y-112340990D03*
X55750000Y-110750000D03*
%TD*%
D32*
%TO.P,U13,1,VDD3_0*%
%TO.N,Net-(U13-VDD3_0)*%
X80894000Y-128724000D03*
%TO.P,U13,2,VDD2_0*%
%TO.N,Net-(U13-VDD2_0)*%
X80894000Y-128222000D03*
%TO.P,U13,3,VDD1_0*%
%TO.N,Net-(U13-VDD1_0)*%
X80894000Y-127720000D03*
%TO.P,U13,4,VSS*%
%TO.N,/BM1368-1/VDD1*%
X80894000Y-127218000D03*
%TO.P,U13,5,BO*%
%TO.N,Net-(U13-BO)*%
X80894000Y-126716000D03*
%TO.P,U13,6,CLKO*%
%TO.N,Net-(U13-CLKO)*%
X80894000Y-126214000D03*
%TO.P,U13,7,RI*%
%TO.N,Net-(U13-RI)*%
X80894000Y-125712000D03*
%TO.P,U13,8,CO*%
%TO.N,Net-(U13-CO)*%
X80894000Y-125210000D03*
%TO.P,U13,9,NRSTO*%
%TO.N,Net-(U13-NRSTO)*%
X80894000Y-124708000D03*
%TO.P,U13,10,ROSC_SEL*%
%TO.N,Net-(U13-ROSC_SEL)*%
X80894000Y-124206000D03*
%TO.P,U13,11,LITE_PAD*%
%TO.N,Net-(U13-LITE_PAD)*%
X80894000Y-123704000D03*
%TO.P,U13,12,INV_CLKO*%
%TO.N,Net-(U13-INV_CLKO)*%
X80894000Y-123202000D03*
%TO.P,U13,13,PLL_VSS*%
%TO.N,/BM1368-1/VDD1*%
X80894000Y-122700000D03*
%TO.P,U13,14,VDDIO_08_0*%
%TO.N,/BM1368-2/0V8*%
X80894000Y-122198000D03*
%TO.P,U13,15,VDDIO_12_0*%
%TO.N,/BM1368-2/1V8*%
X80894000Y-121696000D03*
%TO.P,U13,16,VDDIO_12_1*%
X75062000Y-121696000D03*
%TO.P,U13,17,VDDIO_08_1*%
%TO.N,/BM1368-2/0V8*%
X75062000Y-122198000D03*
%TO.P,U13,18,VSS*%
%TO.N,/BM1368-1/VDD1*%
X75062000Y-122700000D03*
%TO.P,U13,19,PIN_MODE*%
X75062000Y-123202000D03*
%TO.P,U13,20,TEMP_P*%
%TO.N,/BM1368-2/TEMP_P3*%
X75062000Y-123704000D03*
%TO.P,U13,21,TEMP_N*%
%TO.N,/BM1368-2/TEMP_N3*%
X75062000Y-124206000D03*
%TO.P,U13,22,NRSTI*%
%TO.N,/BM1368-2/NRSTI2*%
X75062000Y-124708000D03*
%TO.P,U13,23,CI*%
%TO.N,/BM1368-2/CI2*%
X75062000Y-125210000D03*
%TO.P,U13,24,RO*%
%TO.N,/BM1368-2/RO2*%
X75062000Y-125712000D03*
%TO.P,U13,25,CLKI*%
%TO.N,/BM1368-2/CLKI2*%
X75062000Y-126214000D03*
%TO.P,U13,26,BI*%
%TO.N,/BM1368-2/BI2*%
X75062000Y-126716000D03*
%TO.P,U13,27,VSS*%
%TO.N,/BM1368-1/VDD1*%
X75062000Y-127218000D03*
%TO.P,U13,28,VDD1_1*%
%TO.N,Net-(U13-VDD1_1)*%
X75062000Y-127720000D03*
%TO.P,U13,29,VDD2_1*%
%TO.N,Net-(U13-VDD2_1)*%
X75062000Y-128222000D03*
%TO.P,U13,30,VDD3_1*%
%TO.N,Net-(U13-VDD3_1)*%
X75062000Y-128724000D03*
D33*
%TO.P,U13,31,VDD*%
%TO.N,/BM1368-2/VDD2*%
X77978000Y-128080000D03*
D34*
%TO.P,U13,32,VSS*%
%TO.N,/BM1368-1/VDD1*%
X77978000Y-123970000D03*
%TD*%
D51*
%TO.P,J7,A1,GND*%
%TO.N,GND*%
X99870000Y-53420000D03*
%TO.P,J7,A4,VBUS*%
%TO.N,Net-(J7-VBUS-PadA4)*%
X99070000Y-53420000D03*
D52*
%TO.P,J7,A5,CC1*%
%TO.N,Net-(J7-CC1)*%
X97920000Y-53375000D03*
%TO.P,J7,A6,D+*%
%TO.N,Net-(U6-GPIO20{slash}U1CTS{slash}ADC2_CH9{slash}CLK_OUT1{slash}USB_D+)*%
X96920000Y-53375000D03*
%TO.P,J7,A7,D-*%
%TO.N,Net-(U6-GPIO19{slash}U1RTS{slash}ADC2_CH8{slash}CLK_OUT2{slash}USB_D-)*%
X96420000Y-53375000D03*
%TO.P,J7,A8,SBU1*%
%TO.N,unconnected-(J7-SBU1-PadA8)*%
X95420000Y-53375000D03*
D51*
%TO.P,J7,A9,VBUS*%
%TO.N,Net-(J7-VBUS-PadA4)*%
X94270000Y-53420000D03*
%TO.P,J7,A12,GND*%
%TO.N,GND*%
X93470000Y-53420000D03*
%TO.P,J7,B1,GND*%
X93470000Y-53420000D03*
%TO.P,J7,B4,VBUS*%
%TO.N,Net-(J7-VBUS-PadA4)*%
X94270000Y-53420000D03*
D52*
%TO.P,J7,B5,CC2*%
%TO.N,Net-(J7-CC2)*%
X94920000Y-53375000D03*
%TO.P,J7,B6,D+*%
%TO.N,Net-(U6-GPIO20{slash}U1CTS{slash}ADC2_CH9{slash}CLK_OUT1{slash}USB_D+)*%
X95920000Y-53375000D03*
%TO.P,J7,B7,D-*%
%TO.N,Net-(U6-GPIO19{slash}U1RTS{slash}ADC2_CH8{slash}CLK_OUT2{slash}USB_D-)*%
X97420000Y-53375000D03*
%TO.P,J7,B8,SBU2*%
%TO.N,unconnected-(J7-SBU2-PadB8)*%
X98420000Y-53375000D03*
D51*
%TO.P,J7,B9,VBUS*%
%TO.N,Net-(J7-VBUS-PadA4)*%
X99070000Y-53420000D03*
%TO.P,J7,B12,GND*%
%TO.N,GND*%
X99870000Y-53420000D03*
D53*
%TO.P,J7,S1,SHIELD*%
X100990000Y-52800000D03*
D54*
X100990000Y-48620000D03*
D53*
X92350000Y-52800000D03*
D54*
X92350000Y-48620000D03*
%TD*%
D55*
%TO.P,R17,1*%
%TO.N,/Power/PGOOD*%
X103090000Y-67225000D03*
%TO.P,R17,2*%
%TO.N,/3V3*%
X104110000Y-67225000D03*
%TD*%
D56*
%TO.P,R14,1*%
%TO.N,Net-(C22-Pad2)*%
X60387500Y-78750000D03*
%TO.P,R14,2*%
%TO.N,GND*%
X63312500Y-78750000D03*
%TD*%
D23*
%TO.P,SW1,*%
%TO.N,*%
X89200000Y-46667500D03*
X85500000Y-46667500D03*
D24*
%TO.P,SW1,1*%
%TO.N,GND*%
X88580000Y-48867500D03*
X86120000Y-48867500D03*
D25*
%TO.P,SW1,2*%
%TO.N,/ESP32/EN*%
X87350000Y-48767500D03*
%TD*%
D14*
%TO.P,H2,1,1*%
%TO.N,GND*%
X128750000Y-49500000D03*
X129409010Y-47909010D03*
X129409010Y-51090990D03*
X131000000Y-47250000D03*
D15*
X131000000Y-49500000D03*
D14*
X131000000Y-51750000D03*
X132590990Y-47909010D03*
X132590990Y-51090990D03*
X133250000Y-49500000D03*
%TD*%
%TO.P,H3,1*%
%TO.N,N/C*%
X51250000Y-172000000D03*
X51909010Y-170409010D03*
X51909010Y-173590990D03*
X53500000Y-169750000D03*
D15*
X53500000Y-172000000D03*
D14*
X53500000Y-174250000D03*
X55090990Y-170409010D03*
X55090990Y-173590990D03*
X55750000Y-172000000D03*
%TD*%
D50*
%TO.P,C24,1*%
%TO.N,Net-(U3-VOSNS)*%
X53025000Y-69795000D03*
%TO.P,C24,2*%
%TO.N,Net-(U3-GOSNS)*%
X53025000Y-70755000D03*
%TD*%
D19*
%TO.P,H11,*%
%TO.N,*%
X62000000Y-153000000D03*
%TD*%
D50*
%TO.P,C38,1*%
%TO.N,/3V3*%
X95600000Y-69120000D03*
%TO.P,C38,2*%
%TO.N,GND*%
X95600000Y-70080000D03*
%TD*%
D14*
%TO.P,H6,1*%
%TO.N,N/C*%
X128750000Y-110750000D03*
X129409010Y-109159010D03*
X129409010Y-112340990D03*
X131000000Y-108500000D03*
D15*
X131000000Y-110750000D03*
D14*
X131000000Y-113000000D03*
X132590990Y-109159010D03*
X132590990Y-112340990D03*
X133250000Y-110750000D03*
%TD*%
D57*
%TO.P,C14,1*%
%TO.N,/VIN*%
X62125000Y-65275000D03*
%TO.P,C14,2*%
%TO.N,GND*%
X64025000Y-65275000D03*
%TD*%
D32*
%TO.P,U27,1,VDD3_0*%
%TO.N,Net-(U25-VDD3_1)*%
X80894000Y-156454000D03*
%TO.P,U27,2,VDD2_0*%
%TO.N,Net-(U25-VDD2_1)*%
X80894000Y-155952000D03*
%TO.P,U27,3,VDD1_0*%
%TO.N,Net-(U25-VDD1_1)*%
X80894000Y-155450000D03*
%TO.P,U27,4,VSS*%
%TO.N,/BM1368-2/VDD2*%
X80894000Y-154948000D03*
%TO.P,U27,5,NRSTI*%
%TO.N,Net-(U25-NRSTO)*%
X80894000Y-154446000D03*
%TO.P,U27,6,CI*%
%TO.N,Net-(U25-CO)*%
X80894000Y-153944000D03*
%TO.P,U27,7,RO*%
%TO.N,Net-(U25-RI)*%
X80894000Y-153442000D03*
%TO.P,U27,8,CLKI*%
%TO.N,Net-(U25-CLKO)*%
X80894000Y-152940000D03*
%TO.P,U27,9,BI*%
%TO.N,Net-(U25-BO)*%
X80894000Y-152438000D03*
%TO.P,U27,10,ROSC_SEL*%
%TO.N,Net-(U27-ROSC_SEL)*%
X80894000Y-151936000D03*
%TO.P,U27,11,LITE_PAD*%
%TO.N,Net-(U27-LITE_PAD)*%
X80894000Y-151434000D03*
%TO.P,U27,12,INV_CLKO*%
%TO.N,Net-(U27-INV_CLKO)*%
X80894000Y-150932000D03*
%TO.P,U27,13,PLL_VSS*%
%TO.N,/BM1368-2/VDD2*%
X80894000Y-150430000D03*
%TO.P,U27,14,VDDIO_08_0*%
%TO.N,/BM1368-3/0V8*%
X80894000Y-149928000D03*
%TO.P,U27,15,VDDIO_12_0*%
%TO.N,/BM1368-3/1V8*%
X80894000Y-149426000D03*
%TO.P,U27,16,VDDIO_12_1*%
X75062000Y-149426000D03*
%TO.P,U27,17,VDDIO_08_1*%
%TO.N,/BM1368-3/0V8*%
X75062000Y-149928000D03*
%TO.P,U27,18,VSS*%
%TO.N,/BM1368-2/VDD2*%
X75062000Y-150430000D03*
%TO.P,U27,19,PIN_MODE*%
%TO.N,unconnected-(U27-PIN_MODE-Pad19)*%
X75062000Y-150932000D03*
%TO.P,U27,20,TEMP_P*%
%TO.N,/BM1368-3/TEMP_P6*%
X75062000Y-151434000D03*
%TO.P,U27,21,TEMP_N*%
%TO.N,/BM1368-3/TEMP_N6*%
X75062000Y-151936000D03*
%TO.P,U27,22,BO*%
%TO.N,/BM1368-3/CO3*%
X75062000Y-152438000D03*
%TO.P,U27,23,CLKO*%
%TO.N,/BM1368-3/CLKO3*%
X75062000Y-152940000D03*
%TO.P,U27,24,RI*%
%TO.N,/BM1368-3/RI3*%
X75062000Y-153442000D03*
%TO.P,U27,25,CO*%
%TO.N,/BM1368-3/BO3*%
X75062000Y-153944000D03*
%TO.P,U27,26,NRSTO*%
%TO.N,/BM1368-3/NRSTO3*%
X75062000Y-154446000D03*
%TO.P,U27,27,VSS*%
%TO.N,/BM1368-2/VDD2*%
X75062000Y-154948000D03*
%TO.P,U27,28,VDD1_1*%
%TO.N,Net-(U27-VDD1_1)*%
X75062000Y-155450000D03*
%TO.P,U27,29,VDD2_1*%
%TO.N,Net-(U27-VDD2_1)*%
X75062000Y-155952000D03*
%TO.P,U27,30,VDD3_1*%
%TO.N,Net-(U27-VDD3_1)*%
X75062000Y-156454000D03*
D33*
%TO.P,U27,31,VDD*%
%TO.N,/VDD*%
X77978000Y-155810000D03*
D34*
%TO.P,U27,32,VSS*%
%TO.N,/BM1368-2/VDD2*%
X77978000Y-151700000D03*
%TD*%
D45*
%TO.P,U8,1,SCL*%
%TO.N,/SCL*%
X92400900Y-173699999D03*
%TO.P,U8,2,GND*%
%TO.N,GND*%
X92400900Y-173200000D03*
%TO.P,U8,3,ALERT*%
%TO.N,unconnected-(U8-ALERT-Pad3)*%
X92400900Y-172700001D03*
%TO.P,U8,4,A0*%
%TO.N,/SCL*%
X90800700Y-172700001D03*
%TO.P,U8,5,V+*%
%TO.N,/3V3*%
X90800700Y-173200000D03*
%TO.P,U8,6,SDA*%
%TO.N,/SDA*%
X90800700Y-173699999D03*
%TD*%
D12*
%TO.P,TP32,1,1*%
%TO.N,Net-(J7-VBUS-PadA4)*%
X93300000Y-56750000D03*
%TD*%
D17*
%TO.P,J2,1*%
%TO.N,GND*%
X72644000Y-54864000D03*
X72644000Y-49784000D03*
%TD*%
D22*
%TO.P,R24,1*%
%TO.N,/Fan/FAN1_TACH*%
X88535000Y-66125000D03*
%TO.P,R24,2*%
%TO.N,/3V3*%
X87515000Y-66125000D03*
%TD*%
D30*
%TO.P,J3,1,Pin_1*%
%TO.N,unconnected-(J3-Pin_1-Pad1)*%
X54450000Y-98970000D03*
D31*
%TO.P,J3,2,Pin_2*%
%TO.N,unconnected-(J3-Pin_2-Pad2)*%
X56990000Y-98970000D03*
%TO.P,J3,3,Pin_3*%
%TO.N,unconnected-(J3-Pin_3-Pad3)*%
X54450000Y-96430000D03*
%TO.P,J3,4,Pin_4*%
%TO.N,unconnected-(J3-Pin_4-Pad4)*%
X56990000Y-96430000D03*
%TO.P,J3,5,Pin_5*%
%TO.N,unconnected-(J3-Pin_5-Pad5)*%
X54450000Y-93890000D03*
%TO.P,J3,6,Pin_6*%
%TO.N,GND*%
X56990000Y-93890000D03*
%TO.P,J3,7,Pin_7*%
%TO.N,unconnected-(J3-Pin_7-Pad7)*%
X54450000Y-91350000D03*
%TO.P,J3,8,Pin_8*%
%TO.N,/Power/PMB_ALRT*%
X56990000Y-91350000D03*
%TO.P,J3,9,Pin_9*%
%TO.N,/Power/PMB_SCL*%
X54450000Y-88810000D03*
%TO.P,J3,10,Pin_10*%
%TO.N,/Power/PMB_SDA*%
X56990000Y-88810000D03*
%TD*%
D58*
%TO.N,GND*%
X82350000Y-94425000D03*
D59*
X106200000Y-81550000D03*
D60*
X60960000Y-146950000D03*
D59*
X103500000Y-77100000D03*
D58*
X65825000Y-83275000D03*
D59*
X74422000Y-57404000D03*
D60*
X88565000Y-170715000D03*
D59*
X66800000Y-65150000D03*
X108750000Y-56900000D03*
X99850000Y-55000000D03*
X66800000Y-67625000D03*
D58*
X63200000Y-73600000D03*
D59*
X78000000Y-88180000D03*
X108750000Y-89250000D03*
D58*
X63200000Y-71200000D03*
D59*
X109500000Y-88250000D03*
X114500000Y-54100000D03*
X109500000Y-90250000D03*
D58*
X73200000Y-91875000D03*
X64200000Y-72800000D03*
D59*
X128900000Y-68800000D03*
X124800000Y-73450000D03*
X98025000Y-107000000D03*
D58*
X64200000Y-71800000D03*
D59*
X73152000Y-57404000D03*
X78000000Y-90250000D03*
D58*
X74025000Y-94527200D03*
X64125000Y-104050000D03*
X64200000Y-69800000D03*
D59*
X108000000Y-88250000D03*
D58*
X95600000Y-71250000D03*
X63900000Y-67425000D03*
D59*
X120000000Y-47900000D03*
X106500000Y-88250000D03*
X78740000Y-64516000D03*
D58*
X103350000Y-91900000D03*
X84675000Y-100025000D03*
D59*
X100800000Y-73050000D03*
X79500000Y-90250000D03*
D58*
X77600000Y-52550000D03*
X83600000Y-49400000D03*
D59*
X117072050Y-78910200D03*
X106500000Y-90250000D03*
D58*
X96400000Y-85800000D03*
D59*
X99625000Y-108500000D03*
X89750000Y-104650000D03*
X126200000Y-82200000D03*
X76500000Y-92250000D03*
X78750000Y-89250000D03*
X72898000Y-67564000D03*
D58*
X69700000Y-78875000D03*
D59*
X107250000Y-89250000D03*
X77250000Y-91250000D03*
X73406000Y-59200000D03*
D58*
X63200000Y-70000000D03*
D59*
X98025000Y-108500000D03*
D58*
X103969851Y-94471388D03*
X117575000Y-98975000D03*
X124425000Y-102500000D03*
D59*
X106200000Y-80100000D03*
X114850000Y-80450000D03*
X111200000Y-50900000D03*
D58*
X116000000Y-99020000D03*
X101175000Y-89850000D03*
D59*
X107250000Y-91250000D03*
X78750000Y-91250000D03*
X106500000Y-92250000D03*
X71882000Y-57404000D03*
D58*
X72000000Y-99550000D03*
D59*
X108000000Y-92250000D03*
X78000000Y-92250000D03*
X78950000Y-65600000D03*
X71375000Y-67600000D03*
X69075000Y-67625000D03*
D58*
X65800000Y-82325000D03*
D59*
X74422000Y-59182000D03*
X77250000Y-89250000D03*
D58*
X69700000Y-80000000D03*
D59*
X66825000Y-66400000D03*
X99625000Y-107000000D03*
D58*
X112498672Y-94158672D03*
D59*
X87437500Y-86275000D03*
D58*
X65825000Y-84225000D03*
D59*
X71374000Y-59182000D03*
D58*
X63200000Y-72400000D03*
X64200000Y-70800000D03*
D59*
X72390000Y-59182000D03*
X76500000Y-90250000D03*
X84625000Y-111025000D03*
X93250000Y-55000000D03*
X79550000Y-88220000D03*
D58*
X82725000Y-91775000D03*
D59*
X100775000Y-70975000D03*
D58*
X94225000Y-66175000D03*
D60*
X60940000Y-136530000D03*
D59*
X76530000Y-88210000D03*
D58*
X131400000Y-59300000D03*
X85100000Y-54050000D03*
D59*
X108000000Y-90250000D03*
D58*
X120000000Y-106700000D03*
D59*
X70612000Y-57404000D03*
D58*
X65850000Y-78850000D03*
X87750000Y-90650000D03*
D59*
X98400000Y-58100000D03*
D58*
X101725000Y-100000000D03*
D59*
X124600000Y-87200000D03*
D58*
X64200000Y-73800000D03*
D59*
X108750000Y-91250000D03*
X68072000Y-60198000D03*
X109500000Y-92250000D03*
D58*
X63425000Y-109800000D03*
D59*
X86125000Y-111025000D03*
D58*
X112550000Y-91975000D03*
D59*
X79500000Y-92250000D03*
D58*
%TO.N,/VDD*%
X75975000Y-82300000D03*
D59*
X108000000Y-157750000D03*
X77825000Y-84200000D03*
X78750000Y-158750000D03*
X108750000Y-158750000D03*
X105750000Y-158750000D03*
X76454000Y-72390000D03*
X109500000Y-159750000D03*
X80025000Y-84175000D03*
X81475000Y-78325000D03*
X108000000Y-159750000D03*
X79225000Y-79175000D03*
X76500000Y-159750000D03*
X81475000Y-76050000D03*
X107250000Y-160750000D03*
X78925000Y-84175000D03*
X78750000Y-160750000D03*
X81975000Y-81400000D03*
D58*
X124780000Y-140100000D03*
D59*
X81475000Y-73725000D03*
X78000000Y-159750000D03*
D58*
X124080000Y-131600000D03*
D59*
X109500000Y-157750000D03*
D58*
X124130000Y-146370000D03*
D59*
X106500000Y-159750000D03*
X76500000Y-157750000D03*
X106500000Y-157750000D03*
X110250000Y-158750000D03*
X108750000Y-160750000D03*
X77250000Y-160750000D03*
X79250000Y-75000000D03*
X79150000Y-81725000D03*
X79500000Y-159750000D03*
D58*
X74875000Y-78875000D03*
D59*
X75750000Y-158750000D03*
X79500000Y-157750000D03*
X77000000Y-78350000D03*
D58*
X74900000Y-80000000D03*
X75975000Y-84175000D03*
D59*
X80850000Y-83375000D03*
X77550000Y-71150000D03*
X78000000Y-157750000D03*
X75050000Y-72050000D03*
X77400000Y-73350000D03*
X77250000Y-158750000D03*
X107250000Y-158750000D03*
X81625000Y-82525000D03*
X79000000Y-71150000D03*
D58*
X94725000Y-80150000D03*
D59*
X75200000Y-73950000D03*
X77000000Y-76150000D03*
D58*
X75975000Y-83225000D03*
D59*
X73850000Y-72100000D03*
X80250000Y-158750000D03*
D58*
%TO.N,/ESP32/EN*%
X102650000Y-49550000D03*
X124275000Y-50938100D03*
X87300000Y-52450000D03*
%TO.N,/5V*%
X96350000Y-119800000D03*
X96900000Y-139175000D03*
X98150000Y-85225000D03*
X98725000Y-116325000D03*
X96850000Y-141925000D03*
X98425000Y-111100000D03*
X98900000Y-88895000D03*
D59*
X111050000Y-82800000D03*
X111050000Y-81550000D03*
X112400000Y-81550000D03*
D58*
X95600000Y-148800000D03*
X98587500Y-90900000D03*
X98775000Y-114348100D03*
X92175000Y-61850000D03*
X96900000Y-144325000D03*
%TO.N,/3V3*%
X80050000Y-53250000D03*
D59*
X106200000Y-49100000D03*
X126300000Y-69200000D03*
D58*
X130300000Y-55700000D03*
D60*
X59670000Y-139220000D03*
D58*
X87550000Y-66925000D03*
D60*
X55770000Y-149400000D03*
D59*
X125200000Y-84600000D03*
D60*
X59430000Y-137270000D03*
D58*
X99550000Y-65425000D03*
D60*
X53120000Y-141130000D03*
D59*
X121322050Y-77710200D03*
D58*
X106100000Y-67100000D03*
X87775000Y-53350000D03*
X94200000Y-69125000D03*
D59*
X100975000Y-79025000D03*
D60*
%TO.N,/SCL*%
X65770000Y-169560000D03*
D58*
X96700000Y-173200000D03*
D60*
X54230000Y-134680000D03*
D58*
X94700000Y-172700000D03*
X62725000Y-84650000D03*
X89900000Y-172400000D03*
X118800000Y-62900000D03*
X98126900Y-63401537D03*
X86250000Y-53525000D03*
D60*
X98340000Y-173230000D03*
X55470000Y-139510000D03*
D58*
%TO.N,Net-(U3-BP1V5)*%
X53250000Y-61450000D03*
X53225000Y-77375000D03*
%TO.N,Net-(U3-AVIN)*%
X56725000Y-66050000D03*
%TO.N,Net-(U3-VDD5)*%
X57350000Y-67675000D03*
%TO.N,Net-(U3-VOSNS)*%
X53900000Y-69725000D03*
X72500000Y-73250000D03*
%TO.N,/ESP32/P_TX*%
X127350000Y-52450000D03*
%TO.N,/ESP32/P_RX*%
X127300000Y-53600000D03*
%TO.N,/ESP32/IO0*%
X83550000Y-51650000D03*
X124250000Y-47200000D03*
X124100000Y-64900000D03*
X131400000Y-64900000D03*
%TO.N,/Power/PGOOD*%
X60325000Y-83875000D03*
X107550000Y-67250000D03*
X98325000Y-69400000D03*
X101450000Y-66275000D03*
X54300000Y-75025000D03*
%TO.N,Net-(U3-GOSNS)*%
X53875000Y-70825000D03*
X71425000Y-73250000D03*
%TO.N,/SDA*%
X63900000Y-84600000D03*
D60*
X53750000Y-140560000D03*
X53970000Y-136760000D03*
D58*
X98775000Y-64375000D03*
X80300000Y-54897600D03*
X117600000Y-63900000D03*
D60*
X69630000Y-174100000D03*
D58*
%TO.N,Net-(U12-VDD3_0)*%
X101700000Y-103275000D03*
X84625000Y-103175000D03*
%TO.N,Net-(U13-INV_CLKO)*%
X85475000Y-119725000D03*
%TO.N,Net-(U13-CLKO)*%
X85365000Y-126220000D03*
X100827160Y-126423085D03*
%TO.N,Net-(U12-VDD2_0)*%
X101700000Y-102200000D03*
X84650000Y-102150000D03*
%TO.N,/NRSTI*%
X116046777Y-98318355D03*
%TO.N,/RO*%
X115975000Y-95675000D03*
D60*
%TO.N,/CI*%
X116000000Y-96510000D03*
X118160000Y-92080000D03*
X118000000Y-95750000D03*
D58*
%TO.N,Net-(U12-VDD1_0)*%
X84676432Y-101098465D03*
X101725000Y-101100000D03*
%TO.N,Net-(U12-VDD1_1)*%
X71975000Y-100530000D03*
%TO.N,Net-(U12-VDD2_1)*%
X71975000Y-101600000D03*
%TO.N,Net-(U12-VDD3_1)*%
X71950000Y-102590000D03*
%TO.N,Net-(U18-VDD1_0)*%
X114600000Y-128300000D03*
%TO.N,Net-(U18-VDD2_0)*%
X114600000Y-129400000D03*
%TO.N,Net-(U18-VDD3_0)*%
X114600000Y-130500000D03*
D59*
%TO.N,/VIN*%
X60725000Y-61300000D03*
X59475000Y-67350000D03*
X102800000Y-68675000D03*
X60725000Y-67300000D03*
X58400000Y-59300000D03*
X58400000Y-65300000D03*
X58400000Y-63300000D03*
X103900000Y-68675000D03*
X105000000Y-68675000D03*
X60725000Y-59300000D03*
X60725000Y-65300000D03*
X58400000Y-61300000D03*
X60725000Y-63300000D03*
D58*
%TO.N,Net-(U3-VSEL)*%
X53875000Y-67225000D03*
X54075000Y-59575000D03*
%TO.N,Net-(J6-Pin_4)*%
X113500000Y-62350000D03*
%TO.N,Net-(J6-Pin_6)*%
X111050000Y-62047600D03*
%TO.N,Net-(J6-Pin_3)*%
X114550000Y-63300000D03*
%TO.N,Net-(J6-Pin_5)*%
X112350000Y-62047600D03*
%TO.N,Net-(U25-VDD1_1)*%
X100700000Y-157500000D03*
X84200000Y-158300000D03*
%TO.N,Net-(U25-VDD2_1)*%
X83500000Y-159200000D03*
X101700000Y-158800000D03*
%TO.N,Net-(U25-VDD3_1)*%
X82300000Y-159200000D03*
X102600000Y-159400000D03*
%TO.N,Net-(U6-GPIO6{slash}TOUCH6{slash}ADC1_CH5)*%
X102700000Y-53450000D03*
%TO.N,/ESP32/ASIC_RST*%
X109900000Y-61450000D03*
%TO.N,/ESP32/ESP32_TX*%
X107100000Y-60400000D03*
%TO.N,/ESP32/ESP32_RX*%
X106000000Y-60000000D03*
%TO.N,Net-(U6-GPIO7{slash}TOUCH7{slash}ADC1_CH6)*%
X102650000Y-54850000D03*
%TO.N,Net-(U6-GPIO8{slash}TOUCH8{slash}ADC1_CH7{slash}SUBSPICS1)*%
X110100000Y-58100000D03*
%TO.N,Net-(J7-CC1)*%
X97920000Y-51460000D03*
%TO.N,Net-(J7-CC2)*%
X94860000Y-51500000D03*
%TO.N,/Power/PMB_ALRT*%
X57245199Y-76145199D03*
X57975000Y-83125000D03*
%TO.N,Net-(U6-GPIO9{slash}TOUCH9{slash}ADC1_CH8{slash}FSPIHD{slash}SUBSPIHD)*%
X111400000Y-58147600D03*
%TO.N,Net-(U18-CLKO)*%
X115790000Y-126220000D03*
%TO.N,Net-(U12-INV_CLKO)*%
X84625000Y-92875000D03*
%TO.N,Net-(U12-CLKO)*%
X71950000Y-95550000D03*
%TO.N,Net-(U18-INV_CLKO)*%
X116600000Y-117600000D03*
%TO.N,Net-(U25-INV_CLKO)*%
X116100000Y-146600000D03*
%TO.N,Net-(U6-GPIO12{slash}TOUCH12{slash}ADC2_CH1{slash}FSPICLK{slash}FSPIIO6{slash}SUBSPICLK)*%
X110250000Y-63950000D03*
%TO.N,Net-(U6-GPIO14{slash}TOUCH14{slash}ADC2_CH3{slash}FSPIWP{slash}FSPIDQS{slash}SUBSPIWP)*%
X109600000Y-62500000D03*
%TO.N,Net-(U6-SPIIO6{slash}GPIO35{slash}FSPID{slash}SUBSPID)*%
X123500000Y-62448100D03*
%TO.N,Net-(U6-SPIIO7{slash}GPIO36{slash}FSPICLK{slash}SUBSPICLK)*%
X123500000Y-61300000D03*
%TO.N,Net-(U6-SPIDQS{slash}GPIO37{slash}FSPIQ{slash}SUBSPIQ)*%
X123500000Y-60000000D03*
%TO.N,Net-(U6-GPIO38{slash}FSPIWP{slash}SUBSPIWP)*%
X123500000Y-58700000D03*
D59*
%TO.N,Net-(J7-VBUS-PadA4)*%
X98450000Y-55000000D03*
X95300000Y-55000000D03*
D58*
%TO.N,Net-(U13-VDD3_1)*%
X71100000Y-129700000D03*
%TO.N,Net-(U13-VDD2_1)*%
X71100000Y-128600000D03*
%TO.N,Net-(U13-VDD1_1)*%
X71090000Y-127590000D03*
%TO.N,Net-(U3-MSEL1)*%
X53850000Y-68675000D03*
%TO.N,/ESP32/VDD_SAMPLE*%
X123800000Y-49900000D03*
%TO.N,/Power/SW*%
X65025000Y-75575000D03*
X65075000Y-77500000D03*
X61675000Y-76675000D03*
X65050000Y-76550000D03*
X59650000Y-75775000D03*
X61025000Y-75750000D03*
X60300000Y-76675000D03*
%TO.N,Net-(U3-MSEL2)*%
X55275000Y-59575000D03*
X54750000Y-66475000D03*
D59*
%TO.N,/Power/AGND*%
X53700000Y-72000000D03*
D58*
X53175000Y-58075000D03*
X54550000Y-63250000D03*
%TO.N,/Power/PMB_SCL*%
X54250718Y-76926555D03*
X55175000Y-85675000D03*
%TO.N,/Power/PMB_SDA*%
X54225000Y-75975000D03*
X56325000Y-85675000D03*
%TO.N,/SMB_ALRT*%
X108700000Y-63200000D03*
X97550000Y-72350000D03*
X63600000Y-91175000D03*
%TO.N,Net-(U28-VDD1_0)*%
X114925000Y-99875000D03*
%TO.N,Net-(U28-VDD2_0)*%
X113800000Y-100875000D03*
%TO.N,Net-(U28-VDD3_0)*%
X113800000Y-102600000D03*
D59*
%TO.N,/BM1368-1/VDD1*%
X83075000Y-108175000D03*
D58*
X101430000Y-127470000D03*
X84700000Y-118825000D03*
X102900000Y-111700000D03*
X125400000Y-131600000D03*
X71100000Y-126350000D03*
X84220000Y-127510000D03*
X57300000Y-112025000D03*
X69825000Y-111950000D03*
D59*
X80825000Y-117895000D03*
X81525000Y-108175000D03*
D58*
X100700000Y-119900000D03*
D59*
X100050000Y-136500000D03*
X83075000Y-106700000D03*
D58*
X73150000Y-103675000D03*
D59*
X74650000Y-117400000D03*
X86100000Y-138975000D03*
D58*
X71550000Y-115775000D03*
X113225000Y-104050000D03*
D59*
X100050000Y-135000000D03*
X84725000Y-138950000D03*
D58*
X115400000Y-119700000D03*
X102900000Y-103950000D03*
D59*
X103125000Y-106750000D03*
X98450000Y-136500000D03*
D58*
X115900000Y-128300000D03*
D59*
X98450000Y-135000000D03*
D58*
X87900000Y-114100000D03*
X71100000Y-120050000D03*
X101350000Y-117075000D03*
D59*
X103125000Y-108425000D03*
X106425000Y-118500000D03*
X81525000Y-106700000D03*
D58*
X83430000Y-104050000D03*
X124780000Y-137600000D03*
%TO.N,/BM1368-2/0V8*%
X72300000Y-120000000D03*
X114200000Y-119700000D03*
X83575000Y-120350000D03*
X101900000Y-119900000D03*
%TO.N,/BM1368-2/VDD2*%
X115200000Y-147700000D03*
X115920000Y-156140000D03*
D59*
X81750000Y-134700000D03*
D58*
X102900000Y-139775000D03*
X73175000Y-132050000D03*
D59*
X99600000Y-167700000D03*
D58*
X100600000Y-147800000D03*
X103100000Y-131400000D03*
X84800000Y-157100000D03*
D59*
X106025000Y-146800000D03*
D58*
X62825000Y-104050000D03*
D59*
X101100000Y-167700000D03*
D58*
X70200000Y-156700000D03*
D59*
X99600000Y-169000000D03*
X101100000Y-169000000D03*
D58*
X100800000Y-156400000D03*
D59*
X110175000Y-144475000D03*
X83150000Y-136000000D03*
D58*
X130925000Y-140000000D03*
X112600000Y-131700000D03*
D59*
X103450000Y-136525000D03*
X113350000Y-162125000D03*
D58*
X63425000Y-111800000D03*
X86675000Y-142175000D03*
D59*
X103450000Y-135075000D03*
X72075000Y-163825000D03*
X102500000Y-168300000D03*
D58*
X98425000Y-146275000D03*
D59*
X81750000Y-136000000D03*
D58*
X82700000Y-131550000D03*
D59*
X78150000Y-146600000D03*
X72025000Y-162475000D03*
X113325000Y-163525000D03*
X83150000Y-134700000D03*
D58*
X70700000Y-148000000D03*
X64025000Y-118700000D03*
X84800000Y-148500000D03*
%TO.N,Net-(U13-VDD3_0)*%
X100825000Y-131000000D03*
X85325000Y-130950000D03*
%TO.N,Net-(U13-VDD2_0)*%
X100825000Y-129875000D03*
X85400000Y-129400000D03*
%TO.N,Net-(U13-VDD1_0)*%
X85400000Y-128350000D03*
X100875000Y-128800000D03*
%TO.N,Net-(U25-VDD1_0)*%
X114600000Y-156200000D03*
%TO.N,Net-(U25-VDD2_0)*%
X114600000Y-157400000D03*
%TO.N,/BM1368-3/0V8*%
X114000000Y-147700000D03*
X70725000Y-146800000D03*
X84800000Y-147300000D03*
X101900000Y-147800000D03*
%TO.N,Net-(U25-VDD3_0)*%
X114620000Y-158700000D03*
%TO.N,Net-(U27-VDD3_1)*%
X72400000Y-158600000D03*
%TO.N,Net-(U27-VDD2_1)*%
X71300000Y-158600000D03*
%TO.N,Net-(U27-VDD1_1)*%
X71300000Y-157500000D03*
D60*
%TO.N,/BM1368-1/TEMP_N1*%
X67030089Y-135352894D03*
X101620000Y-93650000D03*
X66110000Y-163080000D03*
%TO.N,/BM1368-1/TEMP_P1*%
X67260000Y-162910000D03*
X103150000Y-93990000D03*
X67010000Y-134700000D03*
%TO.N,/BM1368-1/TEMP_P2*%
X67040000Y-92640000D03*
X70550000Y-119170000D03*
X70530000Y-122800000D03*
%TO.N,/BM1368-1/TEMP_N2*%
X67870000Y-91650000D03*
%TO.N,/BM1368-2/TEMP_P3*%
X71490000Y-131370000D03*
X71680000Y-135290000D03*
X73300000Y-130260000D03*
X71720000Y-137320000D03*
X71566506Y-121063494D03*
%TO.N,/BM1368-2/TEMP_N3*%
X70520000Y-131290000D03*
X70350000Y-137940000D03*
X72550000Y-122640000D03*
X70330000Y-135200000D03*
X73245963Y-129252200D03*
%TO.N,/BM1368-2/TEMP_P4*%
X99990000Y-122040000D03*
%TO.N,/BM1368-2/TEMP_N4*%
X71730000Y-139250000D03*
X100070000Y-123070000D03*
X71710000Y-138050000D03*
%TO.N,/BM1368-3/TEMP_P5*%
X99190000Y-149931800D03*
X69010000Y-139930000D03*
X69540000Y-165350000D03*
%TO.N,/BM1368-3/TEMP_N5*%
X68480000Y-165370000D03*
X98030000Y-150120000D03*
X68420000Y-140540000D03*
%TO.N,/BM1368-3/TEMP_N6*%
X70380000Y-149680000D03*
%TO.N,/BM1368-3/TEMP_P6*%
X70320000Y-148670000D03*
%TO.N,/BM1368-1/BI1*%
X114844000Y-97790989D03*
X113338901Y-96318901D03*
D58*
X116050000Y-97400000D03*
%TO.N,Net-(U12-NRSTI)*%
X84675000Y-98975000D03*
X101725000Y-98750000D03*
%TO.N,/BM1368-1/CO*%
X65200000Y-115500000D03*
D60*
X71882000Y-97790000D03*
X69342000Y-97853200D03*
%TO.N,/BM1368-2/CI2*%
X68610000Y-122760000D03*
D58*
X66300000Y-118747600D03*
D60*
X71074899Y-123522262D03*
D58*
%TO.N,/BM1368-1/NRSTO*%
X72000000Y-98500000D03*
X60675000Y-117700000D03*
X68300000Y-98500000D03*
%TO.N,/BM1368-2/NRSTI2*%
X59850000Y-118850000D03*
X60450000Y-113750000D03*
X71100000Y-122100000D03*
%TO.N,Net-(U13-NRSTO)*%
X85500000Y-122025000D03*
X99140000Y-122950000D03*
D60*
%TO.N,/BM1368-1/BO*%
X70612000Y-96266000D03*
D58*
%TO.N,/BM1368-2/BI2*%
X69130000Y-121910000D03*
X59850000Y-120150000D03*
X60450000Y-108200000D03*
%TO.N,/BM1368-2/RO2*%
X66225000Y-104975000D03*
X65800000Y-121500000D03*
X71100000Y-124200000D03*
%TO.N,/BM1368-1/RI*%
X69375000Y-104025000D03*
%TO.N,/BM1368-2/CO*%
X127600000Y-145400000D03*
X118800000Y-131400000D03*
X116640000Y-127243200D03*
%TO.N,/BM1368-3/CI3*%
X127680000Y-141700000D03*
%TO.N,/BM1368-2/NRSTO*%
X119100000Y-122300000D03*
X116000000Y-122300000D03*
X122000000Y-145400000D03*
%TO.N,/BM1368-3/NRSTI3*%
X115900000Y-155000000D03*
X121780000Y-141700000D03*
%TO.N,Net-(U25-NRSTO)*%
X100800000Y-155200000D03*
X84800000Y-155900000D03*
%TO.N,/BM1368-2/BO*%
X115910000Y-123600000D03*
D60*
X115270000Y-126760000D03*
X114808494Y-124238494D03*
D58*
%TO.N,/BM1368-3/BI3*%
X121842500Y-136037500D03*
X117200000Y-150720000D03*
%TO.N,/BM1368-3/RO3*%
X127500000Y-132400000D03*
X125200000Y-148900000D03*
X115400000Y-152600000D03*
%TO.N,/BM1368-2/RI*%
X127600000Y-130300000D03*
X118140000Y-125550000D03*
X115744726Y-125518256D03*
D60*
%TO.N,Net-(U28-LITE_PAD)*%
X111900000Y-95506200D03*
%TO.N,Net-(U12-LITE_PAD)*%
X83557165Y-94747166D03*
%TO.N,Net-(U13-LITE_PAD)*%
X82790000Y-123670000D03*
%TO.N,Net-(U18-LITE_PAD)*%
X112605237Y-123668766D03*
%TO.N,Net-(U27-LITE_PAD)*%
X82900000Y-151407800D03*
%TO.N,Net-(U25-LITE_PAD)*%
X113340000Y-151320000D03*
%TO.N,/ESP32/ALERT_TEMP*%
X66550000Y-87380000D03*
X56010000Y-136660002D03*
D58*
X102650000Y-51050000D03*
D60*
%TO.N,/ESP32/OVERT_TEMP*%
X70180000Y-87270000D03*
X56520000Y-137960002D03*
X107520000Y-53270000D03*
D58*
X102650000Y-52200000D03*
%TO.N,Net-(U28-ROSC_SEL)*%
X114025000Y-93025000D03*
%TO.N,Net-(U28-INV_CLKO)*%
X113725000Y-91950000D03*
%TO.N,Net-(U12-ROSC_SEL)*%
X85200000Y-93875000D03*
%TO.N,Net-(U18-ROSC_SEL)*%
X117800000Y-118700000D03*
%TO.N,Net-(U13-ROSC_SEL)*%
X85500000Y-120875000D03*
%TO.N,Net-(U25-ROSC_SEL)*%
X116800000Y-147600000D03*
%TO.N,Net-(U27-ROSC_SEL)*%
X84800000Y-150700000D03*
%TO.N,Net-(U27-INV_CLKO)*%
X84800000Y-149600000D03*
%TO.N,/BM1368-3/NRSTO3*%
X70700000Y-155700000D03*
%TO.N,/BM1368-3/BO3*%
X70700000Y-154500000D03*
%TO.N,/BM1368-3/RI3*%
X70610000Y-153200000D03*
%TO.N,/BM1368-3/CLKO3*%
X70700000Y-151900000D03*
%TO.N,/BM1368-3/CO3*%
X70700000Y-150600000D03*
%TO.N,Net-(U12-BI)*%
X84650000Y-95900000D03*
X101725000Y-95225000D03*
%TO.N,Net-(U12-CLKI)*%
X84675000Y-96665000D03*
X101725000Y-96400000D03*
%TO.N,Net-(U12-RO)*%
X101622500Y-97320000D03*
X84660000Y-97480000D03*
D60*
%TO.N,Net-(U12-CI)*%
X84650000Y-98190000D03*
X101580000Y-98000000D03*
D58*
%TO.N,/BM1368-2/CLKI2*%
X71550000Y-113850000D03*
D60*
%TO.N,Net-(U13-BO)*%
X100010000Y-127210000D03*
X85336289Y-126897594D03*
D58*
%TO.N,Net-(U13-RI)*%
X100840000Y-125720000D03*
X85450000Y-125150000D03*
%TO.N,Net-(U13-CO)*%
X85475000Y-124075000D03*
X100900000Y-124625000D03*
%TO.N,/BM1368-1/CLKI1*%
X120200000Y-101700000D03*
%TO.N,/BM1368-3/CLKI3*%
X116300000Y-151600000D03*
X119800000Y-146300000D03*
%TO.N,Net-(U25-CLKO)*%
X84800000Y-152900000D03*
X100800000Y-151700000D03*
%TO.N,Net-(U25-CO)*%
X84800000Y-154800000D03*
X100800000Y-154000000D03*
%TO.N,Net-(U25-RI)*%
X100800000Y-152900000D03*
X84200000Y-153800000D03*
%TO.N,Net-(U25-BO)*%
X84800000Y-151800000D03*
X100800000Y-150996797D03*
%TO.N,/BM1368-1/1V8*%
X74450000Y-91825000D03*
X121375000Y-101950000D03*
X111400000Y-91950000D03*
X101200000Y-87050000D03*
X86050000Y-86475000D03*
X104625000Y-91875000D03*
X81450000Y-91750000D03*
%TO.N,/BM1368-2/1V8*%
X82375000Y-120025000D03*
X73500000Y-119950000D03*
X113000000Y-119700000D03*
X85450000Y-113700000D03*
X103100000Y-119800000D03*
%TO.N,/BM1368-3/1V8*%
X103200000Y-147800000D03*
X70800000Y-145575000D03*
X84775000Y-146125000D03*
X112900000Y-147700000D03*
%TD*%
D61*
%TO.N,GND*%
X115960000Y-98980000D02*
X111012000Y-98980000D01*
D62*
X85100000Y-54050000D02*
X84750000Y-54050000D01*
D61*
X98420000Y-59600000D02*
X98420000Y-58120000D01*
D63*
X81378000Y-66900000D02*
X82296000Y-67818000D01*
X120120000Y-47780000D02*
X120000000Y-47900000D01*
D61*
X103969851Y-94471388D02*
X104519388Y-94471388D01*
D63*
X111600000Y-54100000D02*
X113000000Y-54100000D01*
X101830000Y-47780000D02*
X100990000Y-48620000D01*
X93250000Y-55000000D02*
X93250000Y-54350000D01*
X88900000Y-171425000D02*
X88900000Y-172220000D01*
X111600000Y-56900000D02*
X113000000Y-56900000D01*
X110200000Y-54100000D02*
X111600000Y-54100000D01*
D61*
X95600000Y-70080000D02*
X95600000Y-71250000D01*
X103381000Y-98994000D02*
X105166000Y-98994000D01*
D63*
X111600000Y-55500000D02*
X113000000Y-55500000D01*
X88900000Y-171425000D02*
X90450000Y-171425000D01*
D62*
X84400000Y-54400000D02*
X83500100Y-54400000D01*
D61*
X112498672Y-94158672D02*
X112498672Y-94203328D01*
D64*
X91700000Y-55000000D02*
X93250000Y-55000000D01*
D61*
X72450000Y-99550000D02*
X73006000Y-98994000D01*
X112226000Y-94476000D02*
X110998000Y-94476000D01*
D63*
X110200000Y-55500000D02*
X111600000Y-55500000D01*
D61*
X81776000Y-93974000D02*
X80894000Y-93974000D01*
X131400000Y-59300000D02*
X130800000Y-59900000D01*
D65*
X65300000Y-61170000D02*
X67100000Y-61170000D01*
D61*
X85650000Y-50600000D02*
X86120000Y-50130000D01*
D63*
X88565000Y-170715000D02*
X88325000Y-170475000D01*
D61*
X112550000Y-91975000D02*
X112550000Y-93325000D01*
D63*
X88325000Y-122500000D02*
X89750000Y-121075000D01*
X88325000Y-170475000D02*
X88325000Y-122500000D01*
X65750000Y-78750000D02*
X63287500Y-78750000D01*
D61*
X82725000Y-91775000D02*
X82725000Y-93025000D01*
D64*
X88580000Y-50030000D02*
X88580000Y-48867500D01*
D61*
X60960000Y-136550000D02*
X60940000Y-136530000D01*
X78450000Y-66900000D02*
X79500000Y-66900000D01*
X84675000Y-100025000D02*
X84400000Y-100025000D01*
X111901000Y-93974000D02*
X110998000Y-93974000D01*
X103350000Y-91900000D02*
X103350000Y-93112000D01*
X72000000Y-99550000D02*
X72450000Y-99550000D01*
X82350000Y-94425000D02*
X82075000Y-94425000D01*
D63*
X110200000Y-56900000D02*
X111600000Y-56900000D01*
X93250000Y-54350000D02*
X93470000Y-54130000D01*
X65850000Y-78850000D02*
X65750000Y-78750000D01*
D62*
X84750000Y-54050000D02*
X84400000Y-54400000D01*
D61*
X81600000Y-50600000D02*
X83600000Y-50600000D01*
X101725000Y-100000000D02*
X102375000Y-100000000D01*
X103350000Y-93112000D02*
X104212000Y-93974000D01*
D63*
X79500000Y-66900000D02*
X81378000Y-66900000D01*
X121850000Y-47780000D02*
X120120000Y-47780000D01*
D64*
X91100000Y-54400000D02*
X91100000Y-52550000D01*
D61*
X78570000Y-51580000D02*
X77600000Y-52550000D01*
X104524000Y-94476000D02*
X105166000Y-94476000D01*
X78375000Y-66975000D02*
X78450000Y-66900000D01*
X104519388Y-94471388D02*
X104524000Y-94476000D01*
X82075000Y-94425000D02*
X82024000Y-94476000D01*
D63*
X110200000Y-56900000D02*
X108750000Y-56900000D01*
D61*
X82725000Y-93025000D02*
X81776000Y-93974000D01*
X98420000Y-58080000D02*
X98400000Y-58100000D01*
X98420000Y-58120000D02*
X98400000Y-58100000D01*
X83600000Y-49400000D02*
X83600000Y-50600000D01*
X74025000Y-94527200D02*
X74076200Y-94476000D01*
D63*
X88900000Y-171050000D02*
X88565000Y-170715000D01*
D61*
X111012000Y-98980000D02*
X110998000Y-98994000D01*
D63*
X111600000Y-54100000D02*
X111600000Y-55500000D01*
D61*
X112498672Y-94203328D02*
X112226000Y-94476000D01*
X83500100Y-54400000D02*
X82800000Y-54400000D01*
X84400000Y-100025000D02*
X83369000Y-98994000D01*
X100775000Y-70975000D02*
X100790000Y-70990000D01*
D63*
X93470000Y-54130000D02*
X93470000Y-53420000D01*
D61*
X81030000Y-50030000D02*
X81600000Y-50600000D01*
X116000000Y-99020000D02*
X115960000Y-98980000D01*
X95900000Y-66175000D02*
X94225000Y-66175000D01*
X73974000Y-93974000D02*
X75062000Y-93974000D01*
X74076200Y-94476000D02*
X75062000Y-94476000D01*
D63*
X88900000Y-171425000D02*
X88900000Y-171050000D01*
D64*
X90300000Y-54400000D02*
X91100000Y-54400000D01*
X91100000Y-54400000D02*
X91700000Y-55000000D01*
D63*
X111600000Y-55500000D02*
X111600000Y-56900000D01*
D61*
X86120000Y-50130000D02*
X86120000Y-48867500D01*
X83600000Y-50600000D02*
X85650000Y-50600000D01*
X78570000Y-48867500D02*
X78570000Y-51580000D01*
X98420000Y-56800000D02*
X98420000Y-58080000D01*
D63*
X99860000Y-53375000D02*
X99860000Y-54990000D01*
D61*
X82024000Y-94476000D02*
X80894000Y-94476000D01*
D65*
X67100000Y-61170000D02*
X68072000Y-60198000D01*
D61*
X73200000Y-91875000D02*
X73200000Y-93200000D01*
X130800000Y-59900000D02*
X130535000Y-59900000D01*
X73006000Y-98994000D02*
X75062000Y-98994000D01*
X73200000Y-93200000D02*
X73974000Y-93974000D01*
X60960000Y-146950000D02*
X60960000Y-136550000D01*
D63*
X104350000Y-47780000D02*
X101830000Y-47780000D01*
D61*
X92400100Y-173200000D02*
X91750000Y-173200000D01*
X112550000Y-93325000D02*
X111901000Y-93974000D01*
X83369000Y-98994000D02*
X80894000Y-98994000D01*
D63*
X113000000Y-54100000D02*
X114500000Y-54100000D01*
D64*
X91100000Y-52550000D02*
X88580000Y-50030000D01*
D61*
X102375000Y-100000000D02*
X103381000Y-98994000D01*
D63*
X89750000Y-121075000D02*
X89750000Y-104650000D01*
D61*
X104212000Y-93974000D02*
X105166000Y-93974000D01*
X81030000Y-48867500D02*
X81030000Y-50030000D01*
%TO.N,/ESP32/EN*%
X102650000Y-49550000D02*
X103420000Y-50320000D01*
X124275000Y-50938100D02*
X126838100Y-50938100D01*
X88450000Y-52450000D02*
X87300000Y-52450000D01*
X88850000Y-52850000D02*
X88450000Y-52450000D01*
X128600000Y-52700000D02*
X128600000Y-57965000D01*
X87300000Y-52450000D02*
X87350000Y-52400000D01*
X87350000Y-52400000D02*
X87350000Y-48767500D01*
X103420000Y-50320000D02*
X104350000Y-50320000D01*
X88850000Y-53410000D02*
X88850000Y-52850000D01*
X88850000Y-53410000D02*
X90270000Y-53410000D01*
X126838100Y-50938100D02*
X128600000Y-52700000D01*
X128600000Y-57965000D02*
X129265000Y-58630000D01*
%TO.N,/5V*%
X102300000Y-78450000D02*
X102300000Y-82750000D01*
X99100000Y-70750000D02*
X99100000Y-75250000D01*
X99100000Y-75250000D02*
X102300000Y-78450000D01*
X100450000Y-64300000D02*
X100450000Y-69400000D01*
X92175000Y-61850000D02*
X98000000Y-61850000D01*
X96350000Y-119800000D02*
X98100000Y-119800000D01*
X100450000Y-69400000D02*
X99100000Y-70750000D01*
X98000000Y-61850000D02*
X100450000Y-64300000D01*
%TO.N,/3V3*%
X53900000Y-141380000D02*
X53890000Y-141370000D01*
X55010000Y-140270000D02*
X53900000Y-141380000D01*
D63*
X54960000Y-141350000D02*
X54960000Y-149370000D01*
D61*
X59960000Y-139170000D02*
X60556800Y-139170000D01*
X105375000Y-67225000D02*
X104110000Y-67225000D01*
X97030000Y-69120000D02*
X95600000Y-69120000D01*
X106100000Y-67100000D02*
X105500000Y-67100000D01*
X94205000Y-69120000D02*
X94200000Y-69125000D01*
D63*
X106150000Y-49050000D02*
X106200000Y-49100000D01*
D61*
X95600000Y-69120000D02*
X94205000Y-69120000D01*
X59910000Y-139220000D02*
X59960000Y-139170000D01*
D63*
X87450000Y-172450000D02*
X87450000Y-122175000D01*
D61*
X53890000Y-141370000D02*
X53350000Y-141370000D01*
X87540000Y-66935000D02*
X87550000Y-66925000D01*
D63*
X88652400Y-89097600D02*
X98725000Y-79025000D01*
D61*
X53120000Y-141140000D02*
X53120000Y-141130000D01*
D63*
X98725000Y-79025000D02*
X100975000Y-79025000D01*
X54960000Y-149370000D02*
X54960000Y-152818409D01*
D61*
X56040000Y-140270000D02*
X55010000Y-140270000D01*
D63*
X88652400Y-120972600D02*
X88652400Y-89097600D01*
D64*
X88080000Y-54430000D02*
X87775000Y-54125000D01*
D63*
X87450000Y-122175000D02*
X88652400Y-120972600D01*
D64*
X87775000Y-54125000D02*
X87775000Y-53350000D01*
D61*
X59470000Y-137310000D02*
X59430000Y-137270000D01*
D63*
X54960000Y-152818409D02*
X75321591Y-173180000D01*
D61*
X87540000Y-66915000D02*
X87540000Y-66150000D01*
D64*
X88850000Y-54430000D02*
X88080000Y-54430000D01*
D66*
X90799900Y-173200000D02*
X88920000Y-173200000D01*
D61*
X55770000Y-149400000D02*
X54990000Y-149400000D01*
X131100000Y-58065000D02*
X131100000Y-56500000D01*
X131100000Y-56500000D02*
X130300000Y-55700000D01*
D63*
X88900000Y-173180000D02*
X88180000Y-173180000D01*
D61*
X95000000Y-66675000D02*
X94200000Y-67475000D01*
X87540000Y-66150000D02*
X87515000Y-66125000D01*
X53350000Y-141370000D02*
X53120000Y-141140000D01*
X56040000Y-140270000D02*
X56050000Y-140260000D01*
X60556800Y-139343200D02*
X60556800Y-139170000D01*
X99550000Y-65425000D02*
X99550000Y-65450000D01*
D63*
X104350000Y-49050000D02*
X106150000Y-49050000D01*
D61*
X105500000Y-67100000D02*
X105375000Y-67225000D01*
X99550000Y-66600000D02*
X97030000Y-69120000D01*
X130535000Y-58630000D02*
X131100000Y-58065000D01*
D62*
X81200000Y-54400000D02*
X80050000Y-53250000D01*
D63*
X75321591Y-173180000D02*
X88180000Y-173180000D01*
X56040000Y-140270000D02*
X54960000Y-141350000D01*
D62*
X81899900Y-54400000D02*
X81200000Y-54400000D01*
D61*
X87550000Y-66925000D02*
X87540000Y-66915000D01*
X95900000Y-66675000D02*
X95000000Y-66675000D01*
X59640000Y-140260000D02*
X60556800Y-139343200D01*
X87540000Y-67725000D02*
X87540000Y-66935000D01*
X59670000Y-139220000D02*
X59910000Y-139220000D01*
X94200000Y-67475000D02*
X94200000Y-69125000D01*
X87795000Y-53330000D02*
X87775000Y-53350000D01*
X60556800Y-139170000D02*
X60556800Y-137310000D01*
D63*
X88180000Y-173180000D02*
X87450000Y-172450000D01*
D61*
X106115000Y-65540000D02*
X106100000Y-67100000D01*
X54990000Y-149400000D02*
X54960000Y-149370000D01*
X60556800Y-137310000D02*
X59470000Y-137310000D01*
D67*
X88920000Y-173200000D02*
X88900000Y-173180000D01*
D61*
X56050000Y-140260000D02*
X59640000Y-140260000D01*
X99550000Y-66600000D02*
X99550000Y-65425000D01*
%TO.N,/SCL*%
X93700001Y-173699999D02*
X94700000Y-172700000D01*
X126125000Y-113650000D02*
X126125000Y-107775000D01*
X130217666Y-103682334D02*
X130217666Y-66967052D01*
X83500100Y-54899999D02*
X84950000Y-54899999D01*
X63705000Y-85630000D02*
X81800641Y-85630000D01*
X81800641Y-85630000D02*
X83550000Y-83880641D01*
X62725000Y-84650000D02*
X63705000Y-85630000D01*
X65770000Y-169560000D02*
X65730000Y-169600000D01*
X118815000Y-62915000D02*
X118815000Y-65540000D01*
X84950000Y-54899999D02*
X85700001Y-54899999D01*
X97975000Y-63553437D02*
X97975000Y-66700000D01*
X78375000Y-61225000D02*
X78375000Y-58575000D01*
X126125000Y-107775000D02*
X130217666Y-103682334D01*
X54230000Y-134680000D02*
X55470000Y-135920000D01*
X118800000Y-62900000D02*
X118815000Y-62915000D01*
X127300000Y-61780000D02*
X125800000Y-60280000D01*
X79550000Y-57400000D02*
X83600000Y-57400000D01*
X98126900Y-63401537D02*
X97975000Y-63553437D01*
X83550000Y-66400000D02*
X78375000Y-61225000D01*
X97500000Y-67175000D02*
X95900000Y-67175000D01*
X97975000Y-66700000D02*
X97500000Y-67175000D01*
X83600000Y-57400000D02*
X84950000Y-56050000D01*
X85700001Y-54899999D02*
X86250000Y-54350000D01*
X65730000Y-171040000D02*
X69320000Y-174630000D01*
X96866800Y-174703200D02*
X98340000Y-173230000D01*
X129550000Y-151182210D02*
X129550000Y-117075000D01*
X83550000Y-83880641D02*
X83550000Y-66400000D01*
X65730000Y-169600000D02*
X65730000Y-171040000D01*
X78375000Y-58575000D02*
X79550000Y-57400000D01*
X86250000Y-54350000D02*
X86250000Y-53525000D01*
X110149010Y-170583200D02*
X129550000Y-151182210D01*
X55470000Y-135920000D02*
X55470000Y-139510000D01*
X90799900Y-172700001D02*
X90200001Y-172700001D01*
X130217666Y-66967052D02*
X127300000Y-64049386D01*
X90200001Y-172700001D02*
X89900000Y-172400000D01*
X96700000Y-173200000D02*
X99316800Y-170583200D01*
X90832989Y-174703200D02*
X96866800Y-174703200D01*
X129550000Y-117075000D02*
X126125000Y-113650000D01*
X99316800Y-170583200D02*
X110149010Y-170583200D01*
X127300000Y-64049386D02*
X127300000Y-61780000D01*
X90759789Y-174630000D02*
X90832989Y-174703200D01*
X92400100Y-173699999D02*
X93700001Y-173699999D01*
X69320000Y-174630000D02*
X90759789Y-174630000D01*
X84950000Y-56050000D02*
X84950000Y-54899999D01*
%TO.N,Net-(U3-BP1V5)*%
X54903118Y-77066882D02*
X53920000Y-78050000D01*
X53225000Y-79000000D02*
X53225000Y-78050000D01*
X54903118Y-76687092D02*
X54903118Y-77066882D01*
X53300000Y-77625000D02*
X53225000Y-77550000D01*
X53920000Y-78050000D02*
X53225000Y-78050000D01*
X57150000Y-74820104D02*
X55887904Y-76082200D01*
X57150000Y-74250000D02*
X57150000Y-74820104D01*
X53225000Y-78050000D02*
X53225000Y-77375000D01*
X55887904Y-76082200D02*
X55508010Y-76082200D01*
X55508010Y-76082200D02*
X54903118Y-76687092D01*
X53225000Y-77550000D02*
X53225000Y-77375000D01*
%TO.N,Net-(U3-DRTN)*%
X55330000Y-77430000D02*
X54775000Y-77985000D01*
X57650000Y-74900000D02*
X56060000Y-76490000D01*
X57650000Y-74250000D02*
X57650000Y-74900000D01*
X55732969Y-76490000D02*
X55330000Y-76892969D01*
X56060000Y-76490000D02*
X55732969Y-76490000D01*
X54775000Y-77985000D02*
X54775000Y-79000000D01*
X55330000Y-76892969D02*
X55330000Y-77430000D01*
%TO.N,Net-(U3-EN{slash}UVLO)*%
X55555000Y-66217500D02*
X55555000Y-65500000D01*
X57615000Y-66875000D02*
X56212500Y-66875000D01*
X55555000Y-65500000D02*
X55555000Y-64280000D01*
X55500000Y-64225000D02*
X55500000Y-63055000D01*
X57920000Y-67180000D02*
X57615000Y-66875000D01*
X57920000Y-67950000D02*
X57920000Y-67180000D01*
X58150000Y-69250000D02*
X58150000Y-68180000D01*
X58150000Y-68180000D02*
X57920000Y-67950000D01*
X56212500Y-66875000D02*
X55555000Y-66217500D01*
D62*
%TO.N,Net-(U3-AVIN)*%
X58650000Y-68025000D02*
X58425000Y-67800000D01*
X58425000Y-67800000D02*
X58425000Y-67075000D01*
X57400000Y-66050000D02*
X56725000Y-66050000D01*
D67*
X56725000Y-66050000D02*
X56725000Y-64910000D01*
D62*
X58425000Y-67075000D02*
X57400000Y-66050000D01*
X58650000Y-69250000D02*
X58650000Y-68025000D01*
%TO.N,Net-(U3-VDD5)*%
X57350000Y-68006526D02*
X57350000Y-67675000D01*
X57650000Y-69250000D02*
X57650000Y-68306526D01*
X57650000Y-68306526D02*
X57350000Y-68006526D01*
D61*
%TO.N,Net-(U3-VOSNS)*%
X53900000Y-69725000D02*
X54175000Y-70000000D01*
D64*
X53025000Y-69795000D02*
X53830000Y-69795000D01*
X53830000Y-69795000D02*
X53900000Y-69725000D01*
D61*
X54175000Y-70000000D02*
X54900000Y-70000000D01*
D63*
%TO.N,Net-(C22-Pad2)*%
X58725000Y-79050000D02*
X60062500Y-79050000D01*
X60062500Y-79050000D02*
X60362500Y-78750000D01*
X58575000Y-79200000D02*
X58725000Y-79050000D01*
D61*
%TO.N,/ESP32/P_TX*%
X121850000Y-51590000D02*
X126490000Y-51590000D01*
X129265000Y-59900000D02*
X128100000Y-58735000D01*
X128100000Y-53200000D02*
X127350000Y-52450000D01*
X128100000Y-58735000D02*
X128100000Y-53200000D01*
X126490000Y-51590000D02*
X127350000Y-52450000D01*
%TO.N,/ESP32/P_RX*%
X127300000Y-53600000D02*
X127300000Y-59205000D01*
X127300000Y-59205000D02*
X129265000Y-61170000D01*
X127300000Y-53600000D02*
X126560000Y-52860000D01*
X126560000Y-52860000D02*
X121850000Y-52860000D01*
%TO.N,/ESP32/IO0*%
X121850000Y-64290000D02*
X123490000Y-64290000D01*
X132052400Y-55452400D02*
X124250000Y-47650000D01*
X123490000Y-64290000D02*
X124100000Y-64900000D01*
X83550000Y-51650000D02*
X81200000Y-51650000D01*
X124250000Y-47650000D02*
X124250000Y-47200000D01*
X81200000Y-51650000D02*
X79800000Y-50250000D01*
X132052400Y-64247600D02*
X132052400Y-61200000D01*
X79800000Y-50250000D02*
X79800000Y-48767500D01*
X132022400Y-61170000D02*
X132052400Y-61200000D01*
X131400000Y-64900000D02*
X132052400Y-64247600D01*
X132052400Y-61200000D02*
X132052400Y-55452400D01*
X130535000Y-61170000D02*
X132022400Y-61170000D01*
%TO.N,/ESP32/XIN32*%
X104350000Y-56670000D02*
X101407600Y-56670000D01*
X101407600Y-56670000D02*
X101300000Y-56777600D01*
X101300000Y-56777600D02*
X99402400Y-56777600D01*
X99402400Y-56777600D02*
X99380000Y-56800000D01*
%TO.N,/ESP32/XOUT32*%
X99402400Y-59622400D02*
X99380000Y-59600000D01*
X102982400Y-57940000D02*
X101300000Y-59622400D01*
X101300000Y-59622400D02*
X99402400Y-59622400D01*
X104350000Y-57940000D02*
X102982400Y-57940000D01*
%TO.N,/Power/PGOOD*%
X54300000Y-75025000D02*
X54472389Y-74852611D01*
X102400000Y-67225000D02*
X103090000Y-67225000D01*
X60325000Y-83875000D02*
X60325000Y-84475000D01*
X110500000Y-67250000D02*
X111195000Y-66555000D01*
X84150000Y-80050000D02*
X85150000Y-79050000D01*
X93350000Y-79050000D02*
X94500000Y-77900000D01*
X55650000Y-74560000D02*
X55650000Y-74250000D01*
X107550000Y-67250000D02*
X110500000Y-67250000D01*
X55357389Y-74852611D02*
X55650000Y-74560000D01*
X94500000Y-74125000D02*
X98325000Y-70300000D01*
X60325000Y-84475000D02*
X61920000Y-86070000D01*
X94500000Y-77900000D02*
X94500000Y-74125000D01*
X81985175Y-86070000D02*
X84150000Y-83905175D01*
X61920000Y-86070000D02*
X81985175Y-86070000D01*
X101450000Y-66275000D02*
X102400000Y-67225000D01*
X111195000Y-66555000D02*
X111195000Y-65540000D01*
X85150000Y-79050000D02*
X93350000Y-79050000D01*
X98325000Y-70300000D02*
X98325000Y-69400000D01*
X54472389Y-74852611D02*
X55357389Y-74852611D01*
X84150000Y-83905175D02*
X84150000Y-80050000D01*
%TO.N,Net-(U3-GOSNS)*%
X54200000Y-70500000D02*
X54900000Y-70500000D01*
X53875000Y-70825000D02*
X54200000Y-70500000D01*
D64*
X53025000Y-70755000D02*
X53805000Y-70755000D01*
X53805000Y-70755000D02*
X53875000Y-70825000D01*
D61*
%TO.N,/SDA*%
X129112415Y-151049585D02*
X129112415Y-117261899D01*
X53880000Y-136850000D02*
X53880000Y-140430000D01*
X69630000Y-174100000D02*
X69920000Y-173810000D01*
X91000000Y-174300000D02*
X94300000Y-174300000D01*
X90799900Y-174099900D02*
X91000000Y-174300000D01*
X125800000Y-63200000D02*
X125800000Y-62820000D01*
X129750000Y-67150000D02*
X125800000Y-63200000D01*
X98775000Y-64375000D02*
X98775000Y-66575000D01*
X81643057Y-85166943D02*
X83130066Y-83679934D01*
X63900000Y-84600000D02*
X64466943Y-85166943D01*
X129750000Y-103539926D02*
X129750000Y-67150000D01*
X77948751Y-61476306D02*
X77948751Y-57248849D01*
X83130066Y-83679934D02*
X83130066Y-66657621D01*
X117600000Y-63900000D02*
X117600000Y-65485000D01*
X79200000Y-53000000D02*
X79200000Y-53797600D01*
X98775000Y-66575000D02*
X97675000Y-67675000D01*
X125707348Y-107582578D02*
X129750000Y-103539926D01*
X53970000Y-136760000D02*
X53880000Y-136850000D01*
X77948751Y-57248849D02*
X80300000Y-54897600D01*
X69920000Y-173810000D02*
X90510000Y-173810000D01*
X98420000Y-170180000D02*
X109982000Y-170180000D01*
X90799900Y-173699999D02*
X90799900Y-174099900D01*
X125707348Y-113856832D02*
X125707348Y-107582578D01*
X109982000Y-170180000D02*
X129112415Y-151049585D01*
X90510000Y-173810000D02*
X91000000Y-174300000D01*
X81897501Y-54897600D02*
X81899900Y-54899999D01*
X64466943Y-85166943D02*
X81643057Y-85166943D01*
X79200000Y-53797600D02*
X80300000Y-54897600D01*
X80850000Y-53250000D02*
X80850000Y-52850000D01*
X79700000Y-52500000D02*
X79200000Y-53000000D01*
X80500000Y-52500000D02*
X79700000Y-52500000D01*
X53880000Y-140430000D02*
X53750000Y-140560000D01*
X80300000Y-54897600D02*
X81897501Y-54897600D01*
X80850000Y-52850000D02*
X80500000Y-52500000D01*
X97675000Y-67675000D02*
X95900000Y-67675000D01*
X117600000Y-65485000D02*
X117545000Y-65540000D01*
X81899900Y-53900001D02*
X81500001Y-53900001D01*
X94300000Y-174300000D02*
X98420000Y-170180000D01*
X129112415Y-117261899D02*
X125707348Y-113856832D01*
X83130066Y-66657621D02*
X77948751Y-61476306D01*
X81500001Y-53900001D02*
X80850000Y-53250000D01*
%TO.N,Net-(U12-VDD3_0)*%
X101700000Y-103275000D02*
X101725000Y-103275000D01*
X81750000Y-100500000D02*
X80894000Y-100500000D01*
X84425000Y-103175000D02*
X81750000Y-100500000D01*
X104500000Y-100500000D02*
X105166000Y-100500000D01*
X84625000Y-103175000D02*
X84425000Y-103175000D01*
X101725000Y-103275000D02*
X104500000Y-100500000D01*
%TO.N,Net-(U13-INV_CLKO)*%
X84750000Y-120450000D02*
X84750000Y-120950000D01*
X82498000Y-123202000D02*
X80894000Y-123202000D01*
X85475000Y-119725000D02*
X84750000Y-120450000D01*
X84750000Y-120950000D02*
X82498000Y-123202000D01*
%TO.N,Net-(U13-CLKO)*%
X100827160Y-126423085D02*
X100919258Y-126423085D01*
X85365000Y-126220000D02*
X80900000Y-126220000D01*
X100919258Y-126423085D02*
X101128343Y-126214000D01*
X101128343Y-126214000D02*
X105166000Y-126214000D01*
X80900000Y-126220000D02*
X80894000Y-126214000D01*
%TO.N,Net-(U12-VDD2_0)*%
X101975000Y-102200000D02*
X104177000Y-99998000D01*
X104177000Y-99998000D02*
X105166000Y-99998000D01*
X82248500Y-99998000D02*
X80894000Y-99998000D01*
X101700000Y-102200000D02*
X101975000Y-102200000D01*
X84650000Y-102150000D02*
X84400500Y-102150000D01*
X84400500Y-102150000D02*
X82248500Y-99998000D01*
%TO.N,/NRSTI*%
X115895132Y-98470000D02*
X111020000Y-98470000D01*
X116046777Y-98318355D02*
X115895132Y-98470000D01*
X111020000Y-98470000D02*
X110998000Y-98492000D01*
%TO.N,/RO*%
X115975000Y-95675000D02*
X115300000Y-95675000D01*
X115300000Y-95675000D02*
X113487000Y-97488000D01*
X113487000Y-97488000D02*
X110998000Y-97488000D01*
%TO.N,/CI*%
X115220000Y-96510000D02*
X113740000Y-97990000D01*
X113740000Y-97990000D02*
X110998000Y-97990000D01*
X118160000Y-95590000D02*
X118000000Y-95750000D01*
X118160000Y-92080000D02*
X118160000Y-95590000D01*
X116000000Y-96510000D02*
X115220000Y-96510000D01*
%TO.N,Net-(U12-VDD1_0)*%
X83021000Y-99496000D02*
X80894000Y-99496000D01*
X101725000Y-101100000D02*
X102300000Y-101100000D01*
X84676432Y-101098465D02*
X84623465Y-101098465D01*
X102300000Y-101100000D02*
X103904000Y-99496000D01*
X84623465Y-101098465D02*
X83021000Y-99496000D01*
X103904000Y-99496000D02*
X105166000Y-99496000D01*
%TO.N,Net-(U12-VDD1_1)*%
X72220000Y-100530000D02*
X73254000Y-99496000D01*
X73254000Y-99496000D02*
X75062000Y-99496000D01*
X71975000Y-100530000D02*
X72220000Y-100530000D01*
%TO.N,Net-(U12-VDD2_1)*%
X71975000Y-101525000D02*
X73502000Y-99998000D01*
X71975000Y-101600000D02*
X71975000Y-101525000D01*
X73502000Y-99998000D02*
X75062000Y-99998000D01*
%TO.N,Net-(U12-VDD3_1)*%
X74029500Y-100500000D02*
X75062000Y-100500000D01*
X71950000Y-102590000D02*
X71950000Y-102579500D01*
X71950000Y-102579500D02*
X74029500Y-100500000D01*
%TO.N,/Fan/FAN1_TACH*%
X86375000Y-63025000D02*
X85525000Y-63025000D01*
X91500000Y-65675000D02*
X90150000Y-65675000D01*
X85525000Y-63025000D02*
X84780000Y-62280000D01*
X88560000Y-66100000D02*
X88535000Y-66125000D01*
X84780000Y-62280000D02*
X84780000Y-60650000D01*
X88535000Y-66125000D02*
X88535000Y-65185000D01*
X88535000Y-65185000D02*
X86375000Y-63025000D01*
X90150000Y-65675000D02*
X89725000Y-66100000D01*
X89725000Y-66100000D02*
X88560000Y-66100000D01*
%TO.N,/Fan/FAN1_PWM*%
X87320000Y-62295000D02*
X87320000Y-60650000D01*
X93150000Y-63875000D02*
X88900000Y-63875000D01*
X95900000Y-65675000D02*
X94950000Y-65675000D01*
X88900000Y-63875000D02*
X87320000Y-62295000D01*
X94950000Y-65675000D02*
X93150000Y-63875000D01*
%TO.N,/Fan/FAN2_TACH*%
X92875000Y-68150000D02*
X92375000Y-68650000D01*
X92375000Y-68650000D02*
X90400000Y-68650000D01*
X88560000Y-67725000D02*
X88560000Y-68650000D01*
X88560000Y-70945000D02*
X89990000Y-72375000D01*
X92400000Y-66675000D02*
X92875000Y-67150000D01*
X91500000Y-66675000D02*
X92400000Y-66675000D01*
X92875000Y-67150000D02*
X92875000Y-68150000D01*
X88560000Y-68650000D02*
X88560000Y-70945000D01*
X89475000Y-67725000D02*
X88560000Y-67725000D01*
X90400000Y-68650000D02*
X89475000Y-67725000D01*
%TO.N,/Fan/FAN2_PWM*%
X93350000Y-66725000D02*
X93350000Y-71555000D01*
X92800000Y-66175000D02*
X93350000Y-66725000D01*
X93350000Y-71555000D02*
X92530000Y-72375000D01*
X91500000Y-66175000D02*
X92800000Y-66175000D01*
%TO.N,Net-(U18-VDD1_0)*%
X114500000Y-128300000D02*
X114600000Y-128300000D01*
X113920000Y-127720000D02*
X114500000Y-128300000D01*
X110998000Y-127720000D02*
X113920000Y-127720000D01*
%TO.N,Net-(U18-VDD2_0)*%
X110998000Y-128222000D02*
X113422000Y-128222000D01*
X113422000Y-128222000D02*
X114600000Y-129400000D01*
%TO.N,Net-(U18-VDD3_0)*%
X112824000Y-128724000D02*
X114600000Y-130500000D01*
X110998000Y-128724000D02*
X112824000Y-128724000D01*
D63*
%TO.N,/VIN*%
X60750000Y-63325000D02*
X60725000Y-63300000D01*
D62*
X59150000Y-69250000D02*
X59150000Y-68450000D01*
X61150000Y-69250000D02*
X61150000Y-68425000D01*
D68*
X68828000Y-63650000D02*
X68503000Y-63325000D01*
X69544000Y-63650000D02*
X68828000Y-63650000D01*
D67*
X57810000Y-63890000D02*
X58400000Y-63300000D01*
D62*
X60650000Y-69250000D02*
X60650000Y-68450000D01*
D61*
X58035000Y-61990000D02*
X58400000Y-61625000D01*
D69*
X65532000Y-50016000D02*
X65300000Y-49784000D01*
D65*
X60855000Y-61170000D02*
X64075000Y-61170000D01*
D70*
X60725000Y-61300000D02*
X60855000Y-61170000D01*
D62*
X60150000Y-69250000D02*
X60150000Y-68450000D01*
D68*
X68503000Y-63325000D02*
X60750000Y-63325000D01*
D62*
X59650000Y-69250000D02*
X59650000Y-68450000D01*
D69*
X65300000Y-54864000D02*
X65532000Y-54632000D01*
D61*
X55545000Y-61990000D02*
X58035000Y-61990000D01*
D69*
X65532000Y-54632000D02*
X65532000Y-50016000D01*
D67*
X56725000Y-63890000D02*
X57810000Y-63890000D01*
D61*
X58400000Y-61625000D02*
X58400000Y-61300000D01*
%TO.N,Net-(U3-VSEL)*%
X53875000Y-67225000D02*
X55385000Y-67225000D01*
X55385000Y-67225000D02*
X56650000Y-68490000D01*
X56650000Y-68490000D02*
X56650000Y-69250000D01*
%TO.N,Net-(U3-ADRSEL)*%
X55480000Y-67950000D02*
X56150000Y-68620000D01*
X54650000Y-67950000D02*
X55480000Y-67950000D01*
X56150000Y-68620000D02*
X56150000Y-69250000D01*
%TO.N,Net-(J6-Pin_4)*%
X113500000Y-60600000D02*
X117430000Y-56670000D01*
X117430000Y-56670000D02*
X121850000Y-56670000D01*
X113500000Y-62350000D02*
X113500000Y-60600000D01*
%TO.N,Net-(J6-Pin_6)*%
X111050000Y-61600000D02*
X118520000Y-54130000D01*
X111050000Y-62047600D02*
X111050000Y-61600000D01*
X118520000Y-54130000D02*
X121850000Y-54130000D01*
%TO.N,Net-(J6-Pin_3)*%
X117010000Y-57940000D02*
X121850000Y-57940000D01*
X114550000Y-60400000D02*
X117010000Y-57940000D01*
X114550000Y-63300000D02*
X114550000Y-60400000D01*
%TO.N,Net-(J6-Pin_5)*%
X112350000Y-62047600D02*
X112350000Y-61000000D01*
X112350000Y-61000000D02*
X117950000Y-55400000D01*
X117950000Y-55400000D02*
X121850000Y-55400000D01*
%TO.N,Net-(U25-VDD1_1)*%
X101500000Y-157500000D02*
X100700000Y-157500000D01*
X105166000Y-155450000D02*
X103550000Y-155450000D01*
X82150000Y-155450000D02*
X80894000Y-155450000D01*
X84200000Y-158300000D02*
X84200000Y-157500000D01*
X103550000Y-155450000D02*
X101500000Y-157500000D01*
X84200000Y-157500000D02*
X82150000Y-155450000D01*
%TO.N,Net-(U25-VDD2_1)*%
X83500000Y-159200000D02*
X83100000Y-158800000D01*
X103948000Y-155952000D02*
X101700000Y-158200000D01*
X101700000Y-158200000D02*
X101700000Y-158800000D01*
X83100000Y-157349000D02*
X81703000Y-155952000D01*
X105166000Y-155952000D02*
X103948000Y-155952000D01*
X81703000Y-155952000D02*
X80894000Y-155952000D01*
X83100000Y-158800000D02*
X83100000Y-157349000D01*
%TO.N,Net-(U25-VDD3_1)*%
X102600000Y-158200000D02*
X102600000Y-159400000D01*
X82300000Y-159200000D02*
X82300000Y-157300000D01*
X104346000Y-156454000D02*
X102600000Y-158200000D01*
X81454000Y-156454000D02*
X80894000Y-156454000D01*
X105166000Y-156454000D02*
X104346000Y-156454000D01*
X82300000Y-157300000D02*
X81454000Y-156454000D01*
%TO.N,Net-(U6-GPIO6{slash}TOUCH6{slash}ADC1_CH5)*%
X102700000Y-53450000D02*
X103380000Y-54130000D01*
X103380000Y-54130000D02*
X104350000Y-54130000D01*
%TO.N,/ESP32/ASIC_RST*%
X118300000Y-53600000D02*
X118300000Y-50500000D01*
X118300000Y-50500000D02*
X119750000Y-49050000D01*
X119750000Y-49050000D02*
X121850000Y-49050000D01*
X110450000Y-61450000D02*
X118300000Y-53600000D01*
X109900000Y-61450000D02*
X110450000Y-61450000D01*
%TO.N,/ESP32/ESP32_TX*%
X107100000Y-59750000D02*
X106560000Y-59210000D01*
X107100000Y-60400000D02*
X107100000Y-59750000D01*
X106560000Y-59210000D02*
X104350000Y-59210000D01*
%TO.N,/ESP32/ESP32_RX*%
X105520000Y-60480000D02*
X104350000Y-60480000D01*
X106000000Y-60000000D02*
X105520000Y-60480000D01*
%TO.N,Net-(U6-GPIO7{slash}TOUCH7{slash}ADC1_CH6)*%
X102650000Y-54850000D02*
X103200000Y-55400000D01*
X103200000Y-55400000D02*
X104350000Y-55400000D01*
%TO.N,Net-(U6-GPIO8{slash}TOUCH8{slash}ADC1_CH7{slash}SUBSPICS1)*%
X106000000Y-61750000D02*
X104350000Y-61750000D01*
X107700000Y-61350000D02*
X106400000Y-61350000D01*
X110100000Y-58950000D02*
X107700000Y-61350000D01*
X106400000Y-61350000D02*
X106000000Y-61750000D01*
X110100000Y-58100000D02*
X110100000Y-58950000D01*
%TO.N,Net-(J7-CC1)*%
X97920000Y-53375000D02*
X97920000Y-51460000D01*
%TO.N,Net-(U6-GPIO20{slash}U1CTS{slash}ADC2_CH9{slash}CLK_OUT1{slash}USB_D+)*%
X96930000Y-54500000D02*
X96930000Y-60080000D01*
X95930000Y-53375000D02*
X95930000Y-54260000D01*
X96930000Y-60080000D02*
X100650000Y-63800000D01*
X95930000Y-54260000D02*
X96170000Y-54500000D01*
X96170000Y-54500000D02*
X96930000Y-54500000D01*
X103290000Y-64290000D02*
X104350000Y-64290000D01*
X102800000Y-63800000D02*
X103290000Y-64290000D01*
X100650000Y-63800000D02*
X102800000Y-63800000D01*
X96930000Y-53375000D02*
X96930000Y-54500000D01*
%TO.N,Net-(U6-GPIO19{slash}U1RTS{slash}ADC2_CH8{slash}CLK_OUT2{slash}USB_D-)*%
X100820000Y-63390000D02*
X102935000Y-63390000D01*
X102935000Y-63390000D02*
X103305000Y-63020000D01*
X97160000Y-52100000D02*
X96660000Y-52100000D01*
X97420000Y-53375000D02*
X97420000Y-52360000D01*
X97420000Y-52360000D02*
X97160000Y-52100000D01*
X97420000Y-59990000D02*
X100820000Y-63390000D01*
X96660000Y-52100000D02*
X96420000Y-52340000D01*
X96420000Y-52340000D02*
X96420000Y-53375000D01*
X97420000Y-53375000D02*
X97420000Y-59990000D01*
X103305000Y-63020000D02*
X104350000Y-63020000D01*
%TO.N,Net-(J7-CC2)*%
X94920000Y-53375000D02*
X94920000Y-51560000D01*
%TO.N,/Power/PMB_ALRT*%
X59075000Y-89265000D02*
X59075000Y-84225000D01*
X58150000Y-74250000D02*
X58150000Y-74975000D01*
X58150000Y-74975000D02*
X57245199Y-75879801D01*
X59075000Y-84225000D02*
X57975000Y-83125000D01*
X56990000Y-91350000D02*
X59075000Y-89265000D01*
X57245199Y-75879801D02*
X57245199Y-76145199D01*
%TO.N,Net-(U6-GPIO9{slash}TOUCH9{slash}ADC1_CH8{slash}FSPIHD{slash}SUBSPIHD)*%
X111400000Y-58800000D02*
X107900000Y-62300000D01*
X108655000Y-64305000D02*
X108655000Y-65540000D01*
X107900000Y-63550000D02*
X108655000Y-64305000D01*
X107900000Y-62300000D02*
X107900000Y-63550000D01*
X111400000Y-58147600D02*
X111400000Y-58800000D01*
%TO.N,Net-(U18-CLKO)*%
X115790000Y-126220000D02*
X111004000Y-126220000D01*
X111004000Y-126220000D02*
X110998000Y-126214000D01*
%TO.N,Net-(U12-INV_CLKO)*%
X80894000Y-94978000D02*
X82579343Y-94978000D01*
X82579343Y-94978000D02*
X84625000Y-92932343D01*
X84625000Y-92932343D02*
X84625000Y-92875000D01*
%TO.N,Net-(U12-CLKO)*%
X73386000Y-96986000D02*
X75062000Y-96986000D01*
X71950000Y-95550000D02*
X73386000Y-96986000D01*
%TO.N,Net-(U18-INV_CLKO)*%
X112358000Y-123202000D02*
X115306800Y-120253200D01*
X110957000Y-123202000D02*
X112358000Y-123202000D01*
X116600000Y-119282343D02*
X116600000Y-117600000D01*
X115306800Y-120253200D02*
X115629143Y-120253200D01*
X115629143Y-120253200D02*
X116600000Y-119282343D01*
%TO.N,Net-(U25-INV_CLKO)*%
X110998000Y-150932000D02*
X112978000Y-150932000D01*
X116100000Y-147810000D02*
X116100000Y-146600000D01*
X112978000Y-150932000D02*
X116100000Y-147810000D01*
%TO.N,Net-(U6-GPIO12{slash}TOUCH12{slash}ADC2_CH1{slash}FSPICLK{slash}FSPIIO6{slash}SUBSPICLK)*%
X112465000Y-64615000D02*
X112465000Y-65540000D01*
X111800000Y-63950000D02*
X112465000Y-64615000D01*
X110250000Y-63950000D02*
X111800000Y-63950000D01*
%TO.N,Net-(U6-GPIO14{slash}TOUCH14{slash}ADC2_CH3{slash}FSPIWP{slash}FSPIDQS{slash}SUBSPIWP)*%
X109600000Y-62500000D02*
X109800000Y-62700000D01*
X112850000Y-62700000D02*
X115005000Y-64855000D01*
X115005000Y-64855000D02*
X115005000Y-65540000D01*
X109800000Y-62700000D02*
X112850000Y-62700000D01*
%TO.N,Net-(U6-SPIIO6{slash}GPIO35{slash}FSPID{slash}SUBSPID)*%
X123500000Y-62500000D02*
X123500000Y-62448100D01*
X121850000Y-63020000D02*
X122980000Y-63020000D01*
X122980000Y-63020000D02*
X123500000Y-62500000D01*
%TO.N,Net-(U6-SPIIO7{slash}GPIO36{slash}FSPICLK{slash}SUBSPICLK)*%
X121850000Y-61750000D02*
X123050000Y-61750000D01*
X123050000Y-61750000D02*
X123500000Y-61300000D01*
%TO.N,Net-(U6-SPIDQS{slash}GPIO37{slash}FSPIQ{slash}SUBSPIQ)*%
X123020000Y-60480000D02*
X123500000Y-60000000D01*
X121850000Y-60480000D02*
X123020000Y-60480000D01*
%TO.N,Net-(U6-GPIO38{slash}FSPIWP{slash}SUBSPIWP)*%
X122990000Y-59210000D02*
X123500000Y-58700000D01*
X121850000Y-59210000D02*
X122990000Y-59210000D01*
D63*
%TO.N,Net-(J7-VBUS-PadA4)*%
X95300000Y-55000000D02*
X94320000Y-55000000D01*
X94320000Y-55000000D02*
X94270000Y-54950000D01*
X94270000Y-54950000D02*
X94270000Y-53420000D01*
X98450000Y-55000000D02*
X99070000Y-54380000D01*
X94320000Y-55000000D02*
X94320000Y-55730000D01*
X99070000Y-54380000D02*
X99070000Y-53420000D01*
X94320000Y-55730000D02*
X93300000Y-56750000D01*
D61*
%TO.N,Net-(U13-VDD3_1)*%
X71100000Y-129700000D02*
X71850000Y-129700000D01*
X72826000Y-128724000D02*
X75062000Y-128724000D01*
X71850000Y-129700000D02*
X72826000Y-128724000D01*
%TO.N,Net-(U13-VDD2_1)*%
X72478000Y-128222000D02*
X75062000Y-128222000D01*
X71100000Y-128600000D02*
X72100000Y-128600000D01*
X72100000Y-128600000D02*
X72478000Y-128222000D01*
%TO.N,Net-(U13-VDD1_1)*%
X71090000Y-127590000D02*
X71220000Y-127720000D01*
X71220000Y-127720000D02*
X75062000Y-127720000D01*
%TO.N,Net-(U3-MSEL1)*%
X53850000Y-68675000D02*
X53885000Y-68710000D01*
X53885000Y-68710000D02*
X55635000Y-68710000D01*
X55635000Y-68710000D02*
X55650000Y-68725000D01*
X55650000Y-68725000D02*
X55650000Y-69250000D01*
D64*
%TO.N,Net-(U3-BOOT)*%
X56940000Y-77300000D02*
X56475000Y-77300000D01*
X58650000Y-74250000D02*
X58650000Y-75590000D01*
X58650000Y-75590000D02*
X56940000Y-77300000D01*
D61*
%TO.N,/ESP32/VDD_SAMPLE*%
X123380000Y-50320000D02*
X123800000Y-49900000D01*
X121850000Y-50320000D02*
X123380000Y-50320000D01*
D62*
%TO.N,/Power/SW*%
X60650000Y-74250000D02*
X60650000Y-75125000D01*
X59650000Y-74250000D02*
X59650000Y-75125000D01*
D61*
X58925000Y-77300000D02*
X58850000Y-77300000D01*
X56475000Y-78450000D02*
X56475000Y-79200000D01*
D62*
X61150000Y-74250000D02*
X61150000Y-75125000D01*
D61*
X58575000Y-77975000D02*
X58325000Y-78225000D01*
X58325000Y-78225000D02*
X56700000Y-78225000D01*
X58575000Y-77300000D02*
X58575000Y-77975000D01*
D62*
X59150000Y-74250000D02*
X59150000Y-75125000D01*
D61*
X56700000Y-78225000D02*
X56475000Y-78450000D01*
D62*
X60150000Y-74250000D02*
X60150000Y-75125000D01*
D61*
%TO.N,Net-(U3-MSEL2)*%
X56921800Y-68165234D02*
X56921800Y-68183892D01*
X54750000Y-66475000D02*
X54825000Y-66550000D01*
X56921800Y-68183892D02*
X57150000Y-68412092D01*
X57150000Y-68412092D02*
X57150000Y-69250000D01*
X54825000Y-66550000D02*
X55306566Y-66550000D01*
X55306566Y-66550000D02*
X56921800Y-68165234D01*
D64*
%TO.N,/Power/AGND*%
X54540000Y-63260000D02*
X54550000Y-63250000D01*
X54540000Y-64225000D02*
X54540000Y-63260000D01*
D62*
X54900000Y-72000000D02*
X53700000Y-72000000D01*
D61*
X54535000Y-65500000D02*
X54535000Y-64230000D01*
%TO.N,/Power/PMB_SCL*%
X55740000Y-75660000D02*
X56650000Y-74750000D01*
X56650000Y-74750000D02*
X56650000Y-74250000D01*
X54250718Y-76926555D02*
X54250718Y-76769282D01*
X54250718Y-76769282D02*
X55360000Y-75660000D01*
X55360000Y-75660000D02*
X55740000Y-75660000D01*
%TO.N,/Power/PMB_SDA*%
X56990000Y-88810000D02*
X56325000Y-88145000D01*
X54275000Y-75975000D02*
X54994189Y-75255811D01*
X54225000Y-75975000D02*
X54275000Y-75975000D01*
X55564189Y-75255811D02*
X56150000Y-74670000D01*
X56325000Y-88145000D02*
X56325000Y-85675000D01*
X56150000Y-74670000D02*
X56150000Y-74250000D01*
X54994189Y-75255811D02*
X55564189Y-75255811D01*
%TO.N,/SMB_ALRT*%
X81960000Y-86700000D02*
X84590000Y-84070000D01*
X65325000Y-87325000D02*
X65950000Y-86700000D01*
X63600000Y-91175000D02*
X64825000Y-91175000D01*
X93550000Y-79500000D02*
X94950000Y-78100000D01*
X85325000Y-79500000D02*
X93550000Y-79500000D01*
X65325000Y-90675000D02*
X65325000Y-87325000D01*
X112250000Y-63200000D02*
X113735000Y-64685000D01*
X94950000Y-78100000D02*
X94950000Y-74950000D01*
X84590000Y-80235000D02*
X85325000Y-79500000D01*
X84590000Y-84070000D02*
X84590000Y-80235000D01*
X108700000Y-63200000D02*
X112250000Y-63200000D01*
X65950000Y-86700000D02*
X81960000Y-86700000D01*
X113735000Y-64685000D02*
X113735000Y-65540000D01*
X64825000Y-91175000D02*
X65325000Y-90675000D01*
X94950000Y-74950000D02*
X97550000Y-72350000D01*
%TO.N,Net-(U28-VDD1_0)*%
X114925000Y-99875000D02*
X114546000Y-99496000D01*
X114546000Y-99496000D02*
X110998000Y-99496000D01*
%TO.N,Net-(U28-VDD2_0)*%
X112923000Y-99998000D02*
X110998000Y-99998000D01*
X113800000Y-100875000D02*
X112923000Y-99998000D01*
%TO.N,Net-(U28-VDD3_0)*%
X113800000Y-101875000D02*
X112425000Y-100500000D01*
X113800000Y-102600000D02*
X113800000Y-101875000D01*
X112425000Y-100500000D02*
X110998000Y-100500000D01*
%TO.N,/BM1368-1/VDD1*%
X74250000Y-122950000D02*
X74250000Y-122750000D01*
X84325000Y-119200000D02*
X84325000Y-120675000D01*
X83690000Y-127820000D02*
X83088000Y-127218000D01*
X74250000Y-122750000D02*
X74300000Y-122700000D01*
X82300000Y-122700000D02*
X80894000Y-122700000D01*
X103775000Y-122750000D02*
X103800000Y-122750000D01*
X100925000Y-119900000D02*
X103775000Y-122750000D01*
X84325000Y-120675000D02*
X82300000Y-122700000D01*
X112130000Y-122700000D02*
X110998000Y-122700000D01*
X115130000Y-119700000D02*
X112130000Y-122700000D01*
X103800000Y-122750000D02*
X103860000Y-122690000D01*
X74502000Y-123202000D02*
X74250000Y-122950000D01*
X72458000Y-127218000D02*
X75062000Y-127218000D01*
X104002000Y-123202000D02*
X105166000Y-123202000D01*
X103800000Y-123000000D02*
X104002000Y-123202000D01*
X83910000Y-127820000D02*
X83690000Y-127820000D01*
X71590000Y-126350000D02*
X72458000Y-127218000D01*
X115400000Y-119700000D02*
X115130000Y-119700000D01*
X71100000Y-126350000D02*
X71590000Y-126350000D01*
X100700000Y-119900000D02*
X100925000Y-119900000D01*
X71100000Y-120050000D02*
X71300000Y-120050000D01*
X71300000Y-120050000D02*
X74000000Y-122750000D01*
X74000000Y-122750000D02*
X74250000Y-122750000D01*
X103860000Y-122690000D02*
X105156000Y-122690000D01*
X101682000Y-127218000D02*
X105166000Y-127218000D01*
X105156000Y-122690000D02*
X105166000Y-122700000D01*
X114818000Y-127218000D02*
X110998000Y-127218000D01*
X84220000Y-127510000D02*
X83910000Y-127820000D01*
X75062000Y-123202000D02*
X74502000Y-123202000D01*
D63*
X101350000Y-117075000D02*
X102875000Y-117075000D01*
D61*
X74300000Y-122700000D02*
X75062000Y-122700000D01*
X83088000Y-127218000D02*
X80894000Y-127218000D01*
X103800000Y-122750000D02*
X103800000Y-123000000D01*
X101430000Y-127470000D02*
X101682000Y-127218000D01*
X84700000Y-118825000D02*
X84325000Y-119200000D01*
X115900000Y-128300000D02*
X114818000Y-127218000D01*
%TO.N,/BM1368-2/0V8*%
X111902000Y-122198000D02*
X114200000Y-119900000D01*
X74200000Y-122200000D02*
X75034000Y-122200000D01*
X82102000Y-122198000D02*
X80894000Y-122198000D01*
X110998000Y-122198000D02*
X111902000Y-122198000D01*
X72300000Y-120300000D02*
X74200000Y-122200000D01*
X83575000Y-120350000D02*
X83575000Y-120725000D01*
X101900000Y-119900000D02*
X101900000Y-120075000D01*
X104023000Y-122198000D02*
X105166000Y-122198000D01*
X101900000Y-120075000D02*
X104023000Y-122198000D01*
X72300000Y-120000000D02*
X72300000Y-120300000D01*
X83575000Y-120725000D02*
X82102000Y-122198000D01*
X114200000Y-119900000D02*
X114200000Y-119700000D01*
%TO.N,/BM1368-2/VDD2*%
X70900000Y-156700000D02*
X72652000Y-154948000D01*
X62225000Y-104650000D02*
X62825000Y-104050000D01*
D63*
X70250000Y-132000000D02*
X69200000Y-130950000D01*
D61*
X110998000Y-150430000D02*
X112870000Y-150430000D01*
X103230000Y-150430000D02*
X100600000Y-147800000D01*
D63*
X73175000Y-132050000D02*
X73125000Y-132000000D01*
D61*
X70700000Y-148050000D02*
X70700000Y-148000000D01*
X103152000Y-154948000D02*
X105166000Y-154948000D01*
X111000000Y-154950000D02*
X114730000Y-154950000D01*
D63*
X69200000Y-126150000D02*
X64025000Y-120975000D01*
D61*
X62225000Y-110600000D02*
X62225000Y-104650000D01*
X114730000Y-154950000D02*
X115920000Y-156140000D01*
D63*
X64025000Y-112400000D02*
X63425000Y-111800000D01*
X64025000Y-120975000D02*
X64025000Y-118700000D01*
D61*
X70200000Y-156700000D02*
X70900000Y-156700000D01*
X100800000Y-156400000D02*
X101700000Y-156400000D01*
X82570000Y-150430000D02*
X84500000Y-148500000D01*
X72652000Y-154948000D02*
X75062000Y-154948000D01*
X112870000Y-150430000D02*
X115200000Y-148100000D01*
D63*
X64025000Y-118700000D02*
X64025000Y-112400000D01*
X73125000Y-132000000D02*
X70250000Y-132000000D01*
D61*
X80894000Y-154948000D02*
X82448000Y-154948000D01*
X84500000Y-148500000D02*
X84800000Y-148500000D01*
X80894000Y-150430000D02*
X82570000Y-150430000D01*
X63425000Y-111800000D02*
X62225000Y-110600000D01*
X110998000Y-154948000D02*
X111000000Y-154950000D01*
X115200000Y-148100000D02*
X115200000Y-147700000D01*
X73080000Y-150430000D02*
X70700000Y-148050000D01*
X82448000Y-154948000D02*
X84600000Y-157100000D01*
X101700000Y-156400000D02*
X103152000Y-154948000D01*
X75062000Y-150430000D02*
X73080000Y-150430000D01*
D63*
X69200000Y-130950000D02*
X69200000Y-126150000D01*
D61*
X105166000Y-150430000D02*
X103230000Y-150430000D01*
X84600000Y-157100000D02*
X84800000Y-157100000D01*
%TO.N,Net-(U13-VDD3_0)*%
X85325000Y-130950000D02*
X84250000Y-130950000D01*
X101050000Y-131000000D02*
X103326000Y-128724000D01*
X103326000Y-128724000D02*
X105166000Y-128724000D01*
X100825000Y-131000000D02*
X101050000Y-131000000D01*
X84250000Y-130950000D02*
X82024000Y-128724000D01*
X82024000Y-128724000D02*
X80894000Y-128724000D01*
%TO.N,Net-(U13-VDD2_0)*%
X100825000Y-129875000D02*
X101325000Y-129875000D01*
X102978000Y-128222000D02*
X105166000Y-128222000D01*
X85400000Y-129400000D02*
X83780000Y-129400000D01*
X82602000Y-128222000D02*
X80894000Y-128222000D01*
X83780000Y-129400000D02*
X82602000Y-128222000D01*
X101325000Y-129875000D02*
X102978000Y-128222000D01*
%TO.N,Net-(U13-VDD1_0)*%
X83550000Y-128350000D02*
X82920000Y-127720000D01*
X101498368Y-128800000D02*
X102578368Y-127720000D01*
X100875000Y-128800000D02*
X101498368Y-128800000D01*
X82920000Y-127720000D02*
X80894000Y-127720000D01*
X85400000Y-128350000D02*
X83550000Y-128350000D01*
X102578368Y-127720000D02*
X105166000Y-127720000D01*
%TO.N,Net-(U25-VDD1_0)*%
X110998000Y-155450000D02*
X113850000Y-155450000D01*
X113850000Y-155450000D02*
X114600000Y-156200000D01*
%TO.N,Net-(U25-VDD2_0)*%
X113152000Y-155952000D02*
X114600000Y-157400000D01*
X110998000Y-155952000D02*
X113152000Y-155952000D01*
%TO.N,/BM1368-3/0V8*%
X103928000Y-149928000D02*
X101900000Y-147900000D01*
X110998000Y-149928000D02*
X112372000Y-149928000D01*
X114000000Y-148300000D02*
X114000000Y-147700000D01*
X71600000Y-147650000D02*
X71600000Y-148000000D01*
X73528000Y-149928000D02*
X75062000Y-149928000D01*
X82172000Y-149928000D02*
X80894000Y-149928000D01*
X70725000Y-146800000D02*
X70750000Y-146800000D01*
X112372000Y-149928000D02*
X114000000Y-148300000D01*
X105166000Y-149928000D02*
X103928000Y-149928000D01*
X84800000Y-147300000D02*
X82172000Y-149928000D01*
X71600000Y-148000000D02*
X73528000Y-149928000D01*
X70750000Y-146800000D02*
X71600000Y-147650000D01*
X101900000Y-147900000D02*
X101900000Y-147800000D01*
%TO.N,Net-(U25-VDD3_0)*%
X112374000Y-156454000D02*
X114620000Y-158700000D01*
X110998000Y-156454000D02*
X112374000Y-156454000D01*
%TO.N,Net-(U27-VDD3_1)*%
X74346000Y-156454000D02*
X75062000Y-156454000D01*
X72400000Y-158400000D02*
X74346000Y-156454000D01*
X72400000Y-158600000D02*
X72400000Y-158400000D01*
%TO.N,Net-(U27-VDD2_1)*%
X75062000Y-155952000D02*
X73948000Y-155952000D01*
X73948000Y-155952000D02*
X71300000Y-158600000D01*
%TO.N,Net-(U27-VDD1_1)*%
X75062000Y-155450000D02*
X73350000Y-155450000D01*
X73350000Y-155450000D02*
X71300000Y-157500000D01*
%TO.N,/BM1368-1/TEMP_N1*%
X67100000Y-135422805D02*
X67030089Y-135352894D01*
X101620000Y-93650000D02*
X103952000Y-95982000D01*
X66110000Y-163080000D02*
X67100000Y-162090000D01*
X67100000Y-162090000D02*
X67100000Y-135422805D01*
X103952000Y-95982000D02*
X105166000Y-95982000D01*
%TO.N,/BM1368-1/TEMP_P1*%
X67680000Y-134960000D02*
X67410000Y-134690000D01*
X67680000Y-162490000D02*
X67680000Y-134960000D01*
X67410000Y-134690000D02*
X67020000Y-134690000D01*
X67020000Y-134690000D02*
X67010000Y-134700000D01*
X67260000Y-162910000D02*
X67680000Y-162490000D01*
X104196120Y-95480000D02*
X105166000Y-95480000D01*
X103130000Y-94413880D02*
X104196120Y-95480000D01*
X103150000Y-93990000D02*
X103130000Y-94010000D01*
X103130000Y-94010000D02*
X103130000Y-94413880D01*
%TO.N,/BM1368-1/TEMP_P2*%
X67040000Y-91590000D02*
X67040000Y-92640000D01*
X68100000Y-90530000D02*
X71570000Y-90530000D01*
X70550000Y-119170000D02*
X70546800Y-119173200D01*
X70546800Y-119173200D02*
X70546800Y-122783200D01*
X74195457Y-95480000D02*
X75062000Y-95480000D01*
X67040000Y-91590000D02*
X68100000Y-90530000D01*
X70546800Y-122783200D02*
X70530000Y-122800000D01*
X71570000Y-90530000D02*
X71570000Y-92854543D01*
X71570000Y-92854543D02*
X74195457Y-95480000D01*
%TO.N,/BM1368-1/TEMP_N2*%
X68420000Y-94090000D02*
X72054210Y-94090000D01*
X73946210Y-95982000D02*
X75062000Y-95982000D01*
X67870000Y-91650000D02*
X67870000Y-93540000D01*
X72054210Y-94090000D02*
X73946210Y-95982000D01*
X67870000Y-93540000D02*
X68420000Y-94090000D01*
%TO.N,/BM1368-2/TEMP_P3*%
X71680000Y-135290000D02*
X71680000Y-137280000D01*
X71779790Y-121100000D02*
X71603012Y-121100000D01*
X72190000Y-131370000D02*
X73300000Y-130260000D01*
X71603012Y-121100000D02*
X71566506Y-121063494D01*
X71680000Y-137280000D02*
X71720000Y-137320000D01*
X71779790Y-121100000D02*
X74383790Y-123704000D01*
X71490000Y-131370000D02*
X72190000Y-131370000D01*
X74383790Y-123704000D02*
X75038000Y-123704000D01*
%TO.N,/BM1368-2/TEMP_N3*%
X70520000Y-131290000D02*
X70810000Y-131290000D01*
X75062000Y-124206000D02*
X74116000Y-124206000D01*
X70810000Y-131290000D02*
X71996800Y-130103200D01*
X70330000Y-137920000D02*
X70350000Y-137940000D01*
X71996800Y-130103200D02*
X72394963Y-130103200D01*
X70330000Y-135200000D02*
X70330000Y-137920000D01*
X72394963Y-130103200D02*
X73245963Y-129252200D01*
X74116000Y-124206000D02*
X72550000Y-122640000D01*
%TO.N,/BM1368-2/TEMP_P4*%
X105166000Y-123704000D02*
X103933790Y-123704000D01*
X101157395Y-121022605D02*
X101150000Y-121030000D01*
X101000000Y-121030000D02*
X99990000Y-122040000D01*
X103933790Y-123704000D02*
X101252395Y-121022605D01*
X101252395Y-121022605D02*
X101157395Y-121022605D01*
X101150000Y-121030000D02*
X101000000Y-121030000D01*
%TO.N,/BM1368-2/TEMP_N4*%
X100410000Y-123660000D02*
X100070000Y-123320000D01*
X100070000Y-123320000D02*
X100070000Y-123070000D01*
X71710000Y-139230000D02*
X71730000Y-139250000D01*
X102450420Y-123660000D02*
X100410000Y-123660000D01*
X102996420Y-124206000D02*
X102450420Y-123660000D01*
X71710000Y-138050000D02*
X71710000Y-139230000D01*
X105166000Y-124206000D02*
X102996420Y-124206000D01*
%TO.N,/BM1368-3/TEMP_P5*%
X99298597Y-150040397D02*
X99190000Y-149931800D01*
X103474420Y-151434000D02*
X102080818Y-150040397D01*
X69540000Y-140460000D02*
X69010000Y-139930000D01*
X69540000Y-165350000D02*
X69540000Y-140460000D01*
X105166000Y-151434000D02*
X103474420Y-151434000D01*
X102080818Y-150040397D02*
X99298597Y-150040397D01*
%TO.N,/BM1368-3/TEMP_N5*%
X68791212Y-140911212D02*
X68420000Y-140540000D01*
X98040000Y-150460000D02*
X98040000Y-150130000D01*
X68791212Y-165058788D02*
X68791212Y-140911212D01*
X98040000Y-150130000D02*
X98030000Y-150120000D01*
X100340000Y-150460000D02*
X98040000Y-150460000D01*
X103406210Y-151936000D02*
X101913807Y-150443597D01*
X105166000Y-151936000D02*
X103406210Y-151936000D01*
X68480000Y-165370000D02*
X68791212Y-165058788D01*
X101913807Y-150443597D02*
X100356403Y-150443597D01*
X100356403Y-150443597D02*
X100340000Y-150460000D01*
%TO.N,/BM1368-3/TEMP_N6*%
X73015790Y-151936000D02*
X70759790Y-149680000D01*
X75062000Y-151936000D02*
X73015790Y-151936000D01*
X70759790Y-149680000D02*
X70380000Y-149680000D01*
%TO.N,/BM1368-3/TEMP_P6*%
X73084000Y-151434000D02*
X70320000Y-148670000D01*
X75062000Y-151434000D02*
X73084000Y-151434000D01*
%TO.N,/BM1368-1/BI1*%
X116050000Y-97400000D02*
X115234989Y-97400000D01*
X113338901Y-96318901D02*
X113173802Y-96484000D01*
X115234989Y-97400000D02*
X114844000Y-97790989D01*
X113173802Y-96484000D02*
X110998000Y-96484000D01*
%TO.N,Net-(U12-NRSTI)*%
X84312500Y-98975000D02*
X83829500Y-98492000D01*
X102708000Y-98492000D02*
X105166000Y-98492000D01*
X84675000Y-98975000D02*
X84312500Y-98975000D01*
X101725000Y-98750000D02*
X102450000Y-98750000D01*
X102450000Y-98750000D02*
X102708000Y-98492000D01*
X83829500Y-98492000D02*
X80894000Y-98492000D01*
%TO.N,/BM1368-1/CO*%
X74269200Y-97891200D02*
X74368000Y-97990000D01*
X71882000Y-97790000D02*
X71983200Y-97891200D01*
X65200000Y-115500000D02*
X65200000Y-103950000D01*
X71983200Y-97891200D02*
X74269200Y-97891200D01*
X74368000Y-97990000D02*
X75062000Y-97990000D01*
X69088000Y-98044000D02*
X69342000Y-97790000D01*
X69342000Y-97790000D02*
X69342000Y-97853200D01*
X65200000Y-103950000D02*
X69088000Y-100062000D01*
X69088000Y-100062000D02*
X69088000Y-98044000D01*
%TO.N,/BM1368-2/CI2*%
X71199437Y-123646800D02*
X72306800Y-123646800D01*
X68500000Y-122490000D02*
X68500000Y-120947600D01*
X68610000Y-122600000D02*
X68500000Y-122490000D01*
X68500000Y-120947600D02*
X66300000Y-118747600D01*
X71074899Y-123522262D02*
X71199437Y-123646800D01*
X68610000Y-122760000D02*
X68610000Y-122600000D01*
X73870000Y-125210000D02*
X75062000Y-125210000D01*
X72306800Y-123646800D02*
X73870000Y-125210000D01*
%TO.N,/BM1368-1/NRSTO*%
X72633000Y-98492000D02*
X75062000Y-98492000D01*
X68300000Y-98500000D02*
X64275000Y-102525000D01*
X61350000Y-103850000D02*
X61350000Y-114450000D01*
X64275000Y-102525000D02*
X62675000Y-102525000D01*
X72000000Y-98500000D02*
X72625000Y-98500000D01*
X60675000Y-115125000D02*
X60675000Y-117700000D01*
X72625000Y-98500000D02*
X72633000Y-98492000D01*
X62675000Y-102525000D02*
X61350000Y-103850000D01*
X61350000Y-114450000D02*
X60675000Y-115125000D01*
%TO.N,/BM1368-2/NRSTI2*%
X59825000Y-114375000D02*
X60450000Y-113750000D01*
X72233600Y-123243600D02*
X72473810Y-123243600D01*
X71100000Y-122100000D02*
X71100000Y-122110000D01*
X59825000Y-118825000D02*
X59825000Y-114375000D01*
X59850000Y-118850000D02*
X59825000Y-118825000D01*
X73938210Y-124708000D02*
X75062000Y-124708000D01*
X71100000Y-122110000D02*
X72233600Y-123243600D01*
X72473810Y-123243600D02*
X73938210Y-124708000D01*
%TO.N,Net-(U13-NRSTO)*%
X102928210Y-124708000D02*
X105166000Y-124708000D01*
X83312000Y-124708000D02*
X85500000Y-122520000D01*
X100251590Y-124071800D02*
X102292010Y-124071800D01*
X99140000Y-122950000D02*
X99140000Y-122960210D01*
X80894000Y-124708000D02*
X83312000Y-124708000D01*
X99140000Y-122960210D02*
X100251590Y-124071800D01*
X102292010Y-124071800D02*
X102928210Y-124708000D01*
X85500000Y-122520000D02*
X85500000Y-122025000D01*
%TO.N,/BM1368-1/BO*%
X72390800Y-94996800D02*
X73878000Y-96484000D01*
X71373200Y-94996800D02*
X72390800Y-94996800D01*
X70612000Y-96266000D02*
X71120000Y-95758000D01*
X73878000Y-96484000D02*
X75062000Y-96484000D01*
X71120000Y-95250000D02*
X71373200Y-94996800D01*
X71120000Y-95758000D02*
X71120000Y-95250000D01*
%TO.N,/BM1368-2/BI2*%
X69130000Y-121910000D02*
X69138200Y-121918200D01*
X59100000Y-109550000D02*
X60450000Y-108200000D01*
X69138200Y-121918200D02*
X69138200Y-124198200D01*
X59100000Y-119400000D02*
X59100000Y-109550000D01*
X59850000Y-120150000D02*
X59100000Y-119400000D01*
X70550000Y-125610000D02*
X71740000Y-125610000D01*
X72846000Y-126716000D02*
X75062000Y-126716000D01*
X69138200Y-124198200D02*
X70550000Y-125610000D01*
X71740000Y-125610000D02*
X72846000Y-126716000D01*
%TO.N,/BM1368-2/RO2*%
X73792000Y-125712000D02*
X75062000Y-125712000D01*
X72280000Y-124200000D02*
X73792000Y-125712000D01*
X65350000Y-121050000D02*
X65350000Y-117500000D01*
X66975000Y-105725000D02*
X66225000Y-104975000D01*
X71100000Y-124200000D02*
X72280000Y-124200000D01*
X66975000Y-115875000D02*
X66975000Y-105725000D01*
X65800000Y-121500000D02*
X65350000Y-121050000D01*
X65350000Y-117500000D02*
X66975000Y-115875000D01*
%TO.N,/BM1368-1/RI*%
X73317790Y-97488000D02*
X72349790Y-96520000D01*
X75062000Y-97488000D02*
X73317790Y-97488000D01*
X70050000Y-103350000D02*
X69375000Y-104025000D01*
X71330000Y-96520000D02*
X70050000Y-97800000D01*
X70050000Y-97800000D02*
X70050000Y-103350000D01*
X72349790Y-96520000D02*
X71330000Y-96520000D01*
%TO.N,/BM1368-2/CO*%
X118800000Y-136600000D02*
X127600000Y-145400000D01*
X113690000Y-125210000D02*
X110998000Y-125210000D01*
X118800000Y-131400000D02*
X118800000Y-136600000D01*
X113934944Y-124965056D02*
X113690000Y-125210000D01*
X116640000Y-127243200D02*
X116640000Y-125100000D01*
X116505056Y-124965056D02*
X113934944Y-124965056D01*
X116640000Y-125100000D02*
X116505056Y-124965056D01*
%TO.N,/BM1368-3/CI3*%
X122310000Y-147900000D02*
X116266000Y-153944000D01*
X128600000Y-146100000D02*
X126800000Y-147900000D01*
X128600000Y-142620000D02*
X128600000Y-146100000D01*
X126800000Y-147900000D02*
X122310000Y-147900000D01*
X116266000Y-153944000D02*
X110998000Y-153944000D01*
X127680000Y-141700000D02*
X128600000Y-142620000D01*
%TO.N,/BM1368-2/NRSTO*%
X116000000Y-122300000D02*
X113592000Y-124708000D01*
X118100000Y-129850000D02*
X118100000Y-141500000D01*
X118100000Y-141500000D02*
X122000000Y-145400000D01*
X119100000Y-122300000D02*
X117300000Y-124100000D01*
X113592000Y-124708000D02*
X110998000Y-124708000D01*
X117300000Y-129050000D02*
X118100000Y-129850000D01*
X117300000Y-124100000D02*
X117300000Y-129050000D01*
%TO.N,/BM1368-3/NRSTI3*%
X111002000Y-154450000D02*
X110998000Y-154446000D01*
X115350000Y-154450000D02*
X111002000Y-154450000D01*
X115900000Y-155000000D02*
X115350000Y-154450000D01*
%TO.N,Net-(U25-NRSTO)*%
X84100000Y-155900000D02*
X82646000Y-154446000D01*
X100800000Y-155200000D02*
X102000000Y-155200000D01*
X84800000Y-155900000D02*
X84100000Y-155900000D01*
X102754000Y-154446000D02*
X105166000Y-154446000D01*
X82646000Y-154446000D02*
X80894000Y-154446000D01*
X102000000Y-155200000D02*
X102754000Y-154446000D01*
%TO.N,/BM1368-2/BO*%
X114759000Y-124189000D02*
X114808494Y-124238494D01*
X114926000Y-126716000D02*
X110998000Y-126716000D01*
X114751000Y-124189000D02*
X114759000Y-124189000D01*
X114970000Y-126760000D02*
X114926000Y-126716000D01*
X115340000Y-123600000D02*
X115910000Y-123600000D01*
X114751000Y-124189000D02*
X115340000Y-123600000D01*
X115270000Y-126760000D02*
X114970000Y-126760000D01*
%TO.N,/BM1368-3/BI3*%
X117100000Y-150820000D02*
X117200000Y-150720000D01*
X113991790Y-152438000D02*
X115609790Y-150820000D01*
X115609790Y-150820000D02*
X117100000Y-150820000D01*
X110998000Y-152438000D02*
X113991790Y-152438000D01*
%TO.N,/BM1368-3/RO3*%
X111000000Y-153440000D02*
X114560000Y-153440000D01*
X110998000Y-153442000D02*
X111000000Y-153440000D01*
X114560000Y-153440000D02*
X115400000Y-152600000D01*
%TO.N,/BM1368-2/RI*%
X118140000Y-126140000D02*
X122300000Y-130300000D01*
X115744726Y-125518256D02*
X115550982Y-125712000D01*
X122300000Y-130300000D02*
X127600000Y-130300000D01*
X115550982Y-125712000D02*
X110998000Y-125712000D01*
X118140000Y-125550000D02*
X118140000Y-126140000D01*
%TO.N,Net-(U28-LITE_PAD)*%
X111873800Y-95480000D02*
X110998000Y-95480000D01*
X111900000Y-95506200D02*
X111873800Y-95480000D01*
%TO.N,Net-(U12-LITE_PAD)*%
X83537166Y-94747166D02*
X83557165Y-94747166D01*
X80894000Y-95480000D02*
X82790000Y-95480000D01*
X83530000Y-94740000D02*
X83537166Y-94747166D01*
X82790000Y-95480000D02*
X83530000Y-94740000D01*
%TO.N,Net-(U13-LITE_PAD)*%
X80894000Y-123704000D02*
X82756000Y-123704000D01*
X82756000Y-123704000D02*
X82790000Y-123670000D01*
%TO.N,Net-(U18-LITE_PAD)*%
X110998000Y-123704000D02*
X112570003Y-123704000D01*
X112570003Y-123704000D02*
X112605237Y-123668766D01*
%TO.N,Net-(U27-LITE_PAD)*%
X80894000Y-151434000D02*
X82873800Y-151434000D01*
X82873800Y-151434000D02*
X82900000Y-151407800D01*
%TO.N,Net-(U25-LITE_PAD)*%
X113226000Y-151434000D02*
X113340000Y-151320000D01*
X110998000Y-151434000D02*
X113226000Y-151434000D01*
%TO.N,/ESP32/ALERT_TEMP*%
X56803200Y-106036800D02*
X60290000Y-102550000D01*
X56010000Y-136660002D02*
X56700000Y-135970002D01*
X66070000Y-90590000D02*
X66270000Y-90390000D01*
X65560000Y-92700000D02*
X65560000Y-91100000D01*
X66270000Y-87590000D02*
X66480000Y-87380000D01*
X65560000Y-91100000D02*
X66070000Y-90590000D01*
X56700000Y-111842657D02*
X56803200Y-111739457D01*
X63220000Y-100380000D02*
X65560000Y-98040000D01*
X66480000Y-87380000D02*
X66550000Y-87380000D01*
X56700000Y-135970002D02*
X56700000Y-111842657D01*
X65560000Y-98040000D02*
X65560000Y-92700000D01*
X60290000Y-102550000D02*
X62460000Y-100380000D01*
X103190000Y-51590000D02*
X104350000Y-51590000D01*
X66270000Y-90390000D02*
X66270000Y-87590000D01*
X62460000Y-100380000D02*
X63220000Y-100380000D01*
X56803200Y-111739457D02*
X56803200Y-106036800D01*
X102650000Y-51050000D02*
X103190000Y-51590000D01*
%TO.N,/ESP32/OVERT_TEMP*%
X66490000Y-97530000D02*
X66511800Y-97508200D01*
X57440000Y-126344324D02*
X57510000Y-126274324D01*
X104753200Y-52940000D02*
X104753200Y-52860000D01*
X107190000Y-52940000D02*
X104753200Y-52940000D01*
X57440000Y-137040002D02*
X57440000Y-126344324D01*
X57510000Y-126274324D02*
X57510000Y-112578200D01*
X57853200Y-112254143D02*
X57853200Y-106076800D01*
X68150000Y-89310000D02*
X70180000Y-87280000D01*
X60460000Y-103470000D02*
X60870000Y-103470000D01*
X107520000Y-53270000D02*
X107190000Y-52940000D01*
X57510000Y-112578200D02*
X57529143Y-112578200D01*
X57529143Y-112578200D02*
X57853200Y-112254143D01*
X66511800Y-90948200D02*
X68150000Y-89310000D01*
X70180000Y-87280000D02*
X70180000Y-87270000D01*
X60870000Y-103470000D02*
X66490000Y-97850000D01*
X103310000Y-52860000D02*
X102650000Y-52200000D01*
X104350000Y-52860000D02*
X103310000Y-52860000D01*
X56520000Y-137960002D02*
X57440000Y-137040002D01*
X57853200Y-106076800D02*
X60460000Y-103470000D01*
X66490000Y-97850000D02*
X66490000Y-97530000D01*
X66511800Y-97508200D02*
X66511800Y-90948200D01*
%TO.N,Net-(U28-ROSC_SEL)*%
X114050000Y-94860814D02*
X112830014Y-96080800D01*
X112830014Y-96080800D02*
X111499256Y-96080800D01*
X114050000Y-93050000D02*
X114050000Y-94860814D01*
X111499256Y-96080800D02*
X111400456Y-95982000D01*
X114025000Y-93025000D02*
X114050000Y-93050000D01*
X111400456Y-95982000D02*
X110998000Y-95982000D01*
%TO.N,Net-(U28-INV_CLKO)*%
X113275000Y-92400000D02*
X113275000Y-94215000D01*
X113275000Y-94215000D02*
X112512000Y-94978000D01*
X113725000Y-91950000D02*
X113275000Y-92400000D01*
X112512000Y-94978000D02*
X110998000Y-94978000D01*
%TO.N,Net-(U12-ROSC_SEL)*%
X85200000Y-93875000D02*
X83093000Y-95982000D01*
X83093000Y-95982000D02*
X80894000Y-95982000D01*
%TO.N,Net-(U18-ROSC_SEL)*%
X110998000Y-124206000D02*
X113304000Y-124206000D01*
X117800000Y-119710000D02*
X117800000Y-118700000D01*
X113304000Y-124206000D02*
X117800000Y-119710000D01*
%TO.N,Net-(U13-ROSC_SEL)*%
X83124000Y-124206000D02*
X80894000Y-124206000D01*
X84946800Y-122383200D02*
X83124000Y-124206000D01*
X85500000Y-120875000D02*
X84946800Y-121428200D01*
X84946800Y-121428200D02*
X84946800Y-122383200D01*
%TO.N,Net-(U25-ROSC_SEL)*%
X113564000Y-151936000D02*
X116800000Y-148700000D01*
X110998000Y-151936000D02*
X113564000Y-151936000D01*
X116800000Y-148700000D02*
X116800000Y-147600000D01*
%TO.N,Net-(U27-ROSC_SEL)*%
X84800000Y-150700000D02*
X84540000Y-150700000D01*
X83304000Y-151936000D02*
X80894000Y-151936000D01*
X84540000Y-150700000D02*
X83304000Y-151936000D01*
%TO.N,Net-(U27-INV_CLKO)*%
X84800000Y-149600000D02*
X83970210Y-149600000D01*
X82638210Y-150932000D02*
X80894000Y-150932000D01*
X83970210Y-149600000D02*
X82638210Y-150932000D01*
%TO.N,/BM1368-3/NRSTO3*%
X71954000Y-154446000D02*
X70700000Y-155700000D01*
X75062000Y-154446000D02*
X71954000Y-154446000D01*
%TO.N,/BM1368-3/BO3*%
X71260000Y-153940000D02*
X70700000Y-154500000D01*
X75058000Y-153940000D02*
X71260000Y-153940000D01*
X75062000Y-153944000D02*
X75058000Y-153940000D01*
%TO.N,/BM1368-3/RI3*%
X70610000Y-153200000D02*
X70852000Y-153442000D01*
X70852000Y-153442000D02*
X75062000Y-153442000D01*
%TO.N,/BM1368-3/CLKO3*%
X71740000Y-152940000D02*
X70700000Y-151900000D01*
X75062000Y-152940000D02*
X71740000Y-152940000D01*
%TO.N,/BM1368-3/CO3*%
X72538000Y-152438000D02*
X70700000Y-150600000D01*
X75062000Y-152438000D02*
X72538000Y-152438000D01*
%TO.N,Net-(U12-BI)*%
X84066000Y-96484000D02*
X80894000Y-96484000D01*
X102100000Y-95225000D02*
X103359000Y-96484000D01*
X101725000Y-95225000D02*
X102100000Y-95225000D01*
X103359000Y-96484000D02*
X105166000Y-96484000D01*
X84650000Y-95900000D02*
X84066000Y-96484000D01*
%TO.N,Net-(U12-CLKI)*%
X84675000Y-96665000D02*
X84350000Y-96990000D01*
X102306000Y-96986000D02*
X105166000Y-96986000D01*
X101725000Y-96400000D02*
X101725000Y-96405000D01*
X80898000Y-96990000D02*
X80894000Y-96986000D01*
X101725000Y-96405000D02*
X102306000Y-96986000D01*
X84350000Y-96990000D02*
X80898000Y-96990000D01*
%TO.N,Net-(U12-RO)*%
X80912000Y-97470000D02*
X80894000Y-97488000D01*
X84650000Y-97470000D02*
X80912000Y-97470000D01*
X101790500Y-97488000D02*
X105166000Y-97488000D01*
X84660000Y-97480000D02*
X84650000Y-97470000D01*
X101622500Y-97320000D02*
X101790500Y-97488000D01*
%TO.N,Net-(U12-CI)*%
X80894000Y-97990000D02*
X80904000Y-97980000D01*
X84587657Y-98190000D02*
X84650000Y-98190000D01*
X80904000Y-97980000D02*
X84377657Y-97980000D01*
X101910000Y-97990000D02*
X105166000Y-97990000D01*
X84377657Y-97980000D02*
X84587657Y-98190000D01*
X101580000Y-98000000D02*
X101900000Y-98000000D01*
X101900000Y-98000000D02*
X101910000Y-97990000D01*
%TO.N,/BM1368-2/CLKI2*%
X73094000Y-126214000D02*
X71930000Y-125050000D01*
X69810000Y-124110000D02*
X69810000Y-115590000D01*
X71930000Y-125050000D02*
X70750000Y-125050000D01*
X70750000Y-125050000D02*
X69810000Y-124110000D01*
X75062000Y-126214000D02*
X73094000Y-126214000D01*
X69810000Y-115590000D02*
X71550000Y-113850000D01*
%TO.N,Net-(U13-BO)*%
X101275588Y-126757000D02*
X100835788Y-127196800D01*
X80894000Y-126716000D02*
X80900000Y-126710000D01*
X102833000Y-126757000D02*
X101275588Y-126757000D01*
X85260251Y-126897594D02*
X85336289Y-126897594D01*
X102833000Y-126757000D02*
X105084000Y-126757000D01*
X100010000Y-127210000D02*
X100023200Y-127196800D01*
X100835788Y-127196800D02*
X100453200Y-127196800D01*
X100023200Y-127196800D02*
X100540000Y-127196800D01*
X80900000Y-126710000D02*
X85072657Y-126710000D01*
X85072657Y-126710000D02*
X85260251Y-126897594D01*
%TO.N,Net-(U13-RI)*%
X83738000Y-125712000D02*
X80894000Y-125712000D01*
X84300000Y-125150000D02*
X83738000Y-125712000D01*
X100850000Y-125710000D02*
X105164000Y-125710000D01*
X100840000Y-125720000D02*
X100850000Y-125710000D01*
X85450000Y-125150000D02*
X84300000Y-125150000D01*
X105164000Y-125710000D02*
X105166000Y-125712000D01*
%TO.N,Net-(U13-CO)*%
X84525000Y-124075000D02*
X83390000Y-125210000D01*
X100900000Y-124625000D02*
X102275000Y-124625000D01*
X83390000Y-125210000D02*
X80894000Y-125210000D01*
X102275000Y-124625000D02*
X102860000Y-125210000D01*
X102860000Y-125210000D02*
X105166000Y-125210000D01*
X85475000Y-124075000D02*
X84525000Y-124075000D01*
%TO.N,/BM1368-1/CLKI1*%
X116825000Y-95400000D02*
X116825000Y-99800000D01*
X116425000Y-95000000D02*
X116825000Y-95400000D01*
X118725000Y-101700000D02*
X120200000Y-101700000D01*
X116825000Y-99800000D02*
X118725000Y-101700000D01*
X113418790Y-96986000D02*
X115404790Y-95000000D01*
X110998000Y-96986000D02*
X113418790Y-96986000D01*
X115404790Y-95000000D02*
X116425000Y-95000000D01*
%TO.N,/BM1368-3/CLKI3*%
X114060000Y-152940000D02*
X110998000Y-152940000D01*
X115400000Y-151600000D02*
X114060000Y-152940000D01*
X116300000Y-151600000D02*
X115400000Y-151600000D01*
%TO.N,Net-(U25-CLKO)*%
X103040000Y-152940000D02*
X105166000Y-152940000D01*
X84800000Y-152900000D02*
X84000000Y-152900000D01*
X100800000Y-151700000D02*
X101800000Y-151700000D01*
X83960000Y-152940000D02*
X80894000Y-152940000D01*
X101800000Y-151700000D02*
X103040000Y-152940000D01*
X84000000Y-152900000D02*
X83960000Y-152940000D01*
%TO.N,Net-(U25-CO)*%
X101900000Y-154000000D02*
X101956000Y-153944000D01*
X84800000Y-154800000D02*
X84000000Y-154800000D01*
X83144000Y-153944000D02*
X80894000Y-153944000D01*
X84000000Y-154800000D02*
X83144000Y-153944000D01*
X100800000Y-154000000D02*
X101900000Y-154000000D01*
X101956000Y-153944000D02*
X105166000Y-153944000D01*
%TO.N,Net-(U25-RI)*%
X100800000Y-152900000D02*
X101800000Y-152900000D01*
X83842000Y-153442000D02*
X80894000Y-153442000D01*
X102342000Y-153442000D02*
X105166000Y-153442000D01*
X101800000Y-152900000D02*
X102342000Y-153442000D01*
X84200000Y-153800000D02*
X83842000Y-153442000D01*
%TO.N,Net-(U25-BO)*%
X101896797Y-150996797D02*
X103338000Y-152438000D01*
X103338000Y-152438000D02*
X105166000Y-152438000D01*
X83609000Y-152438000D02*
X80894000Y-152438000D01*
X84800000Y-151800000D02*
X84247000Y-151800000D01*
X84247000Y-151800000D02*
X83609000Y-152438000D01*
X100800000Y-150996797D02*
X101896797Y-150996797D01*
%TO.N,/BM1368-1/1V8*%
X111750000Y-92300000D02*
X111750000Y-93425000D01*
X75062000Y-93472000D02*
X74247000Y-93472000D01*
X111400000Y-91950000D02*
X111750000Y-92300000D01*
X104240000Y-92260000D02*
X104240000Y-93290000D01*
X121375000Y-101950000D02*
X121375000Y-101775000D01*
X104625000Y-90500000D02*
X101200000Y-87075000D01*
X117425000Y-97825000D02*
X117425000Y-92350000D01*
X74075000Y-93300000D02*
X74075000Y-92200000D01*
X81725000Y-92025000D02*
X81450000Y-91750000D01*
X84925000Y-86475000D02*
X86050000Y-86475000D01*
X74075000Y-92200000D02*
X74450000Y-91825000D01*
X81725000Y-93450000D02*
X81725000Y-92025000D01*
X80894000Y-93472000D02*
X81703000Y-93472000D01*
X104240000Y-93290000D02*
X104422000Y-93472000D01*
X81450000Y-91750000D02*
X81450000Y-89950000D01*
X101200000Y-87075000D02*
X101200000Y-87050000D01*
X104625000Y-91875000D02*
X104240000Y-92260000D01*
X111400000Y-91375000D02*
X111400000Y-91950000D01*
X74247000Y-93472000D02*
X74075000Y-93300000D01*
X117425000Y-92350000D02*
X116125000Y-91050000D01*
X121375000Y-101775000D02*
X117425000Y-97825000D01*
X104625000Y-91875000D02*
X104625000Y-90500000D01*
X81450000Y-89950000D02*
X84925000Y-86475000D01*
X111703000Y-93472000D02*
X110998000Y-93472000D01*
X116125000Y-91050000D02*
X111725000Y-91050000D01*
X111750000Y-93425000D02*
X111703000Y-93472000D01*
X81703000Y-93472000D02*
X81725000Y-93450000D01*
X104422000Y-93472000D02*
X105166000Y-93472000D01*
X111725000Y-91050000D02*
X111400000Y-91375000D01*
%TO.N,/BM1368-2/1V8*%
X82375000Y-120862500D02*
X81541500Y-121696000D01*
X84425000Y-118100000D02*
X84425000Y-114725000D01*
X110998000Y-121696000D02*
X111604000Y-121696000D01*
X82500000Y-120025000D02*
X84425000Y-118100000D01*
X84425000Y-114725000D02*
X85450000Y-113700000D01*
X73500000Y-120500000D02*
X74696000Y-121696000D01*
X104636000Y-121696000D02*
X105166000Y-121696000D01*
X74696000Y-121696000D02*
X75062000Y-121696000D01*
X82375000Y-120025000D02*
X82500000Y-120025000D01*
X103100000Y-120160000D02*
X104636000Y-121696000D01*
X111604000Y-121696000D02*
X113000000Y-120300000D01*
X82375000Y-120025000D02*
X82375000Y-120862500D01*
X113000000Y-120300000D02*
X113000000Y-119700000D01*
X81541500Y-121696000D02*
X80894000Y-121696000D01*
X103100000Y-119800000D02*
X103100000Y-120160000D01*
X73500000Y-119950000D02*
X73500000Y-120500000D01*
%TO.N,/BM1368-3/1V8*%
X81874000Y-149426000D02*
X80894000Y-149426000D01*
X103200000Y-147800000D02*
X103200000Y-148500000D01*
X74346000Y-149426000D02*
X75062000Y-149426000D01*
X104126000Y-149426000D02*
X105166000Y-149426000D01*
X72150000Y-147230000D02*
X74346000Y-149426000D01*
X112900000Y-148400000D02*
X112900000Y-147700000D01*
X110998000Y-149426000D02*
X111874000Y-149426000D01*
X84775000Y-146125000D02*
X83000000Y-147900000D01*
X83000000Y-147900000D02*
X83000000Y-148300000D01*
X103200000Y-148500000D02*
X104126000Y-149426000D01*
X83000000Y-148300000D02*
X81874000Y-149426000D01*
X111874000Y-149426000D02*
X112900000Y-148400000D01*
X72150000Y-146925000D02*
X72150000Y-147230000D01*
X70800000Y-145575000D02*
X72150000Y-146925000D01*
%TD*%
%TA.AperFunction,Conductor*%
%TO.N,/BM1368-2/VDD2*%
G36*
X110144539Y-128019685D02*
G01*
X110190294Y-128072489D01*
X110201500Y-128123999D01*
X110201500Y-128332141D01*
X110201501Y-128332148D01*
X110204387Y-128362936D01*
X110204388Y-128362938D01*
X110228569Y-128432045D01*
X110232130Y-128501824D01*
X110228569Y-128513953D01*
X110204386Y-128583064D01*
X110201500Y-128613846D01*
X110201500Y-128834142D01*
X110201501Y-128834148D01*
X110204387Y-128864936D01*
X110204387Y-128864938D01*
X110204388Y-128864941D01*
X110249762Y-128994611D01*
X110249763Y-128994613D01*
X110331346Y-129105154D01*
X110441887Y-129186737D01*
X110481219Y-129200500D01*
X110571562Y-129232113D01*
X110579595Y-129232866D01*
X110602351Y-129235000D01*
X111177609Y-129234999D01*
X111244648Y-129254683D01*
X111265633Y-129271662D01*
X113639024Y-131663741D01*
X113672269Y-131725194D01*
X113675000Y-131751077D01*
X113675000Y-146273638D01*
X113655315Y-146340677D01*
X113638681Y-146361319D01*
X112986819Y-147013181D01*
X112925496Y-147046666D01*
X112899138Y-147049500D01*
X112821014Y-147049500D01*
X112667634Y-147087303D01*
X112527762Y-147160715D01*
X112409516Y-147265471D01*
X112319781Y-147395475D01*
X112319780Y-147395476D01*
X112263762Y-147543181D01*
X112244722Y-147699999D01*
X112244722Y-147703915D01*
X112243911Y-147706675D01*
X112243818Y-147707445D01*
X112243690Y-147707429D01*
X112225037Y-147770954D01*
X112208403Y-147791596D01*
X111121317Y-148878681D01*
X111059994Y-148912166D01*
X111033636Y-148915000D01*
X110602357Y-148915000D01*
X110585467Y-148916583D01*
X110571564Y-148917887D01*
X110571562Y-148917887D01*
X110571558Y-148917888D01*
X110441888Y-148963262D01*
X110331346Y-149044846D01*
X110249762Y-149155388D01*
X110204386Y-149285061D01*
X110204386Y-149285063D01*
X110201500Y-149315846D01*
X110201500Y-149536142D01*
X110201501Y-149536148D01*
X110204387Y-149566936D01*
X110204388Y-149566938D01*
X110228569Y-149636045D01*
X110232130Y-149705824D01*
X110228569Y-149717953D01*
X110204386Y-149787064D01*
X110201500Y-149817846D01*
X110201501Y-150039999D01*
X110181817Y-150107039D01*
X110129013Y-150152794D01*
X110077501Y-150164000D01*
X106086500Y-150164000D01*
X106019461Y-150144315D01*
X105973706Y-150091511D01*
X105962500Y-150040001D01*
X105962499Y-149817856D01*
X105962498Y-149817846D01*
X105959613Y-149787064D01*
X105935429Y-149717954D01*
X105931867Y-149648176D01*
X105935425Y-149636057D01*
X105959613Y-149566936D01*
X105962500Y-149536149D01*
X105962499Y-149315852D01*
X105959613Y-149285064D01*
X105914237Y-149155387D01*
X105832654Y-149044846D01*
X105722113Y-148963263D01*
X105722111Y-148963262D01*
X105592437Y-148917886D01*
X105561653Y-148915000D01*
X104971257Y-148915000D01*
X104904218Y-148895315D01*
X104883230Y-148878334D01*
X103891064Y-147878294D01*
X103857822Y-147816839D01*
X103855995Y-147805906D01*
X103855278Y-147800000D01*
X103836237Y-147643182D01*
X103780220Y-147495477D01*
X103690483Y-147365470D01*
X103572240Y-147260717D01*
X103572238Y-147260716D01*
X103572237Y-147260715D01*
X103432365Y-147187303D01*
X103278986Y-147149500D01*
X103278985Y-147149500D01*
X103219658Y-147149500D01*
X103152619Y-147129815D01*
X103131631Y-147112834D01*
X102385973Y-146361258D01*
X102352731Y-146299803D01*
X102350000Y-146273924D01*
X102350000Y-131726075D01*
X102369685Y-131659036D01*
X102385973Y-131638741D01*
X104734412Y-129271663D01*
X104795600Y-129237938D01*
X104822428Y-129234999D01*
X105561648Y-129234999D01*
X105592436Y-129232113D01*
X105722113Y-129186737D01*
X105832654Y-129105154D01*
X105914237Y-128994613D01*
X105936925Y-128929774D01*
X105959613Y-128864938D01*
X105959613Y-128864936D01*
X105962500Y-128834149D01*
X105962499Y-128613852D01*
X105959613Y-128583064D01*
X105935429Y-128513954D01*
X105931867Y-128444176D01*
X105935425Y-128432057D01*
X105959613Y-128362936D01*
X105962500Y-128332149D01*
X105962499Y-128124000D01*
X105982183Y-128056961D01*
X106034987Y-128011206D01*
X106086499Y-128000000D01*
X110077500Y-128000000D01*
X110144539Y-128019685D01*
G37*
%TD.AperFunction*%
%TD*%
%TA.AperFunction,Conductor*%
%TO.N,/BM1368-2/VDD2*%
G36*
X80040539Y-128019685D02*
G01*
X80086294Y-128072489D01*
X80097500Y-128123999D01*
X80097500Y-128332141D01*
X80097501Y-128332148D01*
X80100387Y-128362936D01*
X80100388Y-128362938D01*
X80124569Y-128432045D01*
X80128130Y-128501824D01*
X80124569Y-128513953D01*
X80100386Y-128583064D01*
X80097500Y-128613846D01*
X80097500Y-128834142D01*
X80097501Y-128834148D01*
X80100387Y-128864936D01*
X80100387Y-128864938D01*
X80100388Y-128864941D01*
X80124416Y-128933608D01*
X80145763Y-128994613D01*
X80227346Y-129105154D01*
X80337887Y-129186737D01*
X80374362Y-129199500D01*
X80467562Y-129232113D01*
X80475595Y-129232866D01*
X80498351Y-129235000D01*
X81183637Y-129234999D01*
X81250676Y-129254683D01*
X81271318Y-129271318D01*
X83788681Y-131788681D01*
X83822166Y-131850004D01*
X83825000Y-131876362D01*
X83825000Y-138891549D01*
X83824321Y-138904509D01*
X83819540Y-138949999D01*
X83824321Y-138995488D01*
X83825000Y-139008449D01*
X83825000Y-146123637D01*
X83805315Y-146190676D01*
X83788681Y-146211318D01*
X81121317Y-148878681D01*
X81059994Y-148912166D01*
X81033636Y-148915000D01*
X80498357Y-148915000D01*
X80481467Y-148916583D01*
X80467564Y-148917887D01*
X80467562Y-148917887D01*
X80467558Y-148917888D01*
X80337888Y-148963262D01*
X80227346Y-149044846D01*
X80145762Y-149155388D01*
X80100386Y-149285061D01*
X80100386Y-149285063D01*
X80097500Y-149315846D01*
X80097500Y-149536142D01*
X80097501Y-149536148D01*
X80100387Y-149566936D01*
X80100388Y-149566938D01*
X80124569Y-149636045D01*
X80128130Y-149705824D01*
X80124569Y-149717953D01*
X80100386Y-149787064D01*
X80097500Y-149817846D01*
X80097501Y-150039999D01*
X80077817Y-150107039D01*
X80025013Y-150152794D01*
X79973501Y-150164000D01*
X75982500Y-150164000D01*
X75915461Y-150144315D01*
X75869706Y-150091511D01*
X75858500Y-150040001D01*
X75858499Y-149817856D01*
X75858498Y-149817846D01*
X75855613Y-149787064D01*
X75831429Y-149717954D01*
X75827867Y-149648176D01*
X75831425Y-149636057D01*
X75855613Y-149566936D01*
X75858500Y-149536149D01*
X75858499Y-149315852D01*
X75855613Y-149285064D01*
X75810237Y-149155387D01*
X75728654Y-149044846D01*
X75618113Y-148963263D01*
X75618111Y-148963262D01*
X75488437Y-148917886D01*
X75457653Y-148915000D01*
X74971415Y-148915000D01*
X74904376Y-148895315D01*
X74883377Y-148878323D01*
X72485962Y-146461256D01*
X72452727Y-146399796D01*
X72450000Y-146373933D01*
X72450000Y-131867955D01*
X72469685Y-131800916D01*
X72491990Y-131776670D01*
X72491567Y-131776247D01*
X72670500Y-131597314D01*
X73359954Y-130907858D01*
X73417956Y-130875145D01*
X73523434Y-130849148D01*
X73657934Y-130778557D01*
X73771632Y-130677830D01*
X73857921Y-130552819D01*
X73911785Y-130410791D01*
X73930094Y-130260000D01*
X73916789Y-130150421D01*
X73928250Y-130081498D01*
X73952199Y-130047800D01*
X74728683Y-129271316D01*
X74790004Y-129237833D01*
X74816354Y-129234999D01*
X75457648Y-129234999D01*
X75488436Y-129232113D01*
X75618113Y-129186737D01*
X75728654Y-129105154D01*
X75810237Y-128994613D01*
X75832925Y-128929774D01*
X75855613Y-128864938D01*
X75855613Y-128864936D01*
X75858500Y-128834149D01*
X75858499Y-128613852D01*
X75855613Y-128583064D01*
X75831429Y-128513954D01*
X75827867Y-128444176D01*
X75831425Y-128432057D01*
X75855613Y-128362936D01*
X75858500Y-128332149D01*
X75858499Y-128124000D01*
X75878183Y-128056961D01*
X75930987Y-128011206D01*
X75982499Y-128000000D01*
X79973500Y-128000000D01*
X80040539Y-128019685D01*
G37*
%TD.AperFunction*%
%TD*%
%TA.AperFunction,Conductor*%
%TO.N,GND*%
G36*
X109790677Y-87219685D02*
G01*
X109811319Y-87236319D01*
X110563442Y-87988442D01*
X110596927Y-88049765D01*
X110599760Y-88076697D01*
X110577548Y-92874383D01*
X110557553Y-92941331D01*
X110504538Y-92986841D01*
X110494506Y-92990850D01*
X110441886Y-93009263D01*
X110331346Y-93090846D01*
X110249762Y-93201388D01*
X110204386Y-93331061D01*
X110204386Y-93331063D01*
X110201500Y-93361846D01*
X110201500Y-93582142D01*
X110201501Y-93582148D01*
X110204387Y-93612936D01*
X110204388Y-93612938D01*
X110228569Y-93682045D01*
X110232130Y-93751824D01*
X110228569Y-93763953D01*
X110204386Y-93833064D01*
X110201500Y-93863846D01*
X110201500Y-93863851D01*
X110201500Y-93972500D01*
X110201501Y-94039999D01*
X110181817Y-94107039D01*
X110129013Y-94152794D01*
X110077501Y-94164000D01*
X105788304Y-94164000D01*
X105721265Y-94144315D01*
X105675510Y-94091511D01*
X105665566Y-94022353D01*
X105694591Y-93958797D01*
X105714670Y-93940230D01*
X105722113Y-93934737D01*
X105832654Y-93853154D01*
X105914237Y-93742613D01*
X105941330Y-93665186D01*
X105959613Y-93612938D01*
X105959613Y-93612936D01*
X105962500Y-93582149D01*
X105962499Y-93361852D01*
X105959613Y-93331064D01*
X105914237Y-93201387D01*
X105832654Y-93090846D01*
X105722113Y-93009263D01*
X105722111Y-93009262D01*
X105592437Y-92963886D01*
X105561653Y-92961000D01*
X105499000Y-92961000D01*
X105431961Y-92941315D01*
X105386206Y-92888511D01*
X105375000Y-92837000D01*
X105375000Y-88126362D01*
X105394685Y-88059323D01*
X105411319Y-88038681D01*
X106213681Y-87236319D01*
X106275004Y-87202834D01*
X106301362Y-87200000D01*
X109723638Y-87200000D01*
X109790677Y-87219685D01*
G37*
%TD.AperFunction*%
%TD*%
%TA.AperFunction,Conductor*%
%TO.N,GND*%
G36*
X83943039Y-52319685D02*
G01*
X83988794Y-52372489D01*
X84000000Y-52424000D01*
X84000000Y-53076000D01*
X83980315Y-53143039D01*
X83927511Y-53188794D01*
X83876000Y-53200000D01*
X83349999Y-53200000D01*
X82950000Y-53599999D01*
X82950000Y-53707174D01*
X82947617Y-53731367D01*
X82940800Y-53765635D01*
X82940800Y-54034365D01*
X82947617Y-54068634D01*
X82950000Y-54092827D01*
X82950000Y-54150000D01*
X83095552Y-54295552D01*
X83129037Y-54356875D01*
X83124053Y-54426567D01*
X83082181Y-54482500D01*
X83055327Y-54497793D01*
X83050000Y-54499999D01*
X82950000Y-54599999D01*
X82950000Y-54707172D01*
X82947617Y-54731365D01*
X82940800Y-54765633D01*
X82940800Y-55034363D01*
X82947617Y-55068632D01*
X82950000Y-55092825D01*
X82950000Y-55576000D01*
X82930315Y-55643039D01*
X82877511Y-55688794D01*
X82826000Y-55700000D01*
X82574000Y-55700000D01*
X82506961Y-55680315D01*
X82461206Y-55627511D01*
X82450000Y-55576000D01*
X82450000Y-55092825D01*
X82452383Y-55068632D01*
X82459200Y-55034363D01*
X82459200Y-54765633D01*
X82452383Y-54731365D01*
X82450000Y-54707172D01*
X82450000Y-54592826D01*
X82452383Y-54568633D01*
X82459200Y-54534364D01*
X82459200Y-54265634D01*
X82452383Y-54231366D01*
X82450000Y-54207173D01*
X82450000Y-54092827D01*
X82452383Y-54068634D01*
X82459200Y-54034365D01*
X82459200Y-53765635D01*
X82452383Y-53731367D01*
X82450000Y-53707174D01*
X82450000Y-53600000D01*
X82000000Y-53150000D01*
X81374000Y-53150000D01*
X81306961Y-53130315D01*
X81261206Y-53077511D01*
X81250000Y-53026000D01*
X81250000Y-52424000D01*
X81269685Y-52356961D01*
X81322489Y-52311206D01*
X81374000Y-52300000D01*
X83876000Y-52300000D01*
X83943039Y-52319685D01*
G37*
%TD.AperFunction*%
%TD*%
%TA.AperFunction,Conductor*%
%TO.N,GND*%
G36*
X75381559Y-53262685D02*
G01*
X75427314Y-53315489D01*
X75438519Y-53366479D01*
X75449999Y-56099761D01*
X75450000Y-56100282D01*
X75450000Y-57525000D01*
X77575928Y-59650928D01*
X77609413Y-59712251D01*
X77612245Y-59739220D01*
X77599999Y-62224998D01*
X77600000Y-62225001D01*
X79425322Y-63835680D01*
X80729866Y-64986820D01*
X80767108Y-65045935D01*
X80771820Y-65080193D01*
X80766395Y-66776397D01*
X80746496Y-66843373D01*
X80693546Y-66888959D01*
X80642396Y-66900000D01*
X76850000Y-66900000D01*
X75486447Y-68287902D01*
X75425422Y-68321928D01*
X75397993Y-68325000D01*
X65000000Y-68325000D01*
X65000000Y-74276000D01*
X64980315Y-74343039D01*
X64927511Y-74388794D01*
X64876000Y-74400000D01*
X62951362Y-74400000D01*
X62884323Y-74380315D01*
X62863681Y-74363681D01*
X62125000Y-73625000D01*
X61576362Y-73625000D01*
X61509323Y-73605315D01*
X61488681Y-73588681D01*
X61300000Y-73400000D01*
X60949000Y-73400000D01*
X60881961Y-73380315D01*
X60836206Y-73327511D01*
X60825000Y-73276000D01*
X60825000Y-70224000D01*
X60844685Y-70156961D01*
X60897489Y-70111206D01*
X60949000Y-70100000D01*
X61300000Y-70100000D01*
X61488681Y-69911319D01*
X61550004Y-69877834D01*
X61576362Y-69875000D01*
X62125000Y-69875000D01*
X62875000Y-69125000D01*
X62875000Y-66599000D01*
X62894685Y-66531961D01*
X62947489Y-66486206D01*
X62999000Y-66475000D01*
X63850000Y-66475000D01*
X64175000Y-66150000D01*
X64175000Y-64849000D01*
X64194685Y-64781961D01*
X64247489Y-64736206D01*
X64299000Y-64725000D01*
X73325000Y-64725000D01*
X73325000Y-62025000D01*
X67461251Y-62273521D01*
X67393438Y-62256693D01*
X67345488Y-62205873D01*
X67332000Y-62149632D01*
X67332000Y-59379107D01*
X67351685Y-59312068D01*
X67398565Y-59269211D01*
X67474333Y-59229611D01*
X67818000Y-59050000D01*
X67650770Y-57556875D01*
X67650000Y-57543073D01*
X67650000Y-56000012D01*
X67614686Y-53368664D01*
X67633469Y-53301366D01*
X67685655Y-53254907D01*
X67738675Y-53243000D01*
X75314520Y-53243000D01*
X75381559Y-53262685D01*
G37*
%TD.AperFunction*%
%TD*%
%TA.AperFunction,Conductor*%
%TO.N,/BM1368-1/VDD1*%
G36*
X80041483Y-100019685D02*
G01*
X80087238Y-100072489D01*
X80097901Y-100112423D01*
X80099916Y-100133915D01*
X80100387Y-100138938D01*
X80124569Y-100208045D01*
X80128130Y-100277824D01*
X80124569Y-100289953D01*
X80100386Y-100359064D01*
X80097500Y-100389846D01*
X80097500Y-100610142D01*
X80097501Y-100610148D01*
X80100387Y-100640936D01*
X80100387Y-100640938D01*
X80100388Y-100640941D01*
X80145762Y-100770611D01*
X80145763Y-100770613D01*
X80227346Y-100881154D01*
X80337887Y-100962737D01*
X80381112Y-100977862D01*
X80467562Y-101008113D01*
X80475595Y-101008866D01*
X80498351Y-101011000D01*
X80959638Y-101010999D01*
X81026676Y-101030683D01*
X81047318Y-101047318D01*
X83838681Y-103838681D01*
X83872166Y-103900004D01*
X83875000Y-103926362D01*
X83875000Y-110489811D01*
X83858387Y-110551811D01*
X83797821Y-110656714D01*
X83739327Y-110836740D01*
X83739326Y-110836744D01*
X83719540Y-111025000D01*
X83739326Y-111213256D01*
X83739327Y-111213259D01*
X83797818Y-111393277D01*
X83797821Y-111393284D01*
X83858387Y-111498187D01*
X83875000Y-111560187D01*
X83875000Y-117890824D01*
X83855315Y-117957863D01*
X83838681Y-117978505D01*
X82479005Y-119338181D01*
X82417682Y-119371666D01*
X82391324Y-119374500D01*
X82296014Y-119374500D01*
X82142634Y-119412303D01*
X82002762Y-119485715D01*
X82002760Y-119485717D01*
X81912737Y-119565470D01*
X81884516Y-119590471D01*
X81794781Y-119720475D01*
X81794780Y-119720476D01*
X81738762Y-119868181D01*
X81719722Y-120024999D01*
X81719722Y-120025000D01*
X81739667Y-120189264D01*
X81737207Y-120189562D01*
X81734656Y-120247443D01*
X81705014Y-120294984D01*
X80851317Y-121148681D01*
X80789994Y-121182166D01*
X80763636Y-121185000D01*
X80498357Y-121185000D01*
X80481467Y-121186583D01*
X80467564Y-121187887D01*
X80467562Y-121187887D01*
X80467558Y-121187888D01*
X80337888Y-121233262D01*
X80227346Y-121314846D01*
X80145762Y-121425388D01*
X80100386Y-121555061D01*
X80100386Y-121555063D01*
X80097500Y-121585846D01*
X80097500Y-121806142D01*
X80097501Y-121806148D01*
X80100387Y-121836936D01*
X80100388Y-121836938D01*
X80124569Y-121906045D01*
X80128130Y-121975824D01*
X80124569Y-121987953D01*
X80100386Y-122057065D01*
X80098777Y-122064433D01*
X80096019Y-122063830D01*
X80075043Y-122116487D01*
X80018198Y-122157111D01*
X79977443Y-122164000D01*
X75978557Y-122164000D01*
X75911518Y-122144315D01*
X75865763Y-122091511D01*
X75858457Y-122064163D01*
X75857222Y-122064433D01*
X75855612Y-122057061D01*
X75831430Y-121987955D01*
X75827867Y-121918176D01*
X75831425Y-121906057D01*
X75855613Y-121836936D01*
X75858500Y-121806149D01*
X75858499Y-121585852D01*
X75855613Y-121555064D01*
X75810237Y-121425387D01*
X75728654Y-121314846D01*
X75618113Y-121233263D01*
X75618111Y-121233262D01*
X75488437Y-121187886D01*
X75457653Y-121185000D01*
X75457649Y-121185000D01*
X75236362Y-121185000D01*
X75169323Y-121165315D01*
X75148681Y-121148681D01*
X74175744Y-120175744D01*
X74142259Y-120114421D01*
X74140329Y-120073117D01*
X74155278Y-119950000D01*
X74155278Y-119949999D01*
X74136237Y-119793181D01*
X74099182Y-119695477D01*
X74080220Y-119645477D01*
X73990483Y-119515470D01*
X73872240Y-119410717D01*
X73872238Y-119410716D01*
X73872237Y-119410715D01*
X73732365Y-119337303D01*
X73578986Y-119299500D01*
X73578985Y-119299500D01*
X73421015Y-119299500D01*
X73404518Y-119303566D01*
X73391428Y-119306792D01*
X73321625Y-119303721D01*
X73274075Y-119274075D01*
X72636319Y-118636319D01*
X72602834Y-118574996D01*
X72600000Y-118548638D01*
X72600000Y-103451361D01*
X72619685Y-103384322D01*
X72636314Y-103363685D01*
X74952683Y-101047316D01*
X75014004Y-101013833D01*
X75040357Y-101010999D01*
X75457648Y-101010999D01*
X75488436Y-101008113D01*
X75618113Y-100962737D01*
X75728654Y-100881154D01*
X75810237Y-100770613D01*
X75839558Y-100686818D01*
X75855613Y-100640938D01*
X75855613Y-100640936D01*
X75858500Y-100610149D01*
X75858499Y-100389852D01*
X75855613Y-100359064D01*
X75831429Y-100289954D01*
X75827867Y-100220176D01*
X75831425Y-100208057D01*
X75855613Y-100138936D01*
X75858099Y-100112428D01*
X75858100Y-100112422D01*
X75883958Y-100047513D01*
X75940803Y-100006889D01*
X75981558Y-100000000D01*
X79974444Y-100000000D01*
X80041483Y-100019685D01*
G37*
%TD.AperFunction*%
%TD*%
%TA.AperFunction,Conductor*%
%TO.N,/VDD*%
G36*
X76140677Y-68969685D02*
G01*
X76161319Y-68986319D01*
X76900000Y-69725000D01*
X81201438Y-69725000D01*
X81268477Y-69744685D01*
X81313557Y-69796034D01*
X82319310Y-71925000D01*
X82617685Y-72556595D01*
X82629566Y-72609561D01*
X82629566Y-82444072D01*
X82609881Y-82511111D01*
X82593247Y-82531753D01*
X80494876Y-84630124D01*
X80433553Y-84663609D01*
X80407195Y-84666443D01*
X73974000Y-84666443D01*
X73906961Y-84646758D01*
X73861206Y-84593954D01*
X73850000Y-84542443D01*
X73850000Y-82051362D01*
X73869685Y-81984323D01*
X73886319Y-81963681D01*
X75525000Y-80325000D01*
X75525000Y-78639499D01*
X75544685Y-78572460D01*
X75597489Y-78526705D01*
X75648999Y-78515499D01*
X75931518Y-78515499D01*
X76025304Y-78500646D01*
X76138342Y-78443050D01*
X76228050Y-78353342D01*
X76285646Y-78240304D01*
X76285646Y-78240302D01*
X76285647Y-78240301D01*
X76300499Y-78146524D01*
X76300500Y-78146519D01*
X76300499Y-75703482D01*
X76285646Y-75609696D01*
X76228050Y-75496658D01*
X76228046Y-75496654D01*
X76228045Y-75496652D01*
X76138347Y-75406954D01*
X76138344Y-75406952D01*
X76138342Y-75406950D01*
X76061517Y-75367805D01*
X76025301Y-75349352D01*
X75931524Y-75334500D01*
X75632500Y-75334500D01*
X75565461Y-75314815D01*
X75544387Y-75290494D01*
X75542441Y-75292441D01*
X72175000Y-71925000D01*
X71553884Y-71925000D01*
X71486845Y-71905315D01*
X71463233Y-71885607D01*
X71183349Y-71585731D01*
X71151997Y-71523291D01*
X71150000Y-71501124D01*
X71150000Y-69074000D01*
X71169685Y-69006961D01*
X71222489Y-68961206D01*
X71274000Y-68950000D01*
X76073638Y-68950000D01*
X76140677Y-68969685D01*
G37*
%TD.AperFunction*%
%TD*%
%TA.AperFunction,Conductor*%
%TO.N,GND*%
G36*
X92843039Y-171119685D02*
G01*
X92888794Y-171172489D01*
X92900000Y-171224000D01*
X92900000Y-171876000D01*
X92880315Y-171943039D01*
X92827511Y-171988794D01*
X92776000Y-172000000D01*
X92249999Y-172000000D01*
X91850000Y-172399999D01*
X91850000Y-172511195D01*
X91847617Y-172535387D01*
X91841600Y-172565634D01*
X91841600Y-172834364D01*
X91847617Y-172864611D01*
X91850000Y-172888805D01*
X91850000Y-172950000D01*
X91995552Y-173095552D01*
X92029037Y-173156875D01*
X92024053Y-173226567D01*
X91982181Y-173282500D01*
X91955327Y-173297793D01*
X91950000Y-173299999D01*
X91850000Y-173399999D01*
X91850000Y-173511193D01*
X91847617Y-173535385D01*
X91841600Y-173565632D01*
X91841600Y-173834362D01*
X91844334Y-173848106D01*
X91838108Y-173917698D01*
X91795246Y-173972876D01*
X91729357Y-173996122D01*
X91722717Y-173996300D01*
X91478883Y-173996300D01*
X91411844Y-173976615D01*
X91366089Y-173923811D01*
X91356145Y-173854653D01*
X91357266Y-173848106D01*
X91360000Y-173834362D01*
X91360000Y-173565633D01*
X91352383Y-173527343D01*
X91350000Y-173503150D01*
X91350000Y-173396847D01*
X91352382Y-173372658D01*
X91360000Y-173334364D01*
X91360000Y-173065636D01*
X91352383Y-173027344D01*
X91350000Y-173003151D01*
X91350000Y-172896848D01*
X91352382Y-172872659D01*
X91360000Y-172834365D01*
X91360000Y-172565637D01*
X91359999Y-172565634D01*
X91352383Y-172527345D01*
X91350000Y-172503152D01*
X91350000Y-172400000D01*
X90900000Y-171950000D01*
X90274000Y-171950000D01*
X90206961Y-171930315D01*
X90161206Y-171877511D01*
X90150000Y-171826000D01*
X90150000Y-171224000D01*
X90169685Y-171156961D01*
X90222489Y-171111206D01*
X90274000Y-171100000D01*
X92776000Y-171100000D01*
X92843039Y-171119685D01*
G37*
%TD.AperFunction*%
%TD*%
%TA.AperFunction,Conductor*%
%TO.N,/VDD*%
G36*
X110144540Y-155855685D02*
G01*
X110190295Y-155908489D01*
X110201500Y-155959997D01*
X110201501Y-156062148D01*
X110204387Y-156092936D01*
X110204388Y-156092938D01*
X110228569Y-156162045D01*
X110232130Y-156231824D01*
X110228569Y-156243953D01*
X110204386Y-156313064D01*
X110201500Y-156343846D01*
X110201500Y-156564142D01*
X110201501Y-156564148D01*
X110204387Y-156594936D01*
X110204387Y-156594938D01*
X110204388Y-156594941D01*
X110222670Y-156647186D01*
X110249763Y-156724613D01*
X110331346Y-156835154D01*
X110441887Y-156916737D01*
X110485112Y-156931862D01*
X110571562Y-156962113D01*
X110579595Y-156962866D01*
X110602351Y-156965000D01*
X110913639Y-156964999D01*
X110980676Y-156984683D01*
X111001318Y-157001318D01*
X111713681Y-157713681D01*
X111747166Y-157775004D01*
X111750000Y-157801362D01*
X111750000Y-159698638D01*
X111730315Y-159765677D01*
X111713681Y-159786319D01*
X109786319Y-161713681D01*
X109724996Y-161747166D01*
X109698638Y-161750000D01*
X106301362Y-161750000D01*
X106234323Y-161730315D01*
X106213681Y-161713681D01*
X104286319Y-159786319D01*
X104252834Y-159724996D01*
X104250000Y-159698638D01*
X104250000Y-157801361D01*
X104269685Y-157734322D01*
X104286314Y-157713685D01*
X104998683Y-157001316D01*
X105060004Y-156967833D01*
X105086356Y-156964999D01*
X105561648Y-156964999D01*
X105592436Y-156962113D01*
X105722113Y-156916737D01*
X105832654Y-156835154D01*
X105914237Y-156724613D01*
X105941330Y-156647186D01*
X105959613Y-156594938D01*
X105959613Y-156594936D01*
X105962500Y-156564149D01*
X105962499Y-156343852D01*
X105959613Y-156313064D01*
X105935429Y-156243954D01*
X105931867Y-156174176D01*
X105935425Y-156162057D01*
X105959613Y-156092936D01*
X105962500Y-156062149D01*
X105962500Y-155960000D01*
X105982185Y-155892961D01*
X106034989Y-155847206D01*
X106086500Y-155836000D01*
X110077501Y-155836000D01*
X110144540Y-155855685D01*
G37*
%TD.AperFunction*%
%TD*%
%TA.AperFunction,Conductor*%
%TO.N,/BM1368-1/VDD1*%
G36*
X110145483Y-100019685D02*
G01*
X110191238Y-100072489D01*
X110201901Y-100112423D01*
X110203916Y-100133915D01*
X110204387Y-100138938D01*
X110228569Y-100208045D01*
X110232130Y-100277824D01*
X110228569Y-100289953D01*
X110204386Y-100359064D01*
X110201500Y-100389846D01*
X110201500Y-100610142D01*
X110201501Y-100610148D01*
X110204387Y-100640936D01*
X110204387Y-100640938D01*
X110204388Y-100640941D01*
X110249762Y-100770611D01*
X110249763Y-100770613D01*
X110331346Y-100881154D01*
X110441887Y-100962737D01*
X110485112Y-100977862D01*
X110571562Y-101008113D01*
X110579595Y-101008866D01*
X110602351Y-101011000D01*
X110955426Y-101010999D01*
X111022464Y-101030683D01*
X111043444Y-101047657D01*
X113689019Y-103713740D01*
X113722267Y-103775192D01*
X113725000Y-103801082D01*
X113725000Y-118223638D01*
X113705315Y-118290677D01*
X113688681Y-118311319D01*
X112984588Y-119015411D01*
X112926582Y-119048127D01*
X112767633Y-119087304D01*
X112627762Y-119160715D01*
X112509516Y-119265471D01*
X112419781Y-119395475D01*
X112419780Y-119395476D01*
X112363763Y-119543178D01*
X112363762Y-119543183D01*
X112356059Y-119606621D01*
X112328436Y-119670799D01*
X112320644Y-119679354D01*
X110851317Y-121148681D01*
X110789994Y-121182166D01*
X110763637Y-121185000D01*
X110602358Y-121185000D01*
X110586958Y-121186444D01*
X110571564Y-121187887D01*
X110571562Y-121187887D01*
X110571558Y-121187888D01*
X110441888Y-121233262D01*
X110331346Y-121314846D01*
X110249762Y-121425388D01*
X110204386Y-121555061D01*
X110204386Y-121555063D01*
X110201500Y-121585846D01*
X110201500Y-121806142D01*
X110201501Y-121806148D01*
X110204387Y-121836936D01*
X110204388Y-121836938D01*
X110228569Y-121906045D01*
X110232130Y-121975824D01*
X110228569Y-121987953D01*
X110204386Y-122057065D01*
X110202777Y-122064433D01*
X110200019Y-122063830D01*
X110179043Y-122116487D01*
X110122198Y-122157111D01*
X110081443Y-122164000D01*
X106082557Y-122164000D01*
X106015518Y-122144315D01*
X105969763Y-122091511D01*
X105962457Y-122064163D01*
X105961222Y-122064433D01*
X105959612Y-122057061D01*
X105935430Y-121987955D01*
X105931867Y-121918176D01*
X105935425Y-121906057D01*
X105959613Y-121836936D01*
X105962500Y-121806149D01*
X105962499Y-121585852D01*
X105959613Y-121555064D01*
X105914237Y-121425387D01*
X105832654Y-121314846D01*
X105722113Y-121233263D01*
X105722111Y-121233262D01*
X105592437Y-121187886D01*
X105561653Y-121185000D01*
X105561649Y-121185000D01*
X105239130Y-121185000D01*
X105172091Y-121165315D01*
X105151103Y-121148334D01*
X103777117Y-119763443D01*
X103743876Y-119701990D01*
X103742051Y-119691072D01*
X103736237Y-119643182D01*
X103680220Y-119495477D01*
X103590483Y-119365470D01*
X103472240Y-119260717D01*
X103472238Y-119260716D01*
X103472237Y-119260715D01*
X103332366Y-119187304D01*
X103198274Y-119154254D01*
X103139922Y-119121191D01*
X102385973Y-118361258D01*
X102352731Y-118299803D01*
X102350000Y-118273924D01*
X102350000Y-103701361D01*
X102369685Y-103634322D01*
X102386314Y-103613685D01*
X104952683Y-101047316D01*
X105014004Y-101013833D01*
X105040355Y-101010999D01*
X105561648Y-101010999D01*
X105592436Y-101008113D01*
X105722113Y-100962737D01*
X105832654Y-100881154D01*
X105914237Y-100770613D01*
X105936925Y-100705774D01*
X105959613Y-100640938D01*
X105959613Y-100640936D01*
X105962500Y-100610149D01*
X105962499Y-100389852D01*
X105959613Y-100359064D01*
X105935429Y-100289954D01*
X105931867Y-100220176D01*
X105935425Y-100208057D01*
X105959613Y-100138936D01*
X105962099Y-100112428D01*
X105962100Y-100112422D01*
X105987958Y-100047513D01*
X106044803Y-100006889D01*
X106085558Y-100000000D01*
X110078444Y-100000000D01*
X110145483Y-100019685D01*
G37*
%TD.AperFunction*%
%TD*%
%TA.AperFunction,Conductor*%
%TO.N,/Power/SW*%
G36*
X65116095Y-74804412D02*
G01*
X65140872Y-74811206D01*
X68473787Y-75724992D01*
X68533236Y-75761702D01*
X68563400Y-75824725D01*
X68565000Y-75844579D01*
X68565000Y-78001000D01*
X68545315Y-78068039D01*
X68492511Y-78113794D01*
X68441000Y-78125000D01*
X64901362Y-78125000D01*
X64834323Y-78105315D01*
X64813681Y-78088681D01*
X64075000Y-77350000D01*
X58274000Y-77350000D01*
X58206961Y-77330315D01*
X58161206Y-77277511D01*
X58150000Y-77226000D01*
X58150000Y-76851362D01*
X58169685Y-76784323D01*
X58186319Y-76763681D01*
X58950000Y-76000000D01*
X58950000Y-75762019D01*
X58957204Y-75725804D01*
X58956060Y-75725498D01*
X58958164Y-75717646D01*
X58980700Y-75633538D01*
X58980700Y-74924000D01*
X59000385Y-74856961D01*
X59053189Y-74811206D01*
X59104700Y-74800000D01*
X65083309Y-74800000D01*
X65116095Y-74804412D01*
G37*
%TD.AperFunction*%
%TD*%
%TA.AperFunction,Conductor*%
%TO.N,/5V*%
G36*
X112943039Y-80969685D02*
G01*
X112988794Y-81022489D01*
X113000000Y-81074000D01*
X113000000Y-82998638D01*
X112980315Y-83065677D01*
X112963681Y-83086319D01*
X110961319Y-85088681D01*
X110899996Y-85122166D01*
X110873638Y-85125000D01*
X101624999Y-85125000D01*
X100325001Y-86424997D01*
X100324999Y-86425001D01*
X100275175Y-100923887D01*
X100255260Y-100990859D01*
X100238857Y-101011142D01*
X97125000Y-104124999D01*
X97125000Y-106941549D01*
X97124321Y-106954509D01*
X97119540Y-106999999D01*
X97124321Y-107045488D01*
X97125000Y-107058449D01*
X97125000Y-108441549D01*
X97124321Y-108454509D01*
X97119540Y-108499999D01*
X97124321Y-108545488D01*
X97125000Y-108558449D01*
X97125000Y-109100000D01*
X99638617Y-111613617D01*
X99672102Y-111674940D01*
X99674936Y-111701451D01*
X99662959Y-121438419D01*
X99643192Y-121505434D01*
X99621186Y-121531081D01*
X99518369Y-121622168D01*
X99432080Y-121747179D01*
X99432079Y-121747180D01*
X99378215Y-121889208D01*
X99359906Y-122040000D01*
X99375080Y-122164976D01*
X99363619Y-122233900D01*
X99316715Y-122285685D01*
X99249259Y-122303892D01*
X99222313Y-122300320D01*
X99218986Y-122299500D01*
X99218985Y-122299500D01*
X99061015Y-122299500D01*
X99061014Y-122299500D01*
X98907634Y-122337303D01*
X98767762Y-122410715D01*
X98649516Y-122515471D01*
X98559781Y-122645475D01*
X98559780Y-122645476D01*
X98503762Y-122793181D01*
X98484722Y-122949999D01*
X98484722Y-122950000D01*
X98503762Y-123106818D01*
X98558420Y-123250936D01*
X98559780Y-123254523D01*
X98649517Y-123384530D01*
X98767760Y-123489283D01*
X98767762Y-123489284D01*
X98907634Y-123562696D01*
X98969277Y-123577889D01*
X99042661Y-123595976D01*
X99100668Y-123628692D01*
X99623195Y-124151219D01*
X99656680Y-124212542D01*
X99659514Y-124239053D01*
X99656571Y-126631796D01*
X99636804Y-126698811D01*
X99614798Y-126724458D01*
X99538369Y-126792168D01*
X99452080Y-126917179D01*
X99452079Y-126917180D01*
X99452079Y-126917181D01*
X99398215Y-127059209D01*
X99379906Y-127210000D01*
X99398215Y-127360791D01*
X99452079Y-127502819D01*
X99467607Y-127525314D01*
X99538369Y-127627831D01*
X99613377Y-127694283D01*
X99650504Y-127753472D01*
X99655150Y-127787251D01*
X99650062Y-131924151D01*
X99630295Y-131991166D01*
X99614254Y-132011165D01*
X97525000Y-134124998D01*
X97500085Y-148973760D01*
X97480288Y-149040766D01*
X97463766Y-149061233D01*
X96961319Y-149563681D01*
X96899996Y-149597166D01*
X96873638Y-149600000D01*
X95051362Y-149600000D01*
X94984323Y-149580315D01*
X94963681Y-149563681D01*
X94511237Y-149111237D01*
X94477752Y-149049914D01*
X94474918Y-149023754D01*
X94474838Y-148973760D01*
X94450082Y-133451476D01*
X94469660Y-133384406D01*
X94486396Y-133363603D01*
X97050000Y-130800000D01*
X97000000Y-112850000D01*
X96999999Y-112849999D01*
X96999999Y-112849998D01*
X94136319Y-109986318D01*
X94102834Y-109924995D01*
X94100000Y-109898637D01*
X94100000Y-103175554D01*
X94119685Y-103108515D01*
X94135342Y-103088859D01*
X97425000Y-99725000D01*
X97400087Y-85076483D01*
X97419658Y-85009412D01*
X97436401Y-84988598D01*
X100188681Y-82236319D01*
X100250004Y-82202834D01*
X100276362Y-82200000D01*
X105522336Y-82200000D01*
X105589375Y-82219685D01*
X105595221Y-82223682D01*
X105747265Y-82334148D01*
X105747270Y-82334151D01*
X105920192Y-82411142D01*
X105920197Y-82411144D01*
X106105354Y-82450500D01*
X106105355Y-82450500D01*
X106294644Y-82450500D01*
X106294646Y-82450500D01*
X106479803Y-82411144D01*
X106652730Y-82334151D01*
X106787385Y-82236319D01*
X106804779Y-82223682D01*
X106870585Y-82200202D01*
X106877664Y-82200000D01*
X108000000Y-82200000D01*
X109213681Y-80986319D01*
X109275004Y-80952834D01*
X109301362Y-80950000D01*
X112876000Y-80950000D01*
X112943039Y-80969685D01*
G37*
%TD.AperFunction*%
%TD*%
%TA.AperFunction,Conductor*%
%TO.N,/VIN*%
G36*
X66999039Y-53359685D02*
G01*
X67044794Y-53412489D01*
X67056000Y-53464000D01*
X67056000Y-55613518D01*
X67053513Y-55638229D01*
X66802000Y-56875002D01*
X66802000Y-59566000D01*
X66782315Y-59633039D01*
X66729511Y-59678794D01*
X66678000Y-59690000D01*
X61800000Y-59690000D01*
X61800000Y-68273638D01*
X61780315Y-68340677D01*
X61763681Y-68361319D01*
X61411319Y-68713681D01*
X61349996Y-68747166D01*
X61323638Y-68750000D01*
X59102700Y-68750000D01*
X59035661Y-68730315D01*
X58989906Y-68677511D01*
X58978700Y-68626000D01*
X58978700Y-67981729D01*
X58977639Y-67973672D01*
X58977901Y-67973637D01*
X58975000Y-67951594D01*
X58975000Y-67750000D01*
X58790019Y-67565019D01*
X58756534Y-67503696D01*
X58753700Y-67477338D01*
X58753700Y-67031727D01*
X58753700Y-67031726D01*
X58731299Y-66948127D01*
X58724488Y-66936330D01*
X58688025Y-66873173D01*
X57786319Y-65971467D01*
X57752834Y-65910144D01*
X57750000Y-65883786D01*
X57750000Y-55337851D01*
X57752637Y-55312417D01*
X58145343Y-53438566D01*
X58178359Y-53376989D01*
X58239426Y-53343038D01*
X58266706Y-53340000D01*
X66932000Y-53340000D01*
X66999039Y-53359685D01*
G37*
%TD.AperFunction*%
%TD*%
%TA.AperFunction,Conductor*%
%TO.N,/VDD*%
G36*
X80040540Y-155855685D02*
G01*
X80086295Y-155908489D01*
X80097500Y-155959997D01*
X80097501Y-156062148D01*
X80100387Y-156092936D01*
X80100388Y-156092938D01*
X80124569Y-156162045D01*
X80128130Y-156231824D01*
X80124569Y-156243953D01*
X80100386Y-156313064D01*
X80097500Y-156343846D01*
X80097500Y-156564142D01*
X80097501Y-156564148D01*
X80100387Y-156594936D01*
X80100387Y-156594938D01*
X80100388Y-156594941D01*
X80145762Y-156724611D01*
X80145763Y-156724613D01*
X80227346Y-156835154D01*
X80337887Y-156916737D01*
X80381112Y-156931862D01*
X80467562Y-156962113D01*
X80475595Y-156962866D01*
X80498351Y-156965000D01*
X80913638Y-156964999D01*
X80980676Y-156984683D01*
X81001318Y-157001318D01*
X81713681Y-157713681D01*
X81747166Y-157775004D01*
X81750000Y-157801362D01*
X81750000Y-158813055D01*
X81730315Y-158880094D01*
X81728053Y-158883491D01*
X81719780Y-158895477D01*
X81663762Y-159043181D01*
X81644722Y-159199999D01*
X81644722Y-159200000D01*
X81663762Y-159356818D01*
X81719780Y-159504523D01*
X81719781Y-159504526D01*
X81728049Y-159516503D01*
X81749933Y-159582858D01*
X81750000Y-159586944D01*
X81750000Y-159698638D01*
X81730315Y-159765677D01*
X81713681Y-159786319D01*
X79786319Y-161713681D01*
X79724996Y-161747166D01*
X79698638Y-161750000D01*
X76301362Y-161750000D01*
X76234323Y-161730315D01*
X76213681Y-161713681D01*
X74286319Y-159786319D01*
X74252834Y-159724996D01*
X74250000Y-159698638D01*
X74250000Y-157801361D01*
X74269685Y-157734322D01*
X74286314Y-157713685D01*
X74998683Y-157001316D01*
X75060004Y-156967833D01*
X75086357Y-156964999D01*
X75457648Y-156964999D01*
X75488436Y-156962113D01*
X75618113Y-156916737D01*
X75728654Y-156835154D01*
X75810237Y-156724613D01*
X75832925Y-156659774D01*
X75855613Y-156594938D01*
X75855613Y-156594936D01*
X75858500Y-156564149D01*
X75858499Y-156343852D01*
X75855613Y-156313064D01*
X75831429Y-156243954D01*
X75827867Y-156174176D01*
X75831425Y-156162057D01*
X75855613Y-156092936D01*
X75858500Y-156062149D01*
X75858500Y-155960000D01*
X75878185Y-155892961D01*
X75930989Y-155847206D01*
X75982500Y-155836000D01*
X79973501Y-155836000D01*
X80040540Y-155855685D01*
G37*
%TD.AperFunction*%
%TD*%
%TA.AperFunction,Conductor*%
%TO.N,GND*%
G36*
X79866177Y-87220185D02*
G01*
X79886819Y-87236819D01*
X80563887Y-87913887D01*
X80597372Y-87975210D01*
X80600205Y-88001069D01*
X80619659Y-92836501D01*
X80600244Y-92903619D01*
X80547625Y-92949586D01*
X80501205Y-92959899D01*
X80501251Y-92960865D01*
X80498369Y-92960999D01*
X80483531Y-92962390D01*
X80467564Y-92963887D01*
X80467562Y-92963887D01*
X80467558Y-92963888D01*
X80337888Y-93009262D01*
X80227346Y-93090846D01*
X80145762Y-93201388D01*
X80100386Y-93331061D01*
X80100386Y-93331063D01*
X80097500Y-93361846D01*
X80097500Y-93582142D01*
X80097501Y-93582148D01*
X80100387Y-93612936D01*
X80100387Y-93612938D01*
X80100388Y-93612941D01*
X80118670Y-93665186D01*
X80145763Y-93742613D01*
X80227346Y-93853154D01*
X80337887Y-93934737D01*
X80345330Y-93940230D01*
X80387580Y-93995878D01*
X80393039Y-94065534D01*
X80359971Y-94127083D01*
X80298877Y-94160984D01*
X80271696Y-94164000D01*
X75684304Y-94164000D01*
X75617265Y-94144315D01*
X75571510Y-94091511D01*
X75561566Y-94022353D01*
X75590591Y-93958797D01*
X75610670Y-93940230D01*
X75618113Y-93934737D01*
X75728654Y-93853154D01*
X75810237Y-93742613D01*
X75837330Y-93665186D01*
X75855613Y-93612938D01*
X75855613Y-93612936D01*
X75858500Y-93582149D01*
X75858499Y-93361852D01*
X75855613Y-93331064D01*
X75810237Y-93201387D01*
X75728654Y-93090846D01*
X75618113Y-93009263D01*
X75618111Y-93009262D01*
X75488438Y-92963886D01*
X75487416Y-92963791D01*
X75486708Y-92963509D01*
X75481067Y-92962277D01*
X75481271Y-92961342D01*
X75422509Y-92937929D01*
X75381887Y-92881082D01*
X75375000Y-92840333D01*
X75375000Y-88101149D01*
X75394685Y-88034110D01*
X75411058Y-88013729D01*
X76183170Y-87237075D01*
X76244395Y-87203412D01*
X76271108Y-87200500D01*
X79799138Y-87200500D01*
X79866177Y-87220185D01*
G37*
%TD.AperFunction*%
%TD*%
M02*
